<svg width="60" height="46" viewBox="0 0 60 46" fill="none" xmlns="http://www.w3.org/2000/svg">
<path d="M0 16L8.14815 0L11 16H0Z" fill="#030E1E"/>
<path d="M9 0H55.4312C57.9517 0 60 2.06548 60 4.60714V42.6786C60 44.5119 58.5243 46 56.7062 46H12.2938C10.4757 46 9 44.5119 9 42.6786V0Z" fill="#051630"/>
<path d="M43 14.0164C43 12.9167 42.3519 12.02 41.5319 12.0003C40.6825 11.9807 40.0049 12.8643 40 13.9836C40 15.0898 40.6432 15.98 41.4681 15.9997C42.3175 16.0193 43 15.1357 43 14.0164Z" fill="white"/>
<path d="M33.5486 15.0003C29.4 14.966 26.0172 18.3144 26.0001 22.48C25.9829 26.6113 29.3086 29.9655 33.4571 29.9997C37.6057 30.034 40.9885 26.6799 40.9999 22.52C41.0171 18.383 37.6971 15.0345 33.5429 15.0003H33.5486ZM33.52 27.3713C30.8229 27.377 28.6229 25.177 28.6343 22.4743C28.6458 19.8001 30.84 17.623 33.52 17.6287C36.2 17.6287 38.3771 19.8172 38.3771 22.4971C38.3771 25.1771 36.2 27.3598 33.52 27.3655V27.3713Z" fill="white"/>
<path d="M48.8058 15.3221C48.381 11.4404 45.3769 8.61112 41.2075 8.28858C38.6525 8.09054 36.0793 8.09054 33.4879 8C30.9207 8.09054 28.3232 8.07356 25.7561 8.2999C22.6791 8.57151 20.3244 9.99746 18.971 12.6683C18.3763 13.8396 18.1092 15.1014 18.091 16.3859C18.0364 19.781 18.0061 23.1761 18 26.5769C18 27.6407 18.0789 28.7102 18.1942 29.7683C18.5887 33.435 21.2833 36.1907 25.1735 36.7057C27.1337 36.9659 29.1365 36.9999 31.121 36.9999C34.4832 36.9999 37.8514 37.0112 41.1954 36.7962C44.3027 36.5925 46.6635 35.11 48.029 32.4278C48.6177 31.2735 48.8908 30.0286 48.909 28.7554C48.9636 25.2924 48.9939 21.8294 49 18.3721C49 17.3592 48.9211 16.3407 48.8119 15.3278L48.8058 15.3221ZM46.0444 29.1119C45.9595 32.1619 43.8111 34.1593 40.5278 34.2442C35.8547 34.363 31.1695 34.363 26.4965 34.2442C23.1707 34.1593 21.1376 32.1845 20.9374 29.0893C20.7978 26.9108 20.7917 24.7322 20.7249 22.5084C20.7917 20.3356 20.8038 18.1174 20.9495 15.9106C21.0769 14.0093 21.9266 12.4306 23.8201 11.4913C24.8821 10.9651 26.0534 10.7727 27.2369 10.7727C31.6672 10.7727 36.1036 10.7217 40.5339 10.8519C43.8232 10.9481 45.9595 12.9229 46.0444 15.9842C46.1719 20.3582 46.1658 24.7379 46.0444 29.1176V29.1119Z" fill="white"/>
</svg>
