<svg width="48" height="48" viewBox="0 0 48 48" fill="none" xmlns="http://www.w3.org/2000/svg">
<g clip-path="url(#clip0_312_2009)">
<path d="M24 24C26.3734 24 28.6935 23.2962 30.6668 21.9776C32.6402 20.6591 34.1783 18.7849 35.0866 16.5922C35.9948 14.3995 36.2324 11.9867 35.7694 9.65892C35.3064 7.33115 34.1635 5.19295 32.4853 3.51472C30.8071 1.83649 28.6689 0.693605 26.3411 0.230582C24.0133 -0.232441 21.6005 0.00519943 19.4078 0.913451C17.2151 1.8217 15.3409 3.35977 14.0224 5.33316C12.7038 7.30655 12 9.62663 12 12C12.0032 15.1816 13.2685 18.232 15.5182 20.4818C17.768 22.7315 20.8184 23.9968 24 24ZM24 4.00001C25.5823 4.00001 27.129 4.4692 28.4446 5.34825C29.7602 6.2273 30.7855 7.47673 31.391 8.93854C31.9965 10.4003 32.155 12.0089 31.8463 13.5607C31.5376 15.1126 30.7757 16.538 29.6569 17.6569C28.538 18.7757 27.1126 19.5376 25.5607 19.8463C24.0089 20.155 22.4003 19.9965 20.9385 19.391C19.4767 18.7855 18.2273 17.7602 17.3482 16.4446C16.4692 15.129 16 13.5823 16 12C16 9.87827 16.8429 7.84344 18.3431 6.34315C19.8434 4.84286 21.8783 4.00001 24 4.00001Z" fill="#04D667"/>
<path d="M24 28C19.2277 28.0053 14.6524 29.9034 11.2779 33.2779C7.90342 36.6524 6.00529 41.2277 6 46C6 46.5304 6.21071 47.0391 6.58579 47.4142C6.96086 47.7893 7.46957 48 8 48C8.53043 48 9.03914 47.7893 9.41421 47.4142C9.78929 47.0391 10 46.5304 10 46C10 42.287 11.475 38.726 14.1005 36.1005C16.726 33.475 20.287 32 24 32C27.713 32 31.274 33.475 33.8995 36.1005C36.525 38.726 38 42.287 38 46C38 46.5304 38.2107 47.0391 38.5858 47.4142C38.9609 47.7893 39.4696 48 40 48C40.5304 48 41.0391 47.7893 41.4142 47.4142C41.7893 47.0391 42 46.5304 42 46C41.9947 41.2277 40.0966 36.6524 36.7221 33.2779C33.3476 29.9034 28.7723 28.0053 24 28Z" fill="#04D667"/>
</g>
<defs>
<clipPath id="clip0_312_2009">
<rect width="48" height="48" fill="white"/>
</clipPath>
</defs>
</svg>
