<svg width="72" height="72" viewBox="0 0 72 72" fill="none" xmlns="http://www.w3.org/2000/svg">
<g clip-path="url(#clip0_1667_118)">
<path d="M44.7046 72C43.6257 71.8287 42.8567 71.1812 42.1103 70.432C38.3598 66.6618 34.5789 62.9254 30.8246 59.1589C30.4391 58.7712 30.1085 58.6394 29.5492 58.7787C17.3017 61.828 5.00312 55.0254 1.1316 43.0822C-3.27086 29.5051 5.63231 14.9813 19.7712 12.666C22.6375 12.1973 25.4944 12.2274 28.3437 12.7997C28.5478 12.8411 28.7575 12.8543 29.0655 12.8938C29.0655 12.6058 29.0655 12.3554 29.0655 12.107C29.0655 9.33623 29.0598 6.56547 29.0655 3.79472C29.073 1.34773 30.4278 0 32.8746 0C40.8425 0 48.8085 0 56.7764 0C59.1722 0 60.5402 1.36655 60.5421 3.76272C60.5421 16.2085 60.5421 28.6543 60.5421 41.1001C60.5421 41.3768 60.5421 41.6535 60.5421 42.013C60.8557 42.013 61.107 42.013 61.3564 42.013C63.8543 42.013 66.3541 42.0093 68.852 42.013C70.3068 42.0149 71.3347 42.6304 71.7844 43.7937C72.2738 45.0642 71.8902 46.1202 70.9549 47.0519C62.9663 55.0009 54.9814 62.9536 47.0078 70.9177C46.3919 71.5332 45.6625 71.8306 44.8463 71.9981H44.7046V72ZM32.6857 57.7924C32.7821 57.9072 32.835 57.9825 32.9011 58.0484C36.6668 61.8017 40.4363 65.5493 44.1925 69.3102C44.697 69.8165 45.0579 69.6659 45.4944 69.2311C53.4207 61.3236 61.3564 53.4235 69.2771 45.5085C69.4925 45.2939 69.5511 44.9231 69.6833 44.6238C69.3772 44.5052 69.0711 44.285 68.7632 44.2812C66.1954 44.253 63.6257 44.2661 61.056 44.2643C59.0683 44.2643 58.2804 43.4756 58.2804 41.4897C58.2804 28.9291 58.2804 16.3685 58.2804 3.80602C58.2804 2.60699 57.9233 2.25124 56.7273 2.25124C48.7858 2.25124 40.8425 2.25124 32.9011 2.25124C31.6918 2.25124 31.3366 2.5957 31.3347 3.79661C31.3309 6.8497 31.3442 9.90092 31.3215 12.9521C31.3177 13.434 31.484 13.6298 31.9242 13.8105C40.9313 17.4847 46.201 24.0991 47.2516 33.7648C48.3135 43.5358 42.8775 52.9247 33.9781 57.1863C33.5586 57.3877 33.1354 57.5816 32.6895 57.7905L32.6857 57.7924ZM23.6578 57.2653C35.4311 57.3161 45.0787 47.7616 45.1278 36.0066C45.1769 24.2328 35.5992 14.6387 23.7447 14.5916C11.9658 14.5446 2.32007 24.0954 2.27473 35.8485C2.22938 47.626 11.8033 57.2126 23.6559 57.2634L23.6578 57.2653Z" fill="#04D667"/>
<path d="M23.6731 53.5835C13.8611 53.5553 5.91774 45.5988 5.96308 35.8466C6.00843 26.1189 14.0141 18.2188 23.7675 18.2772C33.5644 18.3355 41.4699 26.2525 41.4416 35.9765C41.4133 45.7042 33.4321 53.6118 23.6731 53.5854V53.5835ZM23.6844 51.3285C32.2115 51.3436 39.1686 44.4356 39.1799 35.9464C39.1894 27.4515 32.2626 20.5435 23.7222 20.5284C15.1912 20.5134 8.238 27.4176 8.22855 35.9087C8.21911 44.3998 15.1497 51.3135 23.6863 51.3285H23.6844Z" fill="#04D667"/>
<path d="M19.5654 40.1354C19.5654 42.3073 21.3394 44.0686 23.5269 44.0686C25.7144 44.0686 27.4884 42.3073 27.4884 40.1354C27.4884 37.9635 25.7378 36.222 23.5669 36.2022L23.637 36.1955C21.4662 36.1757 19.7155 34.421 19.7155 32.2623C19.7155 30.1037 21.4895 28.3291 23.677 28.3291C25.8645 28.3291 27.6385 30.0904 27.6385 32.2623" stroke="#04D667" stroke-width="2.8" stroke-miterlimit="10"/>
<path d="M23.7368 25.8261L23.7635 46.7768" stroke="#04D667" stroke-width="2.8" stroke-miterlimit="10"/>
</g>
<defs>
<clipPath id="clip0_1667_118">
<rect width="72" height="72" fill="white"/>
</clipPath>
</defs>
</svg>
