<svg width="18" height="8" viewBox="0 0 18 8" fill="none" xmlns="http://www.w3.org/2000/svg">
<path d="M11.6046 7.10935L16.9541 2.51502C17.1711 2.32748 17.293 2.07379 17.293 1.80936C17.293 1.54492 17.1711 1.29123 16.9541 1.10369C16.8457 1.00988 16.7168 0.935413 16.5748 0.884597C16.4328 0.83378 16.2804 0.807617 16.1266 0.807617C15.9727 0.807617 15.8204 0.83378 15.6784 0.884597C15.5364 0.935413 15.4075 1.00988 15.2991 1.10369L9.96131 5.70803C9.85297 5.80184 9.72407 5.87631 9.58205 5.92712C9.44003 5.97794 9.28769 6.0041 9.13384 6.0041C8.97999 6.0041 8.82765 5.97794 8.68563 5.92712C8.54361 5.87631 8.41471 5.80184 8.30636 5.70803L2.96857 1.10369C2.75065 0.915212 2.45448 0.808798 2.14521 0.807859C1.83594 0.80692 1.5389 0.911536 1.31944 1.09869C1.09998 1.28584 0.976078 1.5402 0.974985 1.80582C0.973892 2.07143 1.0957 2.32654 1.31362 2.51502L6.66307 7.10935C7.31864 7.67168 8.2073 7.98753 9.13384 7.98753C10.0604 7.98753 10.949 7.67168 11.6046 7.10935Z" fill="white"/>
</svg>
