<svg width="357" height="259" viewBox="0 0 357 259" fill="none" xmlns="http://www.w3.org/2000/svg">
<path d="M227.46 258.92C195.18 258.92 164.28 246.94 140.46 225.18C137.38 222.37 137.17 217.59 139.98 214.51C142.79 211.43 147.57 211.22 150.65 214.03C171.68 233.24 198.95 243.82 227.46 243.82C290.27 243.82 341.38 192.72 341.38 129.9C341.38 67.08 290.28 15.98 227.46 15.98C179.18 15.98 135.99 46.56 119.97 92.07C118.59 96 114.28 98.07 110.34 96.69C106.41 95.31 104.34 90.99 105.72 87.06C123.86 35.51 172.78 0.880005 227.45 0.880005C298.59 0.880005 356.47 58.76 356.47 129.9C356.47 201.04 298.59 258.92 227.45 258.92H227.46Z" fill="#051630"/>
<path d="M285.78 150.21H214.37L214.92 77.82C214.95 73.67 218.33 70.33 222.47 70.33C222.49 70.33 222.51 70.33 222.53 70.33C226.7 70.36 230.06 73.77 230.02 77.94L229.59 135.11H285.78C289.95 135.11 293.33 138.49 293.33 142.66C293.33 146.83 289.95 150.21 285.78 150.21Z" fill="#051630"/>
<path d="M110.3 128.86H8C3.58 128.86 0 125.28 0 120.86C0 116.44 3.58 112.86 8 112.86H110.3C114.72 112.86 118.3 116.44 118.3 120.86C118.3 125.28 114.72 128.86 110.3 128.86Z" fill="#051630"/>
<path d="M130.4 166.91H21.6201C17.2001 166.91 13.6201 163.33 13.6201 158.91C13.6201 154.49 17.2001 150.91 21.6201 150.91H130.4C134.82 150.91 138.4 154.49 138.4 158.91C138.4 163.33 134.82 166.91 130.4 166.91Z" fill="#051630"/>
<path d="M161.36 203.86H44.7202C40.3002 203.86 36.7202 200.28 36.7202 195.86C36.7202 191.44 40.3002 187.86 44.7202 187.86H161.36C165.78 187.86 169.36 191.44 169.36 195.86C169.36 200.28 165.78 203.86 161.36 203.86Z" fill="#051630"/>
</svg>
