<svg width="74" height="70" viewBox="0 0 74 70" fill="none" xmlns="http://www.w3.org/2000/svg">
<g clip-path="url(#clip0_1667_134)">
<path d="M31.874 27.9996C27.7323 27.9996 23.5906 27.9996 19.4508 27.9996C18.248 27.9996 17.8691 27.6275 17.8672 26.445C17.8672 20.4917 17.8672 14.5365 17.8672 8.58318C17.8672 7.38122 18.2382 7.00524 19.4255 7.0033C27.7323 7.0033 36.0391 7.0033 44.346 7.0033C45.5488 7.0033 45.9296 7.37538 45.9296 8.55786C45.9296 14.5112 45.9296 20.4664 45.9296 26.4197C45.9296 27.6178 45.5547 27.9996 44.3714 27.9996C40.2062 28.0015 36.0411 27.9996 31.874 27.9996ZM20.2378 25.6152H43.5336V9.37215H20.2378V25.6152Z" fill="#04D667"/>
<path d="M23.7451 18.6275V16.3853H26.0064V18.6275H23.7451Z" fill="#04D667"/>
<path d="M30.6675 18.6508H28.4453V16.3813H30.6675V18.6508Z" fill="#04D667"/>
<path d="M33.1182 16.3657H35.3677V18.608H33.1182V16.3657Z" fill="#04D667"/>
<path d="M40.0679 16.395V18.6119H37.793V16.395H40.0679Z" fill="#04D667"/>
<path d="M16.0357 31.5945L16.108 31.6061C17.0035 31.7493 17.6821 32.2494 18.2827 32.8683L18.2827 32.8683C18.5154 33.1083 18.7577 33.3398 19.0023 33.5718C19.0277 33.596 19.0532 33.6201 19.0787 33.6443C19.2978 33.852 19.5181 34.0609 19.7326 34.2758L19.7329 34.2761C20.0224 34.5685 20.3465 34.66 20.7553 34.5963C21.5684 34.4657 22.3858 34.3448 23.2034 34.2433L23.2035 34.2433C24.117 34.1306 24.9142 34.3219 25.5253 34.7771C26.1362 35.2322 26.5511 35.9439 26.7138 36.8535L26.7139 36.8535C26.8545 37.6406 26.9932 38.4303 27.1203 39.2201C27.1856 39.6238 27.3812 39.9001 27.7504 40.0879L27.705 40.177M16.0357 31.5945L29.8491 54.9239C31.4601 54.0648 31.9678 52.4985 31.1672 50.8563L31.2571 50.8126C31.2571 50.8126 31.2571 50.8125 31.2571 50.8125C31.1813 50.6565 31.1057 50.5003 31.0302 50.344C30.762 49.7891 30.4934 49.2335 30.2095 48.6852C30.1087 48.4879 30.0593 48.3026 30.0582 48.1206C30.0571 47.9387 30.1042 47.7538 30.2055 47.5573L30.2056 47.557C30.5812 46.8234 30.9409 46.0842 31.2946 45.3415C31.6771 44.5383 31.7408 43.7297 31.5076 43.0126C31.2744 42.2956 30.7472 41.6796 29.9651 41.256L29.9651 41.2559C29.2307 40.8585 28.4954 40.4644 27.7501 40.0877L27.705 40.177M16.0357 31.5945L16.0286 31.6087M16.0357 31.5945L16.0286 31.6087M27.705 40.177C27.3067 39.9744 27.0919 39.6705 27.0216 39.2361C26.8947 38.4471 26.756 37.6581 26.6154 36.8711C26.2971 35.0925 25.0005 34.1224 23.2157 34.3425C22.3995 34.4438 21.5833 34.5646 20.7709 34.6951C20.3335 34.7633 19.9762 34.664 19.6618 34.3464C19.4484 34.1326 19.2291 33.9247 19.0099 33.7169C18.7397 33.4607 18.4697 33.2047 18.2109 32.938C17.6173 32.3263 16.9573 31.8431 16.0922 31.7048M27.705 40.177C28.449 40.553 29.1832 40.9465 29.9174 41.3439C31.4425 42.1699 31.9502 43.7322 31.2043 45.2985C30.8508 46.0407 30.4915 46.779 30.1166 47.5115L16.0922 31.7048M16.0922 31.7048L16.0903 31.7087L16.0922 31.7048ZM16.0286 31.6087H15.4478H15.4399L15.4321 31.61C14.5366 31.7532 13.858 32.2533 13.2574 32.8722C12.9642 33.1742 12.6612 33.4616 12.3566 33.7506C12.1581 33.9388 11.959 34.1278 11.7614 34.3218L11.7613 34.3219C11.5102 34.5688 11.2232 34.6618 10.8792 34.6117L10.879 34.6117C10.6408 34.5777 10.4028 34.5446 10.165 34.5115C9.59784 34.4325 9.03178 34.3537 8.4671 34.2633L8.46706 34.2633C7.5624 34.1187 6.75072 34.2818 6.1179 34.7125C5.48489 35.1434 5.04008 35.8358 4.85794 36.7323L16.0286 31.6087ZM27.1125 57.0531L27.1125 57.0533C26.9816 57.8756 26.8447 58.6995 26.6782 59.516L26.6782 59.516C26.497 60.4038 26.0542 61.0922 25.425 61.5222C24.7961 61.9522 23.9899 62.118 23.0928 61.9773L23.0927 61.9773C22.5364 61.8894 21.9798 61.8117 21.4224 61.7338C21.1649 61.6979 20.9072 61.6619 20.6493 61.6249L20.6492 61.6249C20.305 61.575 20.0212 61.6743 19.7688 61.9208L19.6989 61.8493L19.7688 61.9207C19.1573 62.5191 18.5419 63.1136 17.9205 63.7042C17.2774 64.3159 16.525 64.6259 15.7681 64.6259C15.0112 64.6259 14.2588 64.3159 13.6156 63.7042L13.6156 63.7042C13.5601 63.6513 13.5045 63.5984 13.4488 63.5455C12.9085 63.0316 12.3656 62.5151 11.8387 61.9841C11.6819 61.8268 11.521 61.7246 11.3481 61.6697L27.1125 57.0531ZM27.1125 57.0531C27.1469 56.8357 27.2136 56.6562 27.3182 56.5072M27.1125 57.0531L27.3182 56.5072M4.41596 56.9935C4.48048 57.3836 4.54841 57.7727 4.61625 58.1612C4.68412 58.55 4.7519 58.9382 4.81626 59.3273L4.81627 59.3273C4.96901 60.2465 5.37615 60.9686 5.98407 61.4334C6.59216 61.8984 7.39106 62.0981 8.31242 61.9915L8.31251 61.9915C9.13242 61.8958 9.9503 61.7787 10.7642 61.642L3.84678 56.0635C3.17539 55.7215 2.51216 55.3664 1.84963 55.0117C1.78763 54.9786 1.72564 54.9454 1.66365 54.9122M4.41596 56.9935C4.41596 56.9935 4.41595 56.9935 4.41595 56.9935L4.51461 56.9771L4.41598 56.9936C4.41597 56.9936 4.41596 56.9935 4.41596 56.9935ZM4.41596 56.9935C4.35075 56.6034 4.15718 56.3328 3.8016 56.1527L3.80139 56.1526C3.12898 55.8101 2.4648 55.4545 1.80237 55.0999C1.7404 55.0667 1.67844 55.0335 1.6165 55.0004M1.6165 55.0004L1.66365 54.9122M1.6165 55.0004C1.61649 55.0004 1.61648 55.0004 1.61647 55.0004L1.66365 54.9122M1.6165 55.0004C0.810239 54.5693 0.26981 53.9465 0.0339344 53.2187C-0.201924 52.4911 -0.129835 51.6691 0.269204 50.8459C0.337726 50.7041 0.406008 50.5621 0.474346 50.4199C0.748107 49.8503 1.02276 49.2788 1.31735 48.7176M1.66365 54.9122C0.0897639 54.0706 -0.419894 52.4966 0.359238 50.8894L4.85793 36.7324C4.69349 37.5389 4.55458 38.351 4.42944 39.1644L4.42943 39.1644C4.39498 39.3892 4.32842 39.5746 4.22263 39.7279C4.11716 39.8808 3.96906 40.0071 3.76341 40.1088L3.76319 40.1089C3.0841 40.4467 2.41673 40.8077 1.75051 41.168C1.69268 41.1992 1.63487 41.2305 1.57705 41.2618L1.57701 41.2618C0.795751 41.6845 0.269106 42.3011 0.0361471 43.0185C-0.196804 43.736 -0.133111 44.5451 0.249448 45.3474L0.24946 45.3474C0.268594 45.3875 0.287726 45.4276 0.306859 45.4677C0.637023 46.1598 0.967766 46.8531 1.32309 47.5343L1.41175 47.4881L1.32299 47.5342C1.43119 47.7427 1.4815 47.9366 1.48017 48.1269C1.47884 48.3172 1.42578 48.5105 1.31735 48.7176M1.31735 48.7176L1.40589 48.7641L1.3173 48.7177C1.31732 48.7177 1.31733 48.7176 1.31735 48.7176ZM15.0795 62.1977L15.0797 62.1979C15.3198 62.4282 15.5505 62.5318 15.7711 62.5309C15.992 62.5301 16.2239 62.4245 16.4663 62.192C16.8197 61.8529 17.1714 61.5128 17.5235 61.1724C17.7863 60.9183 18.0494 60.6639 18.3134 60.4097C19.0103 59.7385 19.8424 59.4158 20.8211 59.5449C20.8211 59.5449 20.8211 59.5449 20.8211 59.5449L20.808 59.6441L15.0795 62.1977ZM15.0795 62.1977L15.0795 62.1977C14.4838 61.6288 13.8889 61.0606 13.3038 60.4827C12.4911 59.678 11.5232 59.3924 10.4016 59.5746C9.77953 59.6754 9.15601 59.7611 8.56187 59.8427C8.33853 59.8734 8.11933 59.9035 7.90593 59.9336L7.89409 59.9337C7.62036 59.9355 7.40272 59.8659 7.24405 59.7444C7.08605 59.6233 6.9785 59.4446 6.93465 59.2125C6.77465 58.3658 6.62251 57.5154 6.48404 56.6632C6.31327 55.6029 5.76763 54.8116 4.80697 54.3112C4.06943 53.9258 3.3338 53.5345 2.59778 53.1431L2.59715 53.1427C2.27172 52.9696 2.09125 52.7802 2.02268 52.5677C1.95407 52.355 1.98954 52.0945 2.15191 51.7611L2.15192 51.7611C2.23369 51.5931 2.31522 51.4251 2.39671 51.2571C2.67363 50.6863 2.95024 50.1161 3.23508 49.5493C3.71997 48.5859 3.71796 47.6271 3.2291 46.6656C2.97777 46.1696 2.73519 45.6693 2.49211 45.168C2.3862 44.9495 2.28019 44.7309 2.17332 44.5123M15.0795 62.1977L2.08348 44.5563M24.9812 57.0402L24.9812 57.0402C25.0569 56.3564 25.2618 55.7691 25.6098 55.2801C25.9579 54.7909 26.4454 54.4054 27.0781 54.1198C27.4933 53.932 27.8916 53.7138 28.2937 53.4935C28.4724 53.3956 28.6518 53.2973 28.8338 53.201L28.8338 53.201C29.2401 52.9863 29.4471 52.791 29.518 52.5676C29.5891 52.3437 29.5336 52.0599 29.3278 51.6406C29.2046 51.39 29.0826 51.1392 28.9608 50.8887C28.742 50.4389 28.5235 49.9899 28.2992 49.5435C27.8202 48.5919 27.8182 47.6411 28.2951 46.6875C28.56 46.1577 28.8196 45.625 29.0796 45.0917C29.1797 44.8863 29.2799 44.6808 29.3805 44.4753C29.547 44.1334 29.5844 43.8709 29.515 43.6569C29.4457 43.4429 29.2614 43.2519 28.9254 43.0724C28.7526 42.9807 28.58 42.8888 28.4074 42.7969C27.854 42.5021 27.301 42.2076 26.7433 41.9198L26.7433 41.9197C25.7686 41.4155 25.2189 40.618 25.0501 39.5438M24.9812 57.0402L24.7076 37.0387M24.9812 57.0402C24.9221 57.5764 24.8171 58.1069 24.7114 58.6413M24.9812 57.0402L24.7114 58.6413M25.0501 39.5438L25.1489 39.5283L25.0501 39.5438C25.0501 39.5438 25.0501 39.5438 25.0501 39.5438ZM25.0501 39.5438C24.9196 38.7136 24.7656 37.8851 24.6093 37.0572M24.6093 37.0572C24.6094 37.0572 24.6094 37.0573 24.6094 37.0573L24.7076 37.0387M24.6093 37.0572C24.5546 36.7685 24.426 36.5631 24.2476 36.4386C24.0689 36.3138 23.828 36.2618 23.5325 36.3039L23.5324 36.3039C23.3874 36.3243 23.2425 36.3446 23.0977 36.3649C22.4264 36.4588 21.7565 36.5526 21.0892 36.6582L21.0736 36.5594M24.6093 37.0572L24.7076 37.0387M24.7076 37.0387L16.4741 34.0387M21.0736 36.5594C19.9899 36.7309 19.0701 36.4425 18.2949 35.6614M21.0736 36.5594L2.08348 44.5563M21.0736 36.5594L21.0892 36.6582C19.9746 36.8345 19.0224 36.5364 18.2239 35.7318L18.2949 35.6614M18.2949 35.6614C17.8753 35.2385 17.4442 34.8272 17.0131 34.4158C16.8563 34.2663 16.6995 34.1167 16.5433 33.9665L16.4741 34.0387M18.2949 35.6614L18.2239 35.7318C17.8054 35.31 17.3757 34.9001 16.9449 34.489C16.788 34.3393 16.6309 34.1894 16.4741 34.0387M16.4741 34.0387C16.2254 33.7999 15.9922 33.6931 15.7701 33.6937C15.5478 33.6944 15.314 33.8026 15.0641 34.0426L15.064 34.0426C14.455 34.6268 13.8479 35.215 13.2406 35.8033C12.5357 36.4865 11.6956 36.811 10.7033 36.68L10.7033 36.68C9.82215 36.563 8.94298 36.4403 8.06383 36.3116L8.06373 36.3116C7.73572 36.2633 7.48246 36.31 7.29841 36.4355C7.11509 36.5606 6.984 36.7749 6.92291 37.0963C6.89269 37.2559 6.86147 37.415 6.83031 37.5738C6.72381 38.1165 6.61798 38.6559 6.55495 39.2007C6.47726 39.8765 6.27383 40.4583 5.92937 40.9435C5.58476 41.4289 5.10272 41.8125 4.47591 42.0973L4.47589 42.0973C4.04029 42.2951 3.62078 42.5255 3.19776 42.7578C3.01178 42.86 2.82511 42.9625 2.63611 43.0628M2.63611 43.0628L2.58924 42.9744L2.63613 43.0627C2.63612 43.0627 2.63612 43.0628 2.63611 43.0628ZM2.63611 43.0628C2.28194 43.2508 2.09178 43.4429 2.02226 43.66C1.95264 43.8773 1.99509 44.1472 2.17332 44.5123M2.17332 44.5123L2.08348 44.5563M2.17332 44.5123C2.17333 44.5123 2.17334 44.5124 2.17335 44.5124L2.08348 44.5563M27.3182 56.5072C27.4226 56.3585 27.5681 56.2352 27.7674 56.1354L27.3182 56.5072ZM24.7114 58.6413C24.6783 58.8085 24.6451 58.976 24.6133 59.1443L24.7114 58.6413Z" fill="#04D667" stroke="#04D667" stroke-width="0.2"/>
<path d="M8.57659 54.8246L8.57659 54.8246C8.39357 54.4594 8.42695 54.0868 8.66464 53.7535L8.66485 53.7532C8.74029 53.6483 8.83376 53.5572 8.91927 53.4738C8.92472 53.4685 8.93014 53.4632 8.93551 53.458C10.9672 51.4301 12.9989 49.4028 15.0305 47.3755L15.0396 47.3665C17.0684 45.342 19.0971 43.3176 21.1259 41.2927L21.1259 41.2926C21.3583 41.0608 21.621 40.8246 22.0216 40.829M8.57659 54.8246L22.8561 42.5048C23.1126 42.1657 23.1527 41.7842 22.9633 41.4063C22.774 41.0284 22.4479 40.8333 22.0216 40.829M8.57659 54.8246L8.5768 54.825M8.57659 54.8246L8.5768 54.825M22.0216 40.829C22.0216 40.829 22.0216 40.829 22.0216 40.829L22.0206 40.929L22.0217 40.829C22.0217 40.829 22.0217 40.829 22.0216 40.829ZM8.5768 54.825C8.74704 55.1607 9.027 55.3509 9.38808 55.3924V55.3958L9.48179 55.4017C9.90153 55.4281 10.1764 55.1791 10.4159 54.9402L10.416 54.9402M8.5768 54.825L10.416 54.9402M10.416 54.9402C14.4774 50.8845 18.5428 46.8288 22.6062 42.775L22.6067 42.7745C22.6169 42.7644 22.6273 42.7541 22.6377 42.7437M10.416 54.9402L22.6377 42.7437M22.6377 42.7437C22.7109 42.6712 22.7899 42.5929 22.856 42.5049L22.6377 42.7437Z" fill="#04D667" stroke="#04D667" stroke-width="0.2"/>
<path d="M11.9679 46.6316L12.0093 46.6317L12.0115 46.6296C13.9591 46.6131 15.5457 45.0268 15.5517 43.0819L15.5517 43.0818C15.5557 41.1235 13.959 39.5106 12.0001 39.4946L12 39.4946C10.0451 39.4805 8.41603 41.0813 8.40397 43.0342L8.40397 43.0343C8.39192 45.022 9.98112 46.6276 11.9679 46.6316ZM10.4981 43.0488L10.4981 43.0488C10.5158 42.2568 11.1313 41.6351 11.9112 41.6012L11.9889 41.6017C12.8033 41.6072 13.4573 42.2661 13.4537 43.0734C13.45 43.874 12.7796 44.5459 11.9798 44.5459L11.9796 44.5459C11.1699 44.5477 10.4799 43.847 10.4981 43.0488Z" fill="#04D667" stroke="#04D667" stroke-width="0.2"/>
<path d="M19.5564 51.5868C18.6972 51.5927 17.9864 52.3076 17.9884 53.1628L19.5584 54.6291C19.5585 54.6291 19.5587 54.6291 19.5588 54.6291M19.5564 51.5868L19.5571 51.6868M19.5564 51.5868L19.5571 51.6868C19.5571 51.6868 19.5571 51.6868 19.5571 51.6868M19.5564 51.5868C20.4234 51.581 21.1596 52.3193 21.144 53.1784L19.5588 54.6291M19.5571 51.6868C18.7526 51.6923 18.0866 52.3628 18.0884 53.1626L18.0884 53.1628C18.0884 53.9739 18.7422 54.6254 19.5588 54.629V54.6291M19.5571 51.6868C20.3687 51.6813 21.0586 52.3745 21.044 53.1766V53.1766C21.0294 53.992 20.3761 54.6317 19.5588 54.6291M23.1381 53.2005V53.2005C23.1522 51.2107 21.5668 49.6091 19.5783 49.6011C17.6098 49.5931 16.0004 51.1821 15.9923 53.1429C15.9843 55.1013 17.5791 56.7162 19.5379 56.7343C21.493 56.7523 23.124 55.1535 23.1381 53.2005Z" fill="#04D667" stroke="#04D667" stroke-width="0.2"/>
<path d="M64.5197 65.3129C65.5508 65.2213 66.4959 64.8337 67.2691 64.2375H60.8545C61.866 65.0226 63.1587 65.4337 64.5197 65.3129Z" fill="#04D667"/>
<path d="M70.4167 64.2375C69.0205 66.3668 66.5737 67.7304 63.8067 67.6545C61.2526 67.5843 59.0167 66.248 57.7045 64.2375H55.0449C56.7282 67.896 60.5262 70.259 64.7597 69.9766C68.4562 69.7311 71.6078 67.4343 73.088 64.2375H70.4186H70.4167Z" fill="#04D667"/>
<path d="M73.9845 30.8554C73.9786 28.3794 73.9728 25.9034 73.965 23.4274C73.963 22.7008 73.6076 21.9352 73.2717 21.2612C73.0433 20.8034 72.5824 20.4488 72.186 20.0943C71.7974 19.7456 71.6315 19.3716 71.6432 18.83C71.6803 17.0319 71.6568 15.2339 71.6568 13.4358C71.6568 11.9825 71.3483 11.6689 69.9209 11.6689C68.0697 11.6689 66.2185 11.6884 64.3674 11.6494C64.0256 11.6416 63.6195 11.4721 63.3617 11.2442C62.6509 10.6169 62.0046 9.91953 61.3328 9.24939C60.5869 8.50718 59.6906 8.15847 58.6362 8.16432C56.6151 8.176 54.5921 8.16821 52.571 8.16821C52.3152 8.16821 52.0594 8.16821 51.7802 8.16821C51.7802 7.83509 51.7802 7.61886 51.7802 7.40067C51.7587 2.96102 48.7925 0.00385007 44.3462 0.001902C36.0394 -4.60704e-05 27.7345 -0.00394221 19.4276 0.0116423C18.7286 0.0116423 18.01 0.0700844 17.3324 0.237618C14.0635 1.04802 12.019 3.80453 12.019 7.35002C12.019 14.8462 12.019 22.3404 12.019 29.8366L14.3584 29.41C14.3584 22.0774 14.3584 14.7468 14.3584 7.41431C14.3584 4.25843 16.2896 2.33569 19.4569 2.33569C27.7618 2.33569 36.0667 2.33569 44.3716 2.33569C47.492 2.33569 49.4369 4.26818 49.4369 7.3734C49.4369 15.2007 49.4369 23.0281 49.4369 30.8554C49.4369 39.7445 49.4369 48.6335 49.4369 57.5226V58.2979H29.6267V60.6628C36.4299 60.6628 43.2332 60.6628 50.0345 60.6628C51.4638 60.6628 51.7743 60.3473 51.7763 58.8979C51.7763 53.1628 51.7763 47.4277 51.7763 41.6945V40.8627C53.8735 40.7536 54.1156 40.9757 54.1156 42.912C54.1156 48.5244 54.1117 54.1388 54.1215 59.7512C54.1215 60.3317 54.1527 60.918 54.2347 61.4927C54.3753 62.4668 54.6526 63.3882 55.0451 64.2395H57.7047C56.9275 63.0492 56.4725 61.6252 56.4647 60.0862C56.4335 54.3277 56.4569 48.5692 56.4569 42.8088C56.4569 39.7562 55.258 38.5484 52.1824 38.4977C52.0848 38.4977 51.9891 38.486 51.8114 38.4743V36.2633C55.3654 35.5055 58.7709 38.3029 58.7885 42.0354C58.8139 47.9166 58.7943 53.7959 58.8002 59.6771C58.8002 60.1369 58.8197 60.6044 58.9056 61.0525C59.1595 62.3694 59.8761 63.4798 60.8544 64.2395H67.2691C68.5052 63.2888 69.3019 61.8064 69.3097 60.1369C69.3351 53.6245 69.3194 47.1121 69.3194 40.5997C69.3194 40.3133 69.3194 40.0289 69.3194 39.7055H71.5963C71.6158 39.8516 71.6549 40.0114 71.6549 40.1711C71.6568 46.8296 71.6861 53.4881 71.6451 60.1447C71.6354 61.6681 71.1843 63.0687 70.4188 64.2395H73.0882C73.6623 62.9966 73.9845 61.6174 73.9884 60.17C74.0079 50.3985 74.0079 40.6289 73.9884 30.8574L73.9845 30.8554ZM51.8329 10.5273H54.0707V12.7968H51.8329V10.5273ZM66.9742 59.9849C66.9723 62.1083 65 63.5148 63.061 62.8233C61.8718 62.3966 61.1356 61.3116 61.1337 59.9304C61.1278 55.3388 61.1415 50.7452 61.1259 46.1536C61.12 44.3575 61.2176 42.5419 60.9833 40.7731C60.4502 36.7639 57.0798 33.91 53.0201 33.836C52.6355 33.8282 52.2488 33.836 51.8114 33.836V15.2066H56.455C56.455 15.4598 56.455 15.715 56.455 15.9702C56.455 20.2462 56.455 24.5223 56.4589 28.8002C56.4589 29.56 56.578 30.2515 56.8006 30.8593C57.488 32.7314 59.1731 33.8321 61.5301 33.836C63.307 33.836 65.084 33.836 66.9078 33.836C66.9332 34.0133 66.9762 34.1711 66.9762 34.3308C66.9801 42.8828 66.986 51.4368 66.9742 59.9888V59.9849ZM58.8217 29.3807C58.7611 27.2223 58.8002 25.0599 58.7982 22.8995C58.7982 22.6852 58.7982 22.4709 58.7982 22.1865H61.1317V22.8781C61.1317 24.4813 61.1278 26.0827 61.1317 27.6859C61.1356 28.7691 61.5379 29.1606 62.6412 29.1645C64.051 29.1684 65.4609 29.1645 66.9235 29.1645V31.4983C65.5488 31.4983 64.1701 31.4983 62.7915 31.4983C62.2077 31.4983 61.6218 31.5178 61.0399 31.4905C60.4483 31.4632 59.9035 31.2295 59.5012 30.8554C59.097 30.4814 58.8373 29.9671 58.8217 29.3807ZM67.0055 26.7976H63.5082V22.1456C65.0508 22.1417 65.4941 23.5774 66.4607 24.269C67.3941 24.9372 66.8161 25.9112 67.0055 26.7976ZM69.3175 37.2763V36.5107C69.3175 34.625 69.3155 32.7412 69.3136 30.8554C69.3136 28.8294 69.3155 26.8054 69.3292 24.7794C69.3331 24.0898 69.1222 23.5813 68.6243 23.1138C67.685 22.2313 66.8239 21.2651 65.8612 20.4099C65.5175 20.104 64.9786 19.8742 64.5216 19.8586C62.6509 19.7982 60.7763 19.8333 58.7943 19.8333C58.7943 19.0832 58.7943 18.3644 58.7943 17.6475C58.7943 16.5547 58.7943 15.4618 58.7904 14.3689C58.7865 13.2254 58.4038 12.8436 57.2595 12.8358C57.0193 12.8358 56.7811 12.8358 56.4979 12.8358V10.5117C57.3181 10.5117 58.1187 10.4611 58.9076 10.5371C59.2298 10.5682 59.5715 10.8234 59.8234 11.063C60.6553 11.8462 61.4168 12.7053 62.276 13.4572C62.608 13.7475 63.1196 13.9657 63.555 13.9793C65.4472 14.0358 67.3414 14.0027 69.3155 14.0027C69.3155 15.8046 69.3585 17.5462 69.298 19.2858C69.2687 20.1625 69.4757 20.8657 70.1884 21.382C71.4049 22.2625 71.7232 23.4294 71.6881 24.9138C71.6412 26.8931 71.6315 28.8723 71.6334 30.8574C71.6373 32.9886 71.6529 35.1256 71.6529 37.2782H69.3136L69.3175 37.2763Z" fill="#04D667"/>
</g>
<defs>
<clipPath id="clip0_1667_134">
<rect width="74" height="70" fill="white"/>
</clipPath>
</defs>
</svg>
