<svg width="32" height="15" viewBox="0 0 32 15" fill="none" xmlns="http://www.w3.org/2000/svg">
<path d="M20.845 13.1653L31.3354 3.56705C31.7611 3.17525 32 2.64524 32 2.0928C32 1.54035 31.7611 1.01035 31.3354 0.618552C31.1229 0.422554 30.8702 0.266987 30.5916 0.160823C30.3131 0.0546589 30.0144 -8.6793e-08 29.7127 -9.99812e-08C29.411 -1.1317e-07 29.1123 0.0546588 28.8337 0.160823C28.5552 0.266986 28.3025 0.422554 28.09 0.618552L17.6224 10.2377C17.41 10.4337 17.1572 10.5893 16.8787 10.6955C16.6002 10.8016 16.3015 10.8563 15.9997 10.8563C15.698 10.8563 15.3993 10.8016 15.1208 10.6955C14.8423 10.5893 14.5895 10.4337 14.377 10.2377L3.90948 0.618551C3.48214 0.224784 2.90135 0.00246608 2.29486 0.000505243C1.68838 -0.0014556 1.10588 0.217103 0.675508 0.608097C0.245142 0.999091 0.00215905 1.53049 1.51676e-05 2.0854C-0.00212872 2.64031 0.236748 3.17328 0.664083 3.56704L11.1545 13.1653C12.4401 14.3401 14.1828 15 15.9997 15C17.8167 15 19.5594 14.3401 20.845 13.1653Z" fill="#04D667"/>
</svg>
