<svg width="36" height="41" viewBox="0 0 36 41" fill="none" xmlns="http://www.w3.org/2000/svg">
<path d="M6.29757 38.766C6.29757 39.1935 6.30599 39.5825 6.29517 39.9715C6.28314 40.4316 6.05712 40.6736 5.60146 40.676C3.96638 40.6845 2.33129 40.6857 0.696209 40.676C0.217707 40.6736 0.00490525 40.4147 0.00250072 39.8764C-0.00230835 38.4492 0.00129845 37.0221 0.00129845 35.5949C0.00129845 31.7194 0.00129845 27.8438 0.00129845 23.9671C0.00129845 23.1578 0.1612 23 0.976337 23C2.43108 23 3.88582 23 5.34177 23C6.15089 23 6.29637 23.1505 6.29757 23.9803C6.29757 24.5957 6.29998 25.2124 6.30358 25.8278C6.30358 25.8531 6.32763 25.8772 6.35889 25.9374C7.30507 25.493 8.30416 25.2726 9.35614 25.3448C11.1463 25.4689 12.6299 26.2216 13.8646 27.5139C14.0065 27.6632 14.2626 27.7788 14.4658 27.7812C16.6551 27.8005 18.8468 27.8475 21.035 27.7776C23.3662 27.7041 24.7536 29.896 23.9637 31.7435C23.9481 31.7784 23.9613 31.8266 23.9613 31.9759C24.4121 31.6857 24.8269 31.4568 25.1996 31.1726C27.205 29.6467 29.1911 28.0943 31.2025 26.5745C32.8797 25.3075 35.2638 26.0867 35.8565 28.0907C36.2376 29.3782 35.8457 30.4585 34.8454 31.3232C33.3017 32.6588 31.752 33.9859 30.2022 35.3143C29.1094 36.2525 28.0298 37.2088 26.9153 38.1192C23.8182 40.6483 20.2896 41.4914 16.3774 40.7302C13.1433 40.1004 9.91279 39.45 6.67989 38.8105C6.5777 38.79 6.4731 38.7864 6.29637 38.7672L6.29757 38.766ZM6.29757 37.4207C6.419 37.4593 6.50196 37.4954 6.58852 37.5122C9.94044 38.1746 13.29 38.8454 16.6443 39.4958C20.328 40.21 23.5958 39.3356 26.4416 36.88C27.5897 35.8888 28.7427 34.9061 29.8933 33.9173C31.2711 32.7334 32.6465 31.5484 34.0267 30.3657C34.5545 29.9129 34.8394 29.3577 34.7083 28.6556C34.4631 27.3416 32.9951 26.7888 31.9155 27.6114C29.969 29.0927 28.0213 30.5729 26.0989 32.0855C24.869 33.0538 23.5068 33.5319 21.9391 33.5151C19.359 33.4886 16.7777 33.5078 14.1977 33.5078C13.4739 33.5078 13.1553 33.3079 13.1673 32.8647C13.1793 32.4348 13.4871 32.2457 14.182 32.2457C16.4772 32.2457 18.7735 32.2481 21.0686 32.2409C21.3355 32.2409 21.6145 32.2228 21.8645 32.1409C22.5799 31.9061 23.0115 31.1702 22.9009 30.4416C22.777 29.6287 22.1519 29.0614 21.3223 29.0578C19.0572 29.0482 16.791 29.0313 14.5259 29.0674C13.8454 29.0783 13.3032 28.9663 12.8956 28.3725C12.7225 28.1196 12.4568 27.9185 12.2043 27.733C10.5368 26.5022 8.76342 26.2023 6.841 27.12C6.4178 27.3224 6.24708 27.5813 6.28675 28.0558C6.33123 28.5929 6.29757 29.1373 6.29757 29.678C6.29757 32.2469 6.29757 34.8157 6.29757 37.4207ZM5.00754 39.3934V24.285H1.28652V39.3934H5.00754Z" fill="#051630"/>
<path d="M27.0276 4.37236C27.0276 3.40365 27.0265 2.50475 27.0276 1.6071C27.0299 0.537393 27.5148 0.0125157 28.5076 0.0050353C28.879 0.00254182 29.2515 -0.00618535 29.623 0.00752878C30.4655 0.0386973 30.9699 0.600977 30.9768 1.52107C30.9837 2.45114 30.9779 3.38121 30.9779 4.37236C31.7792 4.37236 32.5461 4.37236 33.313 4.37236C34.5614 4.37236 34.997 4.84238 34.997 6.18762C34.997 6.52922 35.0051 6.87208 34.9947 7.21368C34.9684 8.11258 34.4628 8.65865 33.6386 8.66863C32.7697 8.6786 31.9008 8.67112 30.9779 8.67112C30.9779 9.60243 30.9699 10.4826 30.9814 11.3641C30.9883 11.884 30.9069 12.3615 30.5206 12.7081C30.3922 12.824 30.2259 12.9562 30.0735 12.9612C29.3501 12.9861 28.6188 13.0422 27.9057 12.9449C27.3578 12.8701 27.0425 12.3066 27.0322 11.6695C27.0196 10.8305 27.0082 9.99017 27.0357 9.15112C27.0483 8.74967 26.9199 8.65117 26.5725 8.66364C25.8435 8.68982 25.1144 8.67735 24.3853 8.66987C23.5107 8.66115 23.0108 8.11009 23.004 7.15509C23.0005 6.71997 22.9971 6.28361 23.004 5.8485C23.0189 4.95958 23.5244 4.39356 24.3486 4.37735C25.2187 4.3599 26.0899 4.37361 27.0276 4.37361V4.37236ZM24.2225 7.36329C25.0353 7.36329 25.8182 7.36329 26.6001 7.36329C27.7796 7.36329 28.229 7.85451 28.229 9.14239C28.229 9.99266 28.229 10.8417 28.229 11.6982H29.7766C29.7766 10.8068 29.7766 9.95402 29.7766 9.10125C29.7766 7.84578 30.2236 7.36454 31.3906 7.36454C32.1736 7.36454 32.9565 7.36454 33.7601 7.36454V5.67895C32.8832 5.67895 32.0418 5.68144 31.2003 5.67895C30.2672 5.67521 29.78 5.14409 29.7777 4.12426C29.7754 3.2104 29.7777 2.29654 29.7777 1.34777H28.2302C28.2302 2.32646 28.2382 3.27274 28.2279 4.21777C28.2175 5.11043 27.6971 5.66648 26.8821 5.6777C26.5393 5.68269 26.1954 5.6777 25.8526 5.6777C25.315 5.6777 24.7774 5.6777 24.2237 5.6777V7.36329H24.2225Z" fill="#04D667"/>
<path d="M5.01429 12.9838C4.16057 12.9838 3.36407 12.9849 2.56757 12.9838C1.47353 12.9815 1.00432 12.5096 1.00203 11.4119C1.00203 11.0824 0.997457 10.7528 1.00203 10.4233C1.01806 9.5415 1.51358 9.04089 2.39133 9.03171C3.24506 9.02367 4.09878 9.02941 5.01315 9.02941C5.01315 8.18894 5.00972 7.39325 5.01544 6.59641C5.01658 6.384 5.02116 6.16354 5.07151 5.95917C5.21342 5.38852 5.66202 5.02914 6.24567 5.01077C6.73089 4.99584 7.21726 4.99699 7.70249 5.01077C8.43261 5.03144 8.935 5.53204 8.95102 6.26458C8.96705 7.00861 8.9556 7.75378 8.95675 8.49895C8.95675 8.65281 8.95675 8.80666 8.95675 9.01908C9.66742 9.01908 10.3357 9.04893 11.0018 9.01334C12.4735 8.93411 12.9919 9.3819 12.9999 10.9894C13.0091 12.73 12.3579 13.0607 10.9766 12.9883C10.3243 12.9551 9.66856 12.9826 8.95675 12.9826C8.95675 13.7243 8.95675 14.4213 8.95675 15.1182C8.95675 15.3479 8.96361 15.5775 8.94874 15.806C8.90754 16.449 8.44291 16.937 7.8009 16.9771C7.31682 17.007 6.83045 17.0035 6.34523 16.9898C5.52126 16.968 5.02574 16.4616 5.01544 15.628C5.00514 14.7703 5.01315 13.9126 5.01315 12.9815L5.01429 12.9838ZM7.75856 15.7647C7.75856 14.8783 7.75284 14.0366 7.75971 13.1939C7.76772 12.2857 8.25866 11.7931 9.16846 11.7816C9.88142 11.7724 10.5955 11.7816 11.3085 11.7782C11.4573 11.7782 11.6072 11.7575 11.7411 11.7483V10.2316C10.8519 10.2316 9.997 10.2453 9.14214 10.2281C8.26667 10.2109 7.77115 9.69765 7.76085 8.82274C7.7517 8.09249 7.76085 7.3634 7.75856 6.63315C7.75856 6.49767 7.74712 6.36103 7.7414 6.24277H6.21362C6.21362 7.16017 6.21935 8.04427 6.21134 8.92837C6.20561 9.49443 5.90235 9.95944 5.40453 10.1248C5.18023 10.1994 4.92961 10.2155 4.69043 10.2189C3.8802 10.2293 3.06996 10.2235 2.20251 10.2235C2.20251 10.6564 2.21739 11.0387 2.19793 11.4199C2.18305 11.7093 2.29978 11.7896 2.57215 11.7839C3.28511 11.7701 3.99807 11.7782 4.71217 11.7793C5.75701 11.7828 6.21362 12.2455 6.21477 13.3041C6.21477 14.1159 6.21477 14.9265 6.21477 15.7635H7.75971L7.75856 15.7647Z" fill="#04D667"/>
<path d="M21.9834 21.6666C21.9834 22.5603 21.9834 23.4117 21.9834 24.2618C21.9811 25.5251 21.5426 25.9969 20.3729 25.9981C20.0297 25.9981 19.6853 26.0031 19.3421 25.9969C18.5615 25.9819 18.0484 25.4505 18.03 24.6053C18.0116 23.7676 18.0116 22.9287 18.03 22.0911C18.038 21.7513 17.9531 21.6243 17.6236 21.6343C16.8947 21.6592 16.1635 21.648 15.4334 21.6405C14.4875 21.6305 14.0111 21.1103 14.0042 20.0896C14.0008 19.6552 13.9962 19.2208 14.0054 18.7864C14.0238 17.9376 14.5001 17.3949 15.2945 17.365C16.0521 17.3376 16.8121 17.3376 17.5697 17.3638C17.9255 17.3762 18.0426 17.258 18.03 16.8671C18.0047 16.0917 18.0174 15.315 18.0243 14.5396C18.0323 13.5438 18.519 13.0149 19.4259 13.0049C19.8414 13.0012 20.257 12.9949 20.6714 13.0074C21.4382 13.031 21.9364 13.5289 21.9708 14.3678C22.0052 15.2042 21.98 16.0432 21.9846 16.8808C21.9846 17.0165 21.9984 17.1534 22.0098 17.3538C22.6825 17.3538 23.3357 17.3538 23.9888 17.3538C24.2609 17.3538 24.5341 17.3414 24.8039 17.3663C25.4984 17.4322 25.9587 17.9513 25.9874 18.708C26.0057 19.1885 26.0011 19.6702 25.992 20.1506C25.9736 21.0953 25.4984 21.6193 24.6317 21.6355C23.9165 21.6492 23.2002 21.638 22.4839 21.6405C22.3313 21.6405 22.1774 21.6542 21.9823 21.6629L21.9834 21.6666ZM19.2273 14.3392C19.2273 14.5321 19.2273 14.6989 19.2273 14.8657C19.2273 15.6262 19.2388 16.3879 19.2238 17.1484C19.2055 18.118 18.7222 18.6396 17.8303 18.657C17.114 18.6707 16.3977 18.6582 15.6814 18.662C15.531 18.662 15.3817 18.6819 15.2383 18.6918V20.3498C15.4254 20.3498 15.5803 20.3498 15.7353 20.3498C16.4654 20.3498 17.1966 20.3361 17.9267 20.356C18.682 20.3771 19.1504 20.87 19.2124 21.6853C19.2353 21.979 19.2238 22.2753 19.2238 22.5703C19.225 23.2636 19.2238 23.9568 19.2238 24.6738H20.777C20.777 24.497 20.777 24.3464 20.777 24.1958C20.777 23.4976 20.777 22.798 20.777 22.0998C20.777 20.8165 21.2017 20.351 22.3703 20.351C23.0154 20.351 23.6594 20.3535 24.3045 20.3498C24.4549 20.3498 24.6053 20.3298 24.7545 20.3186V18.662C24.0371 18.662 23.3495 18.6284 22.6664 18.6694C21.274 18.7528 20.6828 18.2251 20.7689 16.6219C20.8091 15.8677 20.7758 15.1097 20.7758 14.3392H19.2227H19.2273Z" fill="#04D667"/>
</svg>
