<svg width="54" height="54" viewBox="0 0 54 54" fill="none" xmlns="http://www.w3.org/2000/svg">
<g clip-path="url(#clip0_308_972)">
<path d="M27.4237 0C28.3167 0.347348 28.9693 0.898085 29.0168 1.93484C29.067 3.01387 28.355 3.90139 27.2797 4.02289C26.1291 4.15232 24.9639 4.15893 23.8159 4.31213C19.549 4.88136 15.7497 6.56394 12.4458 9.30971C8.66364 12.4517 6.01629 16.3808 4.84453 21.1724C2.91581 29.061 4.58428 36.1466 9.96619 42.2694C13.529 46.3227 18.0351 48.8043 23.3628 49.6139C30.3709 50.6771 36.6392 48.9073 42.0304 44.2624C45.5892 41.197 48.0107 37.3775 49.1508 32.8171C49.5603 31.1768 49.6673 29.4612 49.9024 27.7786C49.9434 27.484 49.917 27.1803 49.9513 26.8844C50.094 25.6628 50.9447 24.9179 52.1112 24.9813C53.205 25.0407 54.0056 25.9296 54.0016 27.1116C53.995 29.4942 53.7268 31.8543 53.0333 34.1325C50.0068 44.0656 43.5126 50.6005 33.4489 53.164C20.0734 56.5701 6.54602 49.2851 1.68593 36.3619C0.803478 34.0163 0.269779 31.5875 0.0954022 29.0847C0.0835129 28.9144 0.0346346 28.7466 0.00292969 28.5776C0.00292969 27.5237 0.00292969 26.4684 0.00292969 25.4145C0.0465239 25.0354 0.0901181 24.6564 0.132391 24.276C0.778378 18.4675 2.99772 13.3432 6.91459 8.99802C11.0693 4.38477 16.2213 1.50429 22.3509 0.419987C23.3668 0.24037 24.3959 0.138675 25.4197 0C26.0881 0 26.7552 0 27.4237 0Z" fill="#051630"/>
<path d="M25.2715 31.8358C25.4022 31.6245 25.4855 31.4158 25.6308 31.2705C33.5174 23.3964 41.4092 15.5303 49.2958 7.65749C49.8863 7.06845 50.5204 6.66431 51.3976 6.83204C52.8772 7.116 53.5443 8.82632 52.6394 10.0308C52.5033 10.2117 52.3382 10.3729 52.1757 10.534C43.7263 18.9628 35.2757 27.3903 26.8237 35.8164C25.6215 37.0156 24.4881 36.9932 23.3427 35.7504C20.0666 32.1963 16.7917 28.6423 13.5195 25.0843C12.6463 24.1347 12.6106 22.9236 13.4138 22.1101C14.2474 21.2661 15.5367 21.3005 16.4113 22.2289C17.6055 23.4942 18.7733 24.7845 19.953 26.0643C21.6796 27.937 23.4048 29.8111 25.2715 31.8358Z" fill="#051630"/>
</g>
<defs>
<clipPath id="clip0_308_972">
<rect width="54" height="54" fill="white"/>
</clipPath>
</defs>
</svg>
