<svg width="88" height="88" viewBox="0 0 88 88" fill="none" xmlns="http://www.w3.org/2000/svg">
<path d="M44 88C68.3005 88 88 68.3005 88 44C88 19.6995 68.3005 0 44 0C19.6995 0 0 19.6995 0 44C0 68.3005 19.6995 88 44 88Z" fill="white"/>
<path d="M44 85C66.6437 85 85 66.6437 85 44C85 21.3563 66.6437 3 44 3C21.3563 3 3 21.3563 3 44C3 66.6437 21.3563 85 44 85Z" stroke="#02D768" stroke-width="2" stroke-miterlimit="10"/>
<path d="M24.0021 34.7159C24.2274 34.1774 24.6507 33.9979 25.2087 34C27.3649 34.0085 29.5232 34.0021 31.6794 34.0064C31.8605 34.0064 32.0479 34.0254 32.2227 34.0676C32.6228 34.1647 32.9049 34.5449 32.8986 34.944C32.8923 35.36 32.5701 35.7465 32.1553 35.8162C31.9763 35.8458 31.7889 35.8437 31.6057 35.8437C29.8622 35.8437 28.1187 35.8437 26.3752 35.8437C26.211 35.8437 26.0467 35.8437 25.8635 35.8437C25.853 35.9978 25.8383 36.1013 25.8383 36.2048C25.8383 38.5363 25.7688 40.872 25.8551 43.1992C26.0909 49.5284 28.8978 54.4153 34.2189 57.8343C34.3747 57.9336 34.5853 57.9948 34.7706 57.9948C40.4454 58.0033 46.1202 58.0033 51.795 57.9948C51.9803 57.9948 52.1866 57.9273 52.3445 57.828C57.2508 54.6961 60.1124 50.2359 60.5946 44.4199C60.8283 41.6027 60.6346 38.7517 60.6346 35.8415H60.1166C54.166 35.8415 48.2153 35.8415 42.2668 35.8415C42.0541 35.8415 41.8351 35.8437 41.6266 35.8099C41.2287 35.7444 40.9233 35.3791 40.9002 34.9736C40.877 34.5766 41.1508 34.1711 41.5424 34.0718C41.7467 34.019 41.9657 34.0042 42.1762 34.0042C48.5396 34 54.9029 34 61.2663 34.0021C62.2454 34.0021 62.5508 34.3126 62.5508 35.2967C62.5508 35.8014 62.5508 36.304 62.5508 36.8764H63.113C65.286 36.8764 67.457 36.8764 69.6301 36.8764C70.725 36.8764 70.9945 37.1424 70.9945 38.2237C70.9945 40.2638 71.0093 42.3038 70.9903 44.3439C70.9503 48.6436 68.074 52.2295 63.8984 53.0362C62.6518 53.277 61.3421 53.1988 60.0619 53.2284C59.7018 53.2368 59.4786 53.334 59.2785 53.6402C58.2931 55.1523 57.095 56.4785 55.7199 57.6443C55.6168 57.7309 55.5241 57.8301 55.3388 58.0033C55.5915 58.0033 55.7494 58.0033 55.9074 58.0033C58.4468 58.0033 60.9862 58.0033 63.5257 58.0033C64.4648 58.0033 64.7891 58.3538 64.7407 59.3042C64.5827 62.3072 62.0665 64.8288 59.068 64.985C58.9143 64.9935 58.7627 64.9977 58.6089 64.9977C49.125 64.9977 39.641 65.0041 30.157 64.9956C27.1943 64.9935 24.8275 63.0992 24.1474 60.2271C24.1032 60.037 24.0505 59.849 24 59.6611C24 59.3232 24 58.9853 24 58.6495C24.2864 58.1363 24.7286 57.9864 25.2992 57.9969C26.7964 58.0223 28.2956 58.0054 29.7927 58.0054H31.1025L30.9382 58.1215C30.3234 57.4077 29.7253 56.677 29.0915 55.9801C26.6384 53.2749 25.0339 50.143 24.358 46.5465C24.2106 45.7693 24.1179 44.9816 24 44.1981C24 41.0367 24 37.8774 24 34.7159H24.0021ZM25.9793 59.8596C26.3794 61.8046 28.0829 63.1541 30.1633 63.1562C39.6431 63.1646 49.1207 63.1689 58.6005 63.1393C59.2785 63.1372 60.005 62.945 60.622 62.6557C61.778 62.1129 62.4918 61.1499 62.795 59.8596H25.9793ZM60.6409 51.351C61.4579 51.351 62.2602 51.446 63.033 51.3341C66.7053 50.7998 69.1479 47.9192 69.1563 44.1855C69.1605 42.5298 69.1563 40.8741 69.1563 39.2184C69.1563 39.0685 69.1563 38.9185 69.1563 38.7496H62.5718V40.5573C62.7592 40.5573 62.9235 40.5573 63.0877 40.5573C64.1279 40.5573 65.166 40.5489 66.2062 40.5615C66.9874 40.57 67.3159 40.9121 67.3201 41.6956C67.3243 42.6311 67.3391 43.5667 67.3138 44.5001C67.2738 45.9636 66.7095 47.2054 65.6335 48.198C64.5533 49.1948 63.2625 49.6024 61.8075 49.5665C61.6411 49.5622 61.3779 49.634 61.3189 49.7502C61.0599 50.2655 60.862 50.8082 60.6388 51.3467L60.6409 51.351ZM62.6666 42.4305C62.4644 44.2087 62.2686 45.9446 62.0686 47.7101C63.3299 47.7165 64.3258 47.1822 65.0081 46.0798C65.7093 44.9436 65.4377 43.6807 65.4882 42.4284H62.6666V42.4305Z" fill="#051630"/>
<path d="M43.9082 18C44.6926 18.4651 44.7875 18.8681 44.2918 19.6267C43.6711 20.5775 43.7336 21.5738 44.503 22.5039C45.1021 23.2253 45.6409 23.9715 45.8586 24.8892C46.2293 26.4539 45.8629 27.8574 44.8564 29.1203C44.6862 29.3353 44.5159 29.5523 44.3176 29.7425C43.99 30.0567 43.4663 30.0815 43.1172 29.8272C42.7508 29.5585 42.6344 29.1079 42.8607 28.7028C42.9771 28.494 43.1387 28.3059 43.2918 28.1178C44.4189 26.733 44.4297 25.2882 43.2681 23.9322C42.3995 22.9173 41.8521 21.8053 42.0353 20.468C42.1711 19.4862 42.49 18.5746 43.4362 18.0021H43.906L43.9082 18Z" fill="#051630"/>
<path d="M49.135 28.0378C49.1199 27.2204 48.7989 26.5044 48.2451 25.8752C47.6504 25.2006 47.2001 24.4556 47.0557 23.5657C46.8661 22.4047 47.1656 21.3617 47.8767 20.4201C48.2106 19.9793 48.7709 19.8758 49.1975 20.1552C49.6112 20.4263 49.734 20.9354 49.428 21.3865C48.9734 22.0612 48.689 22.7731 48.9842 23.5533C49.1522 23.992 49.4474 24.3997 49.7448 24.7784C50.346 25.5483 50.8071 26.3657 50.9471 27.3321C51.154 28.7518 50.7467 30.0038 49.8504 31.1276C49.6801 31.3428 49.5099 31.5601 49.3095 31.7505C48.9842 32.0588 48.452 32.0795 48.1072 31.8229C47.7409 31.5518 47.6246 31.0883 47.8594 30.693C47.9973 30.4591 48.1826 30.2522 48.355 30.039C48.8355 29.4554 49.1091 28.7994 49.1328 28.0378H49.135Z" fill="#051630"/>
<path d="M40.9978 27.9953C41.0043 29.4829 40.325 30.689 39.3061 31.7421C38.9944 32.0649 38.457 32.0773 38.1088 31.8207C37.7412 31.5518 37.6251 31.0945 37.8551 30.6952C37.9819 30.4739 38.1561 30.2773 38.3173 30.0746C39.4007 28.7215 39.4093 27.2857 38.2979 25.9533C37.6208 25.1402 37.0834 24.2816 37.0103 23.212C36.9372 22.1465 37.2532 21.1928 37.9239 20.3528C38.2313 19.9659 38.7881 19.8955 39.1857 20.15C39.5899 20.4107 39.7231 20.9052 39.448 21.3396C39.0632 21.9438 38.7107 22.5686 38.9235 23.2824C39.0654 23.7582 39.3147 24.232 39.6242 24.6271C40.5636 25.8312 40.9936 26.8098 41 27.9933L40.9978 27.9953Z" fill="#051630"/>
<path d="M57.9998 43.575C57.7738 47.044 56.6045 50.0519 54.4559 52.5885C54.0613 53.0557 53.6147 53.1313 53.256 52.7834C52.9045 52.4434 52.9153 51.9265 53.2865 51.4415C53.3959 51.2983 53.5143 51.1632 53.6255 51.022C54.9867 49.3203 55.8548 47.3442 56.235 45.1157C56.3534 44.4238 56.3839 43.7141 56.4341 43.0104C56.4789 42.3802 56.7802 41.9846 57.243 42.0005C57.7093 42.0164 58.0088 42.4338 57.9998 43.0541C57.998 43.2271 57.9998 43.4 57.9998 43.573V43.575Z" fill="#051630"/>
<path d="M50.5144 54.0002C50.779 54.0117 51.0011 54.4684 51 55.0035C51 55.5593 50.7675 56.0091 50.4868 55.9999C50.2129 55.9929 50 55.557 50 55.0081C50 54.4661 50.244 53.9887 50.5144 54.0002Z" fill="#051630"/>
<path d="M38 34.9988C38 35.5496 37.7775 35.9977 37.5029 36C37.2317 36 37 35.5426 37 35.0058C37 34.4691 37.2329 34.0023 37.5006 34C37.7706 33.9977 37.9988 34.4551 38 35.0012V34.9988Z" fill="#051630"/>
</svg>
