<svg width="82" height="83" viewBox="0 0 82 83" fill="none" xmlns="http://www.w3.org/2000/svg">
<path d="M6.89673 82.1049L16.0821 56.1164H41.4713L48.3172 44.367H20.5961L24.9376 32.2831H57.1727C57.1727 32.2831 64.7985 31.3467 66.8605 38.0798C70.1597 48.8631 6.90423 82.1124 6.90423 82.1124L6.89673 82.1049Z" fill="url(#paint0_linear_874_23)"/>
<path d="M5.89994 41.8254L11.2012 28.3146C13.3082 22.9564 18.512 19.4264 24.3157 19.4264L64.5965 19.4561L59.4452 26.048L82 13.5925L66.0212 0V6.07166H19.2169C18.0996 6.07166 16.9824 6.198 15.8951 6.4804C12.1385 7.43909 4.67772 10.6124 1.33348 20.9201C-3.37544 35.4193 5.89994 41.8328 5.89994 41.8328V41.8254Z" fill="#02DA68"/>
<defs>
<linearGradient id="paint0_linear_874_23" x1="6.89673" y1="57.1717" x2="66.9805" y2="57.1717" gradientUnits="userSpaceOnUse">
<stop stop-color="#02DA68"/>
<stop offset="0.25" stop-color="#04D667"/>
<stop offset="0.49" stop-color="#0BCB64"/>
<stop offset="0.72" stop-color="#16B860"/>
<stop offset="0.94" stop-color="#269D59"/>
<stop offset="1" stop-color="#2B9658"/>
</linearGradient>
</defs>
</svg>
