<svg width="37" height="35" viewBox="0 0 37 35" fill="none" xmlns="http://www.w3.org/2000/svg">
<g clip-path="url(#clip0_322_3168)">
<path d="M0.000156403 7.22154V27.7887C0.060009 28.1033 0.111172 28.4208 0.180679 28.7334C1.00704 32.4686 4.07501 34.9912 7.83129 34.9952C14.9481 35.0041 22.0638 34.9991 29.1806 34.9952C29.5648 34.9952 29.9529 34.9743 30.3323 34.9165C34.2392 34.3132 36.9944 31.0201 36.9973 26.9465C37.0021 20.6509 37.0002 14.3563 36.9944 8.06075C36.9944 7.61576 36.9722 7.1638 36.9017 6.72577C36.2723 2.82936 33.1367 0.0349782 29.2878 0.0200456C22.0996 -0.00782852 14.9104 -0.004842 7.7222 0.0200456C4.02964 0.0319917 0.998352 2.58148 0.179714 6.2778C0.110207 6.59039 0.0590439 6.90795 0.000156403 7.22253V7.22154ZM33.8868 10.4002C33.8965 10.5644 33.9081 10.67 33.9081 10.7765C33.9081 16.1781 33.9158 21.5797 33.9061 26.9823C33.9013 29.7369 31.8808 31.8095 29.2134 31.8115C22.0725 31.8155 14.9316 31.8145 7.79075 31.8085C7.43259 31.8085 7.06575 31.7767 6.71725 31.6951C4.53839 31.1903 3.09515 29.3048 3.09226 26.9495C3.0855 21.5727 3.09032 16.196 3.09032 10.8183C3.09032 10.6998 3.10094 10.5824 3.1106 10.4022C3.25541 10.5425 3.3587 10.6371 3.45717 10.7387C6.6265 14.0039 9.79487 17.2692 12.9632 20.5344C14.4432 22.0596 16.2252 22.8908 18.3192 22.9366C20.5646 22.9854 22.4751 22.1462 24.0612 20.5096C27.2199 17.2513 30.3806 13.995 33.5412 10.7387C33.6397 10.6371 33.743 10.5415 33.8878 10.4012L33.8868 10.4002ZM18.463 3.1977C22.0513 3.1977 25.6386 3.18277 29.2269 3.20367C31.0959 3.21462 32.4841 4.10361 33.3983 5.78801C33.5509 6.06874 33.5393 6.24594 33.3047 6.48685C29.4828 10.4111 25.6724 14.3484 21.8563 18.2796C19.9284 20.2656 17.0767 20.2696 15.1431 18.2806C11.3163 14.3434 7.4992 10.3952 3.66859 6.46097C3.45138 6.23798 3.45138 6.07372 3.58556 5.82185C4.49302 4.11456 5.88606 3.21263 7.77144 3.20168C11.3356 3.18078 14.8998 3.19571 18.463 3.19571V3.1977Z" fill="#04D667"/>
</g>
<defs>
<clipPath id="clip0_322_3168">
<rect width="37" height="35" fill="white" transform="matrix(-1 0 0 1 37 0)"/>
</clipPath>
</defs>
</svg>
