<svg width="74" height="74" viewBox="0 0 74 74" fill="none" xmlns="http://www.w3.org/2000/svg">
<circle cx="37" cy="37" r="37" fill="#051630"/>
<path d="M37.2253 55.5494C32.5271 55.5494 28.0319 53.8053 24.5658 50.6392C24.1172 50.2293 24.0861 49.5351 24.496 49.0865C24.9058 48.6378 25.6001 48.6068 26.0487 49.0166C29.1089 51.8118 33.0779 53.3516 37.2253 53.3516C46.3657 53.3516 53.8022 45.9151 53.8022 36.7747C53.8022 27.6343 46.3657 20.1978 37.2253 20.1978C30.2 20.1978 23.9142 24.6478 21.5845 31.2698C21.3828 31.8425 20.7558 32.1424 20.183 31.942C19.6103 31.7404 19.3104 31.1133 19.5108 30.5406C22.1508 23.0395 29.2692 18 37.2253 18C47.5771 18 56 26.4229 56 36.7747C56 47.1265 47.5771 55.5494 37.2253 55.5494Z" fill="white"/>
<path d="M45.7115 39.7302H35.3196L35.3998 29.1961C35.405 28.5924 35.895 28.105 36.4987 28.105C36.5013 28.105 36.5039 28.105 36.5078 28.105C37.1141 28.1102 37.6028 28.6053 37.5989 29.2117L37.5356 37.5311H45.7128C46.3192 37.5311 46.8117 38.0237 46.8117 38.63C46.8117 39.2364 46.3192 39.7289 45.7128 39.7289L45.7115 39.7302Z" fill="white"/>
<path d="M20.4907 49.4562C19.8844 49.4562 19.3918 48.9636 19.3918 48.3573V35.5736C19.3918 34.9673 19.8844 34.4747 20.4907 34.4747C21.097 34.4747 21.5896 34.9673 21.5896 35.5736V48.3573C21.5896 48.9636 21.097 49.4562 20.4907 49.4562Z" fill="#02DA68"/>
<path d="M26.8826 43.0644H14.0989C13.4926 43.0644 13 42.5718 13 41.9655C13 41.3592 13.4926 40.8666 14.0989 40.8666H26.8826C27.4889 40.8666 27.9815 41.3592 27.9815 41.9655C27.9815 42.5718 27.4889 43.0644 26.8826 43.0644Z" fill="#02DA68"/>
</svg>
