<svg width="74" height="74" viewBox="0 0 74 74" fill="none" xmlns="http://www.w3.org/2000/svg">
<circle cx="37" cy="37" r="37" fill="#051630"/>
<path d="M57.1991 29.9287C57.0653 28.2223 56.6413 26.593 55.961 25.0204C53.145 18.5106 45.7553 14.7097 38.8791 16.4017C32.8355 17.8879 29.012 21.7362 27.4373 27.7766C27.428 27.8137 27.4167 27.8487 27.4054 27.8806C27.3024 28.3345 27.147 29.1218 27.0791 29.975C26.8311 34.5581 28.2205 38.5443 31.4862 41.81C34.5697 44.8935 38.2955 46.2943 42.5256 46.2366H42.5266C42.5266 46.2366 42.5317 46.2366 42.542 46.2366C42.9414 46.2305 43.3448 46.213 43.7524 46.1811C43.7524 46.1811 43.7524 46.1811 43.7524 46.1821C44.1764 46.1368 44.6941 46.0575 45.2798 45.9196C45.325 45.898 45.3775 45.8816 45.4372 45.8671C49.6385 44.8894 52.8579 42.5397 55.1077 38.8716C56.2913 36.9418 56.9665 34.8298 57.1816 32.5728C57.1929 32.4523 57.232 32.334 57.2578 32.2156V30.2426C57.2372 30.1376 57.2053 30.0337 57.197 29.9287H57.1991ZM38.032 17.925C34.9969 20.9612 31.9535 24.0045 28.9512 27.0078C29.963 23.0494 33.7371 19.0839 38.032 17.925ZM28.3841 29.5757C28.3883 29.4717 36.87 20.9354 40.1471 17.6481C40.3539 17.4402 40.5577 17.3198 40.8582 17.3249C41.6621 17.3383 42.4659 17.3291 43.3459 17.3291C43.2368 17.4556 43.1699 17.5442 43.0916 17.6224C39.9453 20.7707 36.799 23.9201 33.6434 27.0603H33.6548L33.3059 27.3968C33.1679 27.5348 33.03 27.6727 32.8911 27.8106C32.8684 27.8332 32.8417 27.8538 32.8129 27.8734L31.0385 29.587C30.1431 30.4824 29.2518 31.3737 28.3646 32.2619C28.3646 31.384 28.3461 30.4793 28.3852 29.5767L28.3841 29.5757ZM29.1612 36.0865C28.9698 35.4083 28.7732 34.7321 28.5962 34.0507C28.5756 33.9704 28.6384 33.8377 28.7042 33.7708C29.788 32.6798 30.8749 31.5919 31.9658 30.5082H31.9504L35.1039 27.3608C36.5973 25.8674 38.0917 24.373 39.5851 22.8796C41.2607 21.203 42.9352 19.5264 44.6077 17.8467C44.8382 17.6152 45.0389 17.5339 45.36 17.6419C45.9374 17.8365 46.5303 17.9857 47.1725 18.1689C47.0315 18.3212 46.944 18.4231 46.8493 18.5178C43.4138 21.9564 39.9752 25.3909 36.5469 28.8367C36.5242 28.8594 36.5026 28.8789 36.482 28.8964C36.4614 28.9139 36.4419 28.9283 36.4223 28.9427L35.3355 30.0296C35.3355 30.0296 35.3355 30.0296 35.3365 30.0296C33.2709 32.124 31.2876 34.1341 29.3043 36.1441C29.2569 36.1246 29.2096 36.105 29.1612 36.0855V36.0865ZM30.8512 39.2236C30.5002 38.6369 30.2162 38.1388 29.9064 37.6571C29.7509 37.4152 29.8364 37.2783 30.0134 37.1023C31.7414 35.3856 33.4613 33.6606 35.1831 31.9388C35.5609 31.561 35.9304 31.1761 36.3215 30.8128C36.3503 30.786 36.3904 30.7613 36.4357 30.7408L39.0654 28.1914L39.0828 28.2007C42.2024 25.0811 45.3312 21.9523 48.4961 18.7874C48.9932 19.0869 49.5757 19.4379 50.1202 19.7662C46.7505 23.1369 43.3953 26.4932 40.0184 29.87L38.3449 31.6722C38.3614 31.6825 38.3768 31.6918 38.3943 31.701C35.8624 34.2277 33.3861 36.6968 30.8532 39.2246L30.8512 39.2236ZM31.6035 40.2456C34.226 37.6221 36.7774 35.0707 39.4019 32.4441C39.4091 32.4513 39.4163 32.4585 39.4225 32.4657L40.7831 31.1463C44.2382 27.6912 47.7283 24.2001 51.2749 20.6524C51.664 21.0672 52.1179 21.5519 52.5326 21.9945C48.8964 25.6307 45.2551 29.2741 41.6199 32.9093C41.6168 32.9062 41.6137 32.9031 41.6116 32.9011L40.71 33.8191C40.7172 33.8274 40.7255 33.8356 40.7337 33.8438C38.1463 36.4292 35.5866 38.9868 32.9847 41.5866C32.5432 41.1585 32.0646 40.6943 31.6035 40.2466V40.2456ZM34.1179 42.4563C36.2576 40.3166 38.3799 38.1933 40.5165 36.0556L40.5093 36.0443L42.5009 34.0785C42.5009 34.0785 42.4968 34.0723 42.4957 34.0703C46.1443 30.4207 49.7826 26.7824 53.4733 23.0916C53.78 23.6031 54.1063 24.1363 54.4161 24.6797C54.4542 24.7466 54.4058 24.8701 54.377 24.9617C54.3626 25.008 54.3049 25.041 54.2658 25.0801C51.0938 28.2521 47.9228 31.4242 44.7507 34.5962L44.7538 34.5993L44.6303 34.7176C44.3463 35.0017 44.0622 35.2858 43.7792 35.5688C43.7215 35.6264 43.6608 35.68 43.5815 35.7541C43.5764 35.7469 43.5723 35.7386 43.5671 35.7314L42.2909 36.949C40.1121 39.1278 37.96 41.281 35.7729 43.468C35.2459 43.1449 34.6665 42.7908 34.12 42.4553L34.1179 42.4563ZM39.1333 44.6681C38.4622 44.4911 37.7984 44.2914 37.1716 44.1103C38.6537 42.6282 40.1234 41.1574 41.6034 39.6774L44.2691 36.8986C44.3092 36.8193 44.3679 36.7401 44.4214 36.6865C45.9909 35.1026 47.5708 33.5279 49.1475 31.9501C50.996 30.1026 52.8445 28.2552 54.6878 26.4026C54.7907 26.2987 54.8443 26.1453 54.9204 26.0146C54.9853 26.0517 55.0501 26.0887 55.1149 26.1268C55.3012 26.767 55.506 27.403 55.6604 28.0504C55.6934 28.1883 55.5822 28.4106 55.468 28.5259C54.2885 29.726 53.0946 30.9126 51.9048 32.1024C50.1304 33.8778 48.3561 35.6522 46.5807 37.4276L46.5869 37.4338L42.4 41.6391L42.3907 41.6155C41.4109 42.5984 40.4301 43.5792 39.4451 44.5559C39.3721 44.628 39.2228 44.6918 39.1333 44.6681ZM46.1391 44.3861C49.2062 41.319 52.3278 38.1974 55.4041 35.1211C54.2802 39.4881 50.2787 43.3466 46.1391 44.3861ZM55.471 33.2078C52.2743 36.385 49.092 39.5766 45.9055 42.7641L43.9377 44.7896L43.9284 44.7772C43.8193 44.8853 43.6608 44.9439 43.4632 44.946C42.6161 44.9553 41.7701 44.9491 40.9581 44.9491C41.5622 44.3552 42.1695 43.7583 42.7746 43.1644L42.7705 43.1593L45.2756 40.5132C45.3014 40.4679 45.3353 40.4257 45.3683 40.3927C45.5062 40.2548 45.6441 40.1169 45.782 39.979L46.0506 39.6949L46.0558 39.7042C49.3091 36.4457 52.5656 33.1893 55.823 29.9339C55.8405 29.9164 55.8694 29.9112 55.9877 29.8556C55.9877 30.6378 55.9774 31.3778 55.9918 32.1168C56.0011 32.5769 55.7911 32.8918 55.4731 33.2078H55.471Z" fill="white"/>
<path d="M31.339 57.0732C39.2583 57.0732 45.6781 50.6534 45.6781 42.7342C45.6781 34.8149 39.2583 28.3951 31.339 28.3951C23.4198 28.3951 17 34.8149 17 42.7342C17 50.6534 23.4198 57.0732 31.339 57.0732Z" stroke="#02DA68" stroke-width="1.5" stroke-miterlimit="10"/>
</svg>
