<svg width="88" height="88" viewBox="0 0 88 88" fill="none" xmlns="http://www.w3.org/2000/svg">
<path d="M44 88C68.3005 88 88 68.3005 88 44C88 19.6995 68.3005 0 44 0C19.6995 0 0 19.6995 0 44C0 68.3005 19.6995 88 44 88Z" fill="white"/>
<path d="M44 85C66.6437 85 85 66.6437 85 44C85 21.3563 66.6437 3 44 3C21.3563 3 3 21.3563 3 44C3 66.6437 21.3563 85 44 85Z" stroke="#02D768" stroke-width="2" stroke-miterlimit="10"/>
<path d="M66.9958 35.1924V60.6208C66.9727 60.6754 66.9412 60.7279 66.9265 60.7846C66.4267 62.8193 65.0132 63.9322 62.9214 63.9343C61.634 63.9343 60.3466 63.9343 59.0591 63.9343C53.8948 63.9343 48.7283 63.9343 43.5639 63.9406C43.3749 63.9406 43.1228 63.9889 43.0094 64.1149C41.7556 65.5176 40.3065 66.601 38.4247 67H37.257C36.8474 66.874 36.4316 66.769 36.0326 66.6157C35.2093 66.3029 34.3545 66.1202 33.4913 66.2819C32.5777 66.4541 31.6872 66.7543 30.7884 67H29.6207C28.852 66.6892 28.035 66.4583 27.3209 66.0488C25.9474 65.2614 24.9162 64.0834 24.0425 62.7773C22.0116 59.7431 21.0686 56.3667 21.0014 52.7425C20.9342 49.1287 23.2381 46.0399 26.7119 45.0467C27.0647 44.946 27.1361 44.7927 27.134 44.4609C27.1214 41.7354 27.1445 39.0099 27.1214 36.2843C27.1067 34.5814 27.6129 33.0927 28.684 31.7635C29.8958 30.2622 31.0698 28.7272 32.2396 27.1902C32.3866 26.9949 32.4811 26.7114 32.4874 26.4657C32.5147 25.4641 32.4958 24.4604 32.5 23.4568C32.5063 21.9722 33.4661 21 34.9384 21C43.0241 21 51.1099 21 59.1957 21C60.6553 21 61.613 21.9533 61.6235 23.4127C61.6319 24.4311 61.6109 25.4494 61.6361 26.4678C61.6424 26.7009 61.7285 26.9697 61.8692 27.1524C63.0852 28.7461 64.3201 30.3272 65.5572 31.9063C66.1179 32.6223 66.5485 33.4013 66.7858 34.2811C66.8677 34.5814 66.9286 34.888 67 35.1924H66.9958ZM54.7285 34.804H54.1972C46.1261 34.804 38.0551 34.804 29.9861 34.804C29.1054 34.804 28.6637 35.2484 28.6609 36.1374C28.6609 38.8482 28.6609 41.5569 28.6609 44.2677C28.6609 44.4273 28.6756 44.5869 28.684 44.778C30.3473 44.799 31.8259 45.2966 33.2204 46.1995C33.1196 45.0971 33.0272 44.0074 32.7878 42.9533C32.5441 41.8782 32.1598 40.8367 31.8259 39.7826C31.6599 39.2597 31.7881 38.865 32.2165 38.6928C32.6302 38.5269 32.9978 38.7012 33.2288 39.1715C33.2876 39.2891 33.3506 39.4067 33.4157 39.5327C35.0203 38.4555 36.7067 38.3988 38.4478 39.0456C39.2585 39.3458 39.5966 40.1038 39.2753 40.8976C39.0842 41.3658 38.8552 41.8257 38.5843 42.254C37.9752 43.2157 37.1436 43.9024 35.9759 44.0493C35.5243 44.106 35.0581 44.0577 34.5519 44.0577C34.6254 44.8011 34.6968 45.5297 34.7745 46.3003C34.951 46.1869 35.0749 46.1071 35.1988 46.0252C36.2153 45.3533 37.3305 44.9292 38.5402 44.8137C43.1774 44.3727 47.088 47.9738 47.0586 52.6354C47.0376 55.9866 46.1786 59.1069 44.4964 62.0025C44.4334 62.1117 44.3809 62.2293 44.3136 62.3637H55.5035C54.7138 61.3558 54.7201 60.2345 54.7201 59.1027C54.7285 51.5414 54.7243 43.98 54.7243 36.4187C54.7243 35.898 54.7243 35.3793 54.7243 34.7998L54.7285 34.804ZM45.5486 52.753C45.5171 52.4107 45.515 51.9424 45.4226 51.491C44.9227 49.0825 43.5219 47.4048 41.1928 46.6237C38.9203 45.8594 36.8852 46.42 35.1358 48.0347C34.3566 48.755 33.7034 48.7739 32.9453 48.0536C29.711 44.9879 24.6054 46.1407 22.9672 50.3025C22.4863 51.5246 22.4758 52.7803 22.5997 54.0611C22.8895 57.0176 23.7695 59.7662 25.477 62.2188C26.254 63.3359 27.176 64.3102 28.392 64.9653C29.4085 65.5134 30.4418 65.6246 31.5423 65.1816C33.1973 64.516 34.8796 64.5265 36.5324 65.1837C37.5678 65.5952 38.5465 65.5218 39.521 65.0388C40.5207 64.5433 41.3272 63.8104 42.016 62.9516C44.3746 60.0098 45.3616 56.5851 45.5465 52.753H45.5486ZM56.4234 61.1563C57.5638 60.0161 58.5761 58.9767 59.6199 57.9709C59.9559 57.6476 60.0987 57.3221 60.0987 56.8454C60.0819 48.8642 60.0861 40.885 60.0882 32.9037C60.0882 32.7105 60.084 32.511 60.126 32.3241C60.2143 31.9399 60.5398 31.7173 60.9241 31.7488C61.3064 31.7782 61.5752 32.047 61.6109 32.4501C61.6256 32.6139 61.6193 32.7798 61.6193 32.9436C61.6193 40.9543 61.6193 48.9649 61.613 56.9756C61.613 57.3116 61.6886 57.5594 61.9406 57.8029C62.9403 58.773 63.9148 59.7662 64.9019 60.751C65.0027 60.8518 65.1119 60.9442 65.3135 61.1311C65.3744 60.6313 65.4585 60.2492 65.4585 59.8691C65.4669 51.9487 65.4585 44.0283 65.469 36.1059C65.469 34.888 65.1077 33.8192 64.3538 32.8659C63.3058 31.5388 62.2745 30.1971 61.237 28.8616C61.1215 28.7125 60.9997 28.5676 60.8569 28.3933C59.6997 29.8779 58.595 31.333 57.4525 32.7546C56.6271 33.7814 56.2512 34.9216 56.2596 36.2381C56.2827 40.4146 56.268 44.5932 56.268 48.7697C56.268 52.4527 56.2638 56.1357 56.2743 59.8208C56.2743 60.224 56.3646 60.6292 56.4255 61.1584L56.4234 61.1563ZM29.4946 33.2669H30.089C38.3218 33.2669 46.5567 33.2627 54.7894 33.2774C55.1885 33.2774 55.4153 33.1767 55.5812 32.805C55.7198 32.4963 55.9383 32.2192 56.1483 31.9462C57.0808 30.7367 58.0217 29.5356 58.9583 28.3304C59.0507 28.2107 59.1369 28.0847 59.2482 27.9314C59.1264 27.9146 59.0822 27.9041 59.036 27.9041C50.6668 27.9041 42.2996 27.902 33.9303 27.9146C33.7601 27.9146 33.5396 28.0448 33.4283 28.1855C32.2018 29.7351 30.9942 31.2973 29.7803 32.8575C29.6984 32.9625 29.627 33.0738 29.4925 33.2669H29.4946ZM34.0374 26.3377H60.0819C60.0819 25.2878 60.0882 24.2715 60.0777 23.2552C60.0735 22.8982 59.8614 22.6021 59.5296 22.5832C58.7021 22.5349 57.8725 22.5685 57.0241 22.5685C57.0241 23.041 57.0261 23.4756 57.0241 23.9082C57.0199 24.4751 56.7279 24.8279 56.268 24.8342C55.8101 24.8405 55.5014 24.4814 55.4951 23.925C55.4909 23.4672 55.4951 23.0116 55.4951 22.558H50.902C50.902 23.041 50.9104 23.5029 50.902 23.9628C50.8915 24.4898 50.5785 24.8342 50.1333 24.8363C49.686 24.8363 49.3814 24.494 49.3751 23.9628C49.3688 23.5029 49.3751 23.0431 49.3751 22.5622H44.7715C44.7715 23.0221 44.7778 23.4547 44.7715 23.8851C44.761 24.4856 44.4628 24.8426 43.9881 24.8342C43.5282 24.8258 43.2467 24.4814 43.2383 23.9019C43.2299 23.4568 43.2383 23.0116 43.2383 22.5664H38.6305C38.6305 23.0305 38.6347 23.463 38.6305 23.8935C38.6242 24.4751 38.3512 24.8195 37.8933 24.8342C37.4187 24.8489 37.1079 24.4856 37.0995 23.8956C37.0932 23.4526 37.0995 23.0095 37.0995 22.5391C36.272 22.5391 35.5117 22.5202 34.7514 22.5475C34.365 22.5601 34.0731 22.8163 34.0605 23.1964C34.0269 24.2379 34.0479 25.2836 34.0479 26.3419L34.0374 26.3377ZM60.8086 58.9242C60.2794 59.4555 59.7438 59.9972 59.2062 60.5369C58.6748 61.0702 58.1435 61.6014 57.5911 62.1537C58.4837 62.5317 63.5263 62.4876 64.0366 62.1537C62.9781 61.0933 61.9133 60.0287 60.8086 58.9242ZM37.9059 40.4839C37.0113 40.1374 36.2153 40.0493 35.4445 40.2823C34.9804 40.423 34.5729 40.7569 34.1529 41.0236C34.0689 41.0761 34.0101 41.223 34.0038 41.3301C33.9597 41.9769 34.2936 42.4262 34.9237 42.5375C35.6209 42.6593 36.2972 42.5606 36.7886 42.0168C37.1919 41.5695 37.5069 41.0425 37.9059 40.4839Z" fill="#051630"/>
<path d="M24 52.0335C24.0247 49.5027 25.7363 47.3846 27.9411 47.0203C28.5185 46.9259 28.913 47.1651 28.989 47.6568C29.063 48.1419 28.7589 48.4953 28.1774 48.605C26.6486 48.8882 25.5473 50.2468 25.4979 51.9084C25.4938 52.0335 25.5021 52.1608 25.4897 52.2837C25.4486 52.7008 25.2103 52.9422 24.8404 52.9927C24.4644 53.041 24.1829 52.8479 24.0616 52.4572C24.0062 52.2838 24.0082 52.0906 24 52.0379V52.0335Z" fill="#051630"/>
</svg>
