<svg width="63" height="70" viewBox="0 0 63 70" fill="none" xmlns="http://www.w3.org/2000/svg">
<g clip-path="url(#clip0_747_14)">
<path d="M35.3185 33.0744C33.8191 33.0622 32.3196 33.0744 30.8202 33.0695C30.5972 33.0695 30.3674 33.0622 30.1536 33.0036C29.0455 32.7106 28.4926 31.6947 28.6268 30.2319C28.7338 29.0915 29.5551 28.2881 30.6882 28.271C32.1126 28.2515 33.5369 28.2661 34.9613 28.2661C36.3287 28.2661 37.6962 28.2612 39.066 28.2661C39.4914 28.2661 39.8805 28.1782 40.2264 27.9023C40.8521 27.3992 41.1092 26.6007 40.8953 25.8217C40.6587 24.9719 40.017 24.4273 39.141 24.4102C37.8851 24.3858 36.6291 24.376 35.3754 24.4151C34.8908 24.4297 34.7929 24.2612 34.7975 23.7777C34.8043 22.5103 34.7497 21.2454 34.7269 19.978C34.7178 19.4993 34.6018 19.0671 34.3151 18.6959C33.8259 18.0659 33.0523 17.8363 32.3333 18.1074C31.5779 18.3931 31.1183 19.1306 31.1319 20.083C31.1501 21.3894 31.1774 22.6984 31.2184 24.0024C31.2298 24.315 31.1524 24.4126 30.8521 24.4102C29.9647 24.3955 29.1046 24.5616 28.2901 24.967C25.8054 26.2051 24.5517 29.072 25.1456 32.1806C25.6712 34.9255 27.9488 36.9035 30.6382 36.9303C32.2127 36.9474 33.7872 36.9255 35.3595 36.9377C36.3583 36.945 37.116 37.6165 37.3299 38.6471C37.7053 40.4419 36.7611 41.7362 35.066 41.7386C32.3856 41.7435 29.7076 41.7435 27.0273 41.7362C26.5654 41.7362 26.1353 41.7997 25.7576 42.1098C25.1433 42.6129 24.8885 43.4139 25.1069 44.1977C25.3413 45.0354 25.9966 45.5799 26.8725 45.597C28.1649 45.619 29.4573 45.6166 30.752 45.597C31.0933 45.5921 31.1956 45.6898 31.1979 46.0659C31.2025 47.3528 31.2411 48.6397 31.273 49.9267C31.2798 50.2075 31.2867 50.4835 31.389 50.7545C31.7144 51.619 32.5586 52.144 33.3663 51.9731C34.2923 51.7753 34.8771 51.006 34.8657 49.9438C34.8543 48.6959 34.8293 47.4505 34.7815 46.2051C34.7656 45.7728 34.8157 45.5628 35.3003 45.5897C35.7417 45.6166 36.1991 45.5384 36.6336 45.4261C39.5551 44.6715 41.3253 41.8192 40.9499 38.503C40.5881 35.326 38.2878 33.1062 35.3185 33.0817V33.0744Z" fill="#02D668"/>
</g>
<path d="M10 39L10.0361 25.2748C10.0609 16.2793 17.3688 9 26.3747 9H57" stroke="#04D667" stroke-width="3" stroke-miterlimit="10" stroke-linecap="round"/>
<path d="M53 31L52.9639 44.7252C52.9391 53.7207 45.6312 61 36.6253 61L6 61" stroke="#04D667" stroke-width="3" stroke-miterlimit="10" stroke-linecap="round"/>
<path d="M52 16L60 8.48748L52.2493 2" stroke="#04D667" stroke-width="3" stroke-miterlimit="10" stroke-linecap="round"/>
<path d="M11 54L3 61.5125L10.7507 68" stroke="#04D667" stroke-width="3" stroke-miterlimit="10" stroke-linecap="round"/>
<defs>
<clipPath id="clip0_747_14">
<rect width="16" height="34" fill="white" transform="translate(25 18)"/>
</clipPath>
</defs>
</svg>
