<svg width="74" height="74" viewBox="0 0 74 74" fill="none" xmlns="http://www.w3.org/2000/svg">
<circle cx="37" cy="37" r="37" fill="#051630"/>
<path d="M25.4392 42.7969C24.7567 42.7918 24.0743 42.7969 23.3918 42.7949C23.2903 42.7949 23.1857 42.7918 23.0884 42.7669C22.5841 42.6426 22.3324 42.2118 22.3935 41.5915C22.4422 41.1079 22.816 40.7672 23.3318 40.7599C23.98 40.7516 24.6283 40.7579 25.2766 40.7579C25.899 40.7579 26.5214 40.7558 27.1448 40.7579C27.3385 40.7579 27.5156 40.7206 27.673 40.6036C27.9578 40.3902 28.0748 40.0516 27.9774 39.7212C27.8697 39.3608 27.5777 39.1299 27.179 39.1227C26.6073 39.1123 26.0357 39.1082 25.4651 39.1247C25.2445 39.1309 25.2 39.0595 25.202 38.8544C25.2051 38.317 25.1803 37.7805 25.1699 37.243C25.1658 37.0401 25.113 36.8568 24.9825 36.6994C24.7598 36.4322 24.4077 36.3348 24.0805 36.4498C23.7367 36.5709 23.5275 36.8837 23.5337 37.2876C23.542 37.8416 23.5544 38.3967 23.5731 38.9497C23.5782 39.0823 23.543 39.1237 23.4063 39.1227C23.0024 39.1164 22.611 39.1869 22.2402 39.3588C21.1094 39.8828 20.5388 41.0996 20.809 42.4169C21.0483 43.5809 22.0849 44.4197 23.309 44.4311C24.0256 44.4384 24.7422 44.429 25.4578 44.4342C25.9125 44.4373 26.2573 44.7221 26.3547 45.1591C26.5255 45.9203 26.0958 46.4692 25.3242 46.4702C24.1043 46.4723 22.8854 46.4723 21.6655 46.4692C21.4553 46.4692 21.2595 46.4961 21.0876 46.6276C20.808 46.8409 20.692 47.1806 20.7914 47.513C20.8981 47.8683 21.1964 48.0992 21.5951 48.1064C22.1833 48.1158 22.7715 48.1147 23.3608 48.1064C23.5161 48.1044 23.5627 48.1458 23.5637 48.3053C23.5658 48.851 23.5834 49.3968 23.5979 49.9425C23.601 50.0616 23.6041 50.1787 23.6507 50.2936C23.7988 50.6602 24.183 50.8829 24.5507 50.8104C24.9721 50.7265 25.2383 50.4003 25.2331 49.9498C25.2279 49.4206 25.2165 48.8925 25.1948 48.3643C25.1875 48.181 25.2103 48.0919 25.4309 48.1033C25.6318 48.1147 25.84 48.0816 26.0378 48.0339C27.3675 47.7139 28.1732 46.5044 28.0023 45.098C27.8376 43.7507 26.7906 42.8094 25.4392 42.799V42.7969Z" fill="#02DA68"/>
<path d="M55.5947 25.8152H54.0869L50.0149 19.0818L43.3985 22.4672L41.3014 19L30.9952 25.8163H24.0909C22.523 25.8163 21.2471 27.0921 21.2471 28.66V33.7168C17.0612 35.0507 14.0114 38.9777 14 43.5995C13.9866 49.315 18.6602 53.9969 24.3829 54C28.2653 54.0021 31.6611 51.8491 33.4433 48.675H55.5957C57.1636 48.675 58.4395 47.3991 58.4395 45.8312V28.6611C58.4395 27.0932 57.1636 25.8173 55.5957 25.8173L55.5947 25.8152ZM49.3604 21.3829L52.0405 25.8152H45.422L44.3057 23.9688L49.3604 21.3829ZM40.7463 21.4658L43.3767 25.8163H34.1672L40.7463 21.4658ZM24.3746 52.3617C19.5653 52.3534 15.6446 48.4326 15.6373 43.6244C15.6311 39.9128 17.9684 36.7232 21.2471 35.4546C21.8053 35.2381 22.3915 35.0766 22.9973 34.9792C23.4488 34.9067 23.9107 34.8674 24.3819 34.8674C29.1974 34.8643 33.1347 38.8016 33.1326 43.6171C33.1326 44.7863 32.8976 45.9027 32.4771 46.9238C32.2203 47.5462 31.8941 48.1323 31.5078 48.6739C29.9161 50.9046 27.3085 52.3669 24.3757 52.3617H24.3746ZM56.6883 39.5203H45.5215V36.8599H56.6883V39.5203ZM56.6883 35.1097H43.7713V41.2705H56.6883V45.8302C56.6883 46.4339 56.1974 46.9238 55.5947 46.9238H34.2211C34.5721 45.8882 34.7658 44.7801 34.7689 43.6285C34.7834 37.9141 30.1087 33.2322 24.386 33.2291C23.9148 33.2291 23.4509 33.2632 22.9962 33.3243V28.659C22.9962 28.0552 23.4871 27.5654 24.0898 27.5654H55.5937C56.1964 27.5654 56.6872 28.0563 56.6872 28.659V35.1087L56.6883 35.1097Z" fill="white"/>
</svg>
