<svg width="37" height="37" viewBox="0 0 37 37" fill="none" xmlns="http://www.w3.org/2000/svg">
<g clip-path="url(#clip0_322_3164)">
<path d="M0 9.99215C0.0328571 7.37159 0.770209 5.0072 2.58218 3.07875C3.36109 2.24938 4.24533 1.49444 5.17113 0.831322C6.92705 -0.426274 9.40293 -0.230047 10.9733 1.24794C11.4507 1.69743 11.8199 2.26388 12.2296 2.78393C12.9457 3.6916 13.6541 4.60701 14.3692 5.51662C15.7598 7.28556 15.7279 9.79012 14.2967 11.533C13.7004 12.2599 13.1254 13.0042 12.5215 13.7234C12.334 13.9467 12.304 14.1255 12.4239 14.3952C14.1546 18.2782 16.8286 21.3279 20.4825 23.5019C21.2044 23.9311 21.9814 24.2684 22.7294 24.6551C22.9004 24.743 23.0251 24.7314 23.1797 24.6029C23.9325 23.9813 24.7056 23.3849 25.4546 22.7595C27.1951 21.3057 29.7135 21.2564 31.4984 22.6522C32.7228 23.6092 33.9221 24.6019 35.1803 25.5115C36.8116 26.6908 37.6881 29.3771 36.3361 31.6458C36.0558 32.1166 35.6654 32.5245 35.3098 32.9479C34.5976 33.7975 33.8757 34.6337 32.9402 35.263C30.8161 36.6926 28.463 37.1643 25.9532 36.9507C22.4762 36.6549 19.3509 35.3306 16.4257 33.5201C10.6235 29.93 6.00995 25.1771 2.70201 19.1916C1.42445 16.8794 0.501554 14.429 0.152689 11.7911C0.0734453 11.1946 0.0492857 10.5915 0 9.99215ZM27.2492 33.9087C27.5101 33.8865 27.9691 33.872 28.4204 33.8033C29.8043 33.5946 31.0345 33.0484 32.0144 32.0305C32.5324 31.4931 33.0088 30.915 33.493 30.3457C34.1318 29.5927 34.0148 28.5168 33.2408 27.9146C32.0318 26.976 30.8219 26.0383 29.6149 25.0978C28.9568 24.5855 28.1054 24.5923 27.4492 25.121C26.4161 25.9523 25.3763 26.7749 24.351 27.6149C23.7827 28.0808 23.1904 28.1746 22.5023 27.9001C16.1338 25.353 11.6759 20.9007 9.13041 14.5276C8.85499 13.8394 8.94486 13.2478 9.41163 12.6784C10.2514 11.6528 11.0738 10.6127 11.9039 9.57843C12.4345 8.91725 12.4451 8.07144 11.932 7.41123C10.9936 6.20196 10.0552 4.9927 9.11688 3.78343C8.4926 2.97822 7.44697 2.87286 6.66709 3.53984C6.24575 3.9004 5.8389 4.27739 5.41176 4.63118C3.96411 5.82981 3.34369 7.43733 3.15428 9.24301C2.93974 11.2826 3.40748 13.2188 4.14483 15.1008C5.29193 18.0288 7.01403 20.6068 9.04247 22.9847C12.2441 26.7353 15.9434 29.8788 20.384 32.0847C22.483 33.1277 24.6738 33.8681 27.2492 33.9087Z" fill="#04D667"/>
<path d="M21.8661 0.0212526C28.9777 0.148849 35.1114 5.1976 36.6257 12.1458C36.8499 13.1743 36.9195 14.2424 36.9891 15.2961C37.0538 16.2733 36.3745 16.9877 35.4738 17.0002C34.6011 17.0118 33.9256 16.3265 33.9121 15.3599C33.8908 13.7997 33.5971 12.3005 33.023 10.8505C31.2294 6.3189 26.7792 3.22276 21.9038 3.11546C21.6409 3.10966 21.3684 3.09806 21.1172 3.02943C20.4291 2.84094 19.9556 2.11789 20.0338 1.42481C20.1208 0.656334 20.7055 0.0744177 21.4515 0.0222192C21.6197 0.0106196 21.7888 0.0202859 21.8661 0.0202859V0.0212526Z" fill="#04D667"/>
<path d="M22.0442 6.18744C26.2354 6.42524 29.5636 9.37155 30.5059 13.0825C30.6962 13.8345 30.7793 14.6243 30.8219 15.4014C30.8712 16.2878 30.1618 16.9858 29.3037 17.0003C28.4513 17.0138 27.77 16.3294 27.7449 15.4333C27.6454 11.9428 25.0825 9.37445 21.6035 9.27875C20.6999 9.25362 20.0235 8.58954 20.0264 7.73116C20.0293 6.86312 20.7405 6.18551 21.648 6.18744C21.7804 6.18744 21.9128 6.18744 22.0452 6.18744H22.0442Z" fill="#04D667"/>
</g>
<defs>
<clipPath id="clip0_322_3164">
<rect width="37" height="37" fill="white"/>
</clipPath>
</defs>
</svg>
