<svg width="44" height="48" viewBox="0 0 44 48" fill="none" xmlns="http://www.w3.org/2000/svg">
<path d="M2.73035 33.5768C1.61676 31.007 1 28.1759 1 25.1992C1 13.545 10.4441 4.10083 22.0983 4.10083C26.1587 4.10083 29.9534 5.24869 33.1743 7.24031" stroke="#051630" stroke-width="1.5" stroke-miterlimit="10"/>
<path d="M39.843 13.7849C41.9631 17.0743 43.1923 20.9933 43.1923 25.1992C43.1923 36.8492 33.7482 46.2976 22.094 46.2976C16.6888 46.2976 11.7633 44.2674 8.02844 40.9266" stroke="#051630" stroke-width="1.5" stroke-miterlimit="10"/>
<path d="M32.1164 1L33.8125 7.3946L27.0453 9.67319" stroke="#051630" stroke-width="1.5" stroke-miterlimit="10"/>
<path d="M8.55534 47L6.85925 40.6096L13.3309 39.2219" stroke="#051630" stroke-width="1.5" stroke-miterlimit="10"/>
<path d="M17.04 30.1677C17.04 32.9773 19.3186 35.2559 22.1282 35.2559C24.9379 35.2559 27.2165 32.9773 27.2165 30.1677C27.2165 27.358 24.9679 25.1051 22.1796 25.0794L22.2696 25.0708C19.4813 25.0451 17.2327 22.7751 17.2327 19.9826C17.2327 17.19 19.5113 14.8943 22.321 14.8943C25.1307 14.8943 27.4093 17.1729 27.4093 19.9826" stroke="#04D667" stroke-width="1.5" stroke-miterlimit="10"/>
<path d="M22.3981 11.6562L22.4324 38.7594" stroke="#04D667" stroke-width="1.5" stroke-miterlimit="10"/>
</svg>
