<svg width="74" height="74" viewBox="0 0 74 74" fill="none" xmlns="http://www.w3.org/2000/svg">
<circle cx="37" cy="37" r="37" fill="#051630"/>
<path d="M56.0939 42.8369C53.9267 51.533 46.0649 57.9764 36.6975 57.9764C31.5041 57.9764 26.7734 55.9957 23.2196 52.7485" stroke="white" stroke-width="2" stroke-miterlimit="10" stroke-linecap="round"/>
<path d="M17.837 31.3508C20.5746 23.5746 27.9848 18 36.6975 18C45.9005 18 53.6505 24.2182 55.9751 32.6837" stroke="white" stroke-width="2" stroke-miterlimit="10" stroke-linecap="round"/>
<path d="M38.7748 36.7928C41.0773 36.8093 42.8591 38.4129 43.1395 40.7071C43.4309 43.1022 42.0594 45.1629 39.7942 45.7071C39.4585 45.7872 39.1036 45.8439 38.761 45.8245C38.3867 45.8038 38.3467 45.9571 38.3591 46.2693C38.3964 47.1685 38.4157 48.069 38.424 48.9696C38.4323 49.7361 37.9806 50.2928 37.2624 50.435C36.6367 50.5593 35.9834 50.1781 35.7293 49.5552C35.6505 49.3604 35.6436 49.1588 35.6381 48.9571C35.6132 48.0276 35.5828 47.0994 35.5801 46.1698C35.5801 45.8991 35.5 45.8273 35.2348 45.8314C34.2334 45.8466 33.2306 45.848 32.2293 45.8314C31.5511 45.8204 31.0428 45.4267 30.8605 44.8218C30.6906 44.2568 30.8867 43.6781 31.3646 43.3149C31.6588 43.0911 31.9917 43.0455 32.3494 43.0455C34.4268 43.051 36.5027 43.0497 38.5801 43.0469C39.8936 43.0455 40.627 42.1091 40.3342 40.8135C40.1671 40.0704 39.5801 39.5856 38.8066 39.5801C37.587 39.5704 36.366 39.587 35.1464 39.5745C33.0607 39.5552 31.2956 38.1256 30.8881 36.1436C30.4268 33.8991 31.3978 31.8287 33.3246 30.935C33.9558 30.6422 34.6215 30.5234 35.3094 30.5331C35.5414 30.5359 35.6008 30.4654 35.5925 30.2389C35.5594 29.2955 35.54 28.3522 35.5248 27.4074C35.5138 26.7209 35.8701 26.1878 36.4558 25.982C37.0124 25.7872 37.6118 25.953 37.9917 26.4074C38.2154 26.6754 38.3052 26.9875 38.3121 27.3328C38.3301 28.2472 38.3715 29.1629 38.366 30.0773C38.3632 30.4267 38.4392 30.5483 38.8149 30.5372C39.7873 30.5082 40.761 30.5165 41.7334 30.5331C42.4116 30.5455 42.9102 30.9378 43.0925 31.5524C43.2596 32.1146 43.0594 32.6906 42.5746 33.0552C42.3066 33.2555 42.0041 33.3204 41.6754 33.319C40.6146 33.3135 39.5552 33.3176 38.4944 33.3176C37.3909 33.3176 36.2873 33.3066 35.1837 33.3218C34.3052 33.3328 33.6685 33.9129 33.587 34.7375C33.482 35.7928 33.9102 36.5262 34.7693 36.7389C34.9351 36.7803 35.1132 36.7859 35.2859 36.7859C36.4475 36.79 37.6105 36.7803 38.7721 36.79" fill="#02DA68"/>
<path d="M15 26.6533L17.1133 33.2749L23.6533 29.7003" stroke="white" stroke-width="2" stroke-miterlimit="10" stroke-linecap="round"/>
<path d="M59 47.902L56.8881 41.2791L50.3467 44.8536" stroke="white" stroke-width="2" stroke-miterlimit="10" stroke-linecap="round"/>
</svg>
