<svg width="63" height="68" viewBox="0 0 63 68" fill="none" xmlns="http://www.w3.org/2000/svg">
<g clip-path="url(#clip0_308_970)">
<path d="M10.5011 57.6696C11.0144 60.8571 14.0462 63.4 17.4065 63.4227C22.0642 63.4549 26.7238 63.4265 31.3834 63.4359C33.0841 63.4397 34.2024 64.9938 33.5975 66.512C33.2447 67.3987 32.5651 67.9451 31.6168 67.9489C26.6548 67.9678 21.689 68.0755 16.7344 67.911C11.5203 67.7371 7.02314 63.5872 6.09533 58.3974C6.01692 57.955 5.87504 57.7168 5.42513 57.5561C2.15631 56.382 0.0747926 53.4667 0.0617247 49.9634C0.0374559 43.4767 -0.085755 36.9861 0.110262 30.5051C0.345483 22.7668 3.21854 16.0154 8.3934 10.317C12.9559 5.29176 18.5807 2.11363 25.1762 0.674864C38.2123 -2.16863 52.1706 4.16684 58.7661 15.9171C61.516 20.8157 62.9665 26.0602 62.9833 31.6981C63.002 37.784 63.0132 43.868 62.9833 49.9539C62.9609 54.5633 59.3206 58.1214 54.7786 58.0552C50.8022 57.9966 47.203 54.7599 47.0499 50.748C46.8688 46.0384 46.8165 41.31 47.02 36.6024C47.2702 30.8057 52.7307 27.4102 58.0904 29.4974C58.1538 29.522 58.2192 29.5371 58.2882 29.5598C58.2285 23.7594 54.8365 14.9434 47.1955 9.66855C37.8595 3.22531 28.0026 2.65434 18.1457 8.2279C10.0213 12.8221 5.69769 20.1747 4.58693 29.6638C6.24281 28.8962 7.81841 28.6712 9.43696 28.9718C13.3181 29.6902 16.0269 32.8816 16.0829 36.9181C16.1426 41.2344 16.1538 45.5526 16.081 49.867C16.0175 53.5385 14.2067 56.0852 10.8595 57.5013C10.7531 57.5467 10.6504 57.5996 10.5067 57.6696H10.5011ZM4.52345 43.4218C4.52345 45.4958 4.51972 47.5717 4.52719 49.6458C4.52719 50.0201 4.53652 50.4058 4.6224 50.7669C5.04243 52.5384 6.64418 53.6841 8.41767 53.514C10.2322 53.34 11.5969 51.8294 11.6118 49.8443C11.6436 45.5771 11.6473 41.31 11.61 37.0429C11.5913 34.8762 10.0194 33.3467 7.98643 33.3845C5.99078 33.4223 4.53652 34.984 4.52532 37.1261C4.51412 39.2246 4.52345 41.3232 4.52345 43.4218ZM58.5141 43.4502H58.5179C58.5179 41.3043 58.5141 39.1585 58.5197 37.0145C58.5235 36.1032 58.2434 35.2997 57.6535 34.6153C56.6809 33.4866 55.1501 33.082 53.778 33.583C52.3424 34.1067 51.4351 35.4075 51.4276 37.0864C51.409 41.3308 51.4164 45.5734 51.4276 49.8178C51.4276 50.2129 51.4892 50.6213 51.6012 50.9994C52.1016 52.6726 53.7388 53.7295 55.432 53.5064C57.1625 53.2776 58.4842 51.8181 58.5067 50.0277C58.5347 47.8345 58.5141 45.6433 58.5141 43.4502Z" fill="#051630"/>
</g>
<defs>
<clipPath id="clip0_308_970">
<rect width="63" height="68" fill="white"/>
</clipPath>
</defs>
</svg>
