<svg width="15" height="32" viewBox="0 0 15 32" fill="none" xmlns="http://www.w3.org/2000/svg">
<path d="M13.1653 11.155L3.56705 0.664604C3.17525 0.238929 2.64524 0 2.0928 0C1.54035 0 1.01035 0.238929 0.618552 0.664604C0.422554 0.87707 0.266987 1.12985 0.160823 1.40836C0.0546589 1.68687 0 1.98559 0 2.2873C0 2.58902 0.0546589 2.88774 0.160823 3.16625C0.266987 3.44476 0.422554 3.69754 0.618552 3.91L10.2377 14.3776C10.4337 14.59 10.5893 14.8428 10.6955 15.1213C10.8016 15.3998 10.8563 15.6985 10.8563 16.0003C10.8563 16.302 10.8016 16.6007 10.6955 16.8792C10.5893 17.1577 10.4337 17.4105 10.2377 17.623L0.618552 28.0905C0.224785 28.5179 0.00246735 29.0986 0.000506541 29.7051C-0.00145427 30.3116 0.217104 30.8941 0.608098 31.3245C0.999093 31.7549 1.5305 31.9978 2.08541 32C2.64032 32.0021 3.17328 31.7633 3.56705 31.3359L13.1653 20.8455C14.3401 19.5599 15 17.8172 15 16.0003C15 14.1833 14.3401 12.4406 13.1653 11.155Z" fill="#04D667"/>
</svg>
