<svg width="74" height="74" viewBox="0 0 74 74" fill="none" xmlns="http://www.w3.org/2000/svg">
<circle cx="37" cy="37" r="37" fill="#051630"/>
<path d="M59.9929 26.7982C59.8642 27.5003 59.7761 28.2135 59.6001 28.9035C58.9552 31.4413 57.64 33.5829 55.6723 35.3118C55.3598 35.5869 55.2288 35.8609 55.2365 36.2813C55.264 37.7164 55.242 39.1514 55.2497 40.5865C55.2519 41.0322 55.1441 41.4086 54.6995 41.5891C54.2571 41.7696 53.9093 41.5781 53.5979 41.2655C52.647 40.3114 51.6874 39.3649 50.7431 38.4053C50.5517 38.2105 50.3866 38.1368 50.0993 38.205C48.2406 38.6496 46.351 38.5781 44.4625 38.5109C42.1405 38.4284 39.9967 37.7571 38.0653 36.4761C34.9288 34.395 32.9688 31.5007 32.4119 27.7656C31.7208 23.128 33.1933 19.2168 36.6885 16.1034C38.6672 14.3404 41.0267 13.3742 43.6603 13.077C43.8033 13.0605 43.9442 13.0264 44.0862 13C45.4332 13 46.7813 13 48.1283 13C48.2703 13.0264 48.4123 13.0495 48.5531 13.0781C49.4104 13.2564 50.2996 13.3445 51.1195 13.6295C55.5975 15.19 58.4621 18.2714 59.6375 22.8815C59.8026 23.5297 59.8752 24.201 59.9907 24.8624V26.796L59.9929 26.7982ZM53.4911 38.6837C53.4911 37.7747 53.5516 36.9845 53.4757 36.2076C53.3811 35.2468 53.7409 34.6217 54.4772 34.0043C56.6078 32.2204 57.8073 29.8785 58.1397 27.1284C58.5083 24.0799 57.7314 21.3155 55.8132 18.9141C54.0645 16.7252 51.7886 15.376 49.0098 14.9303C47.2358 14.6453 45.4398 14.6486 43.6713 14.8786C42.5851 15.0194 41.4735 15.3089 40.482 15.7678C36.913 17.4219 34.7219 20.226 34.143 24.1306C33.5268 28.2883 34.9486 31.7373 38.1863 34.3983C40.0011 35.8895 42.125 36.6676 44.4823 36.7545C46.3686 36.8239 48.2626 36.9295 50.1048 36.3881C50.7288 36.2043 51.1966 36.3242 51.6346 36.8062C52.2002 37.428 52.8143 38.0058 53.49 38.6848L53.4911 38.6837Z" fill="white"/>
<path d="M29.7664 54.9239C29.7664 54.4143 29.7642 53.9521 29.7664 53.491C29.7708 52.6898 30.0877 52.3696 30.8867 52.3696C33.8889 52.3674 36.8911 52.3696 39.8933 52.3685C42.6313 52.3674 44.5242 50.4701 44.5264 47.7287C44.5275 45.8832 44.5253 44.0387 44.5297 42.1932C44.5297 42.005 44.5407 41.808 44.5969 41.6308C44.7168 41.2566 45.0074 41.053 45.3892 41.0475C45.792 41.042 46.0936 41.2489 46.2168 41.6429C46.2718 41.8201 46.2806 42.0171 46.2806 42.2053C46.285 44.0651 46.2861 45.925 46.2828 47.7849C46.2751 51.454 43.6031 54.1205 39.9263 54.1249C37.3049 54.1282 34.6835 54.1249 32.062 54.1249C31.9025 54.1249 31.7429 54.1249 31.5217 54.1249C31.5217 54.7577 31.5217 55.3663 31.5217 55.9749C31.5217 56.3413 31.5239 56.7067 31.5195 57.0732C31.514 57.4396 31.3588 57.7269 31.0243 57.8898C30.6688 58.0636 30.3331 57.9943 30.047 57.739C29.7851 57.5057 29.5408 57.2526 29.2921 57.0039C28.4205 56.1356 27.5599 55.2562 26.6728 54.4044C26.5155 54.2537 26.2513 54.1403 26.0345 54.137C24.4674 54.115 22.9003 54.1282 21.3343 54.1238C17.6883 54.115 15.0096 51.4441 15.0041 47.8014C14.9986 43.4081 14.9986 39.0149 15.0041 34.6206C15.0085 30.9746 17.6839 28.2992 21.3277 28.2915C24.1252 28.286 26.9216 28.2904 29.7191 28.2915C29.8511 28.2915 29.9843 28.2871 30.113 28.3058C30.572 28.3741 30.8988 28.7383 30.8999 29.1686C30.8999 29.5978 30.5731 29.9643 30.1152 30.0325C29.9711 30.0534 29.8236 30.0479 29.6772 30.0479C26.9095 30.0479 24.1417 30.0468 21.3739 30.0479C18.6655 30.0501 16.7627 31.954 16.7616 34.6646C16.7594 39.0292 16.7594 43.3927 16.7616 47.7574C16.7627 50.4635 18.6688 52.3641 21.3816 52.3663C23.1248 52.3685 24.8669 52.3729 26.6101 52.3619C27.0525 52.3586 27.3607 52.5116 27.6688 52.8494C28.3137 53.5582 29.0301 54.2019 29.7675 54.9217L29.7664 54.9239Z" fill="white"/>
<path d="M29.8972 41.9995C26.9248 41.9995 23.9523 41.9995 20.9798 41.9995C20.8334 41.9995 20.6849 42.0061 20.5418 41.9841C20.0829 41.917 19.756 41.5505 19.756 41.1213C19.756 40.6921 20.0829 40.3256 20.5418 40.2585C20.686 40.2376 20.8334 40.2431 20.9798 40.2431C26.9248 40.2431 32.8697 40.2431 38.8158 40.2431C38.8455 40.2431 38.8741 40.2431 38.9038 40.2431C39.617 40.2475 40.0396 40.5743 40.0407 41.1213C40.0407 41.6683 39.617 41.9995 38.9049 41.9995C35.9027 42.0006 32.9016 41.9995 29.8994 41.9995H29.8972Z" fill="white"/>
<path d="M28.1705 45.1625C30.6148 45.1625 33.059 45.1603 35.5032 45.1636C36.2153 45.1636 36.6379 45.5587 36.563 46.1397C36.508 46.5733 36.2439 46.8187 35.8279 46.8969C35.6716 46.9266 35.5076 46.9189 35.347 46.9189C30.5608 46.9189 25.7747 46.9189 20.9886 46.9189C20.1907 46.9189 19.7637 46.6174 19.756 46.0495C19.7483 45.4794 20.1819 45.1614 20.9699 45.1614C23.3701 45.1614 25.7703 45.1614 28.1716 45.1614L28.1705 45.1625Z" fill="white"/>
<path d="M27.0404 35.3216C29.0609 35.3216 31.0815 35.3216 33.102 35.3216C33.2484 35.3216 33.3969 35.315 33.54 35.337C33.9989 35.4041 34.3258 35.7695 34.3269 36.1998C34.3269 36.629 34 36.9955 33.5422 37.0637C33.398 37.0846 33.2506 37.0791 33.1042 37.0791C29.0631 37.0791 25.0209 37.0791 20.9799 37.0791C20.9502 37.0791 20.9215 37.0791 20.8918 37.0791C20.1787 37.0747 19.755 36.7479 19.755 36.2009C19.755 35.654 20.1787 35.3227 20.8907 35.3216C22.941 35.3205 24.9912 35.3216 27.0404 35.3216Z" fill="white"/>
<path d="M40.0385 46.0462C40.0352 46.5018 39.617 46.9156 39.1625 46.9134C38.7069 46.9101 38.2931 46.4919 38.2953 46.0374C38.2986 45.5818 38.7168 45.168 39.1713 45.1702C39.6269 45.1735 40.0407 45.5917 40.0385 46.0462Z" fill="white"/>
<path d="M45.4872 27.3914C45.4872 27.0546 45.4784 26.7179 45.4894 26.3811C45.5136 25.6526 45.9175 25.1045 46.6031 24.8558C46.7407 24.8063 46.8815 24.7667 47.0191 24.7161C47.9314 24.3837 48.4652 23.4549 48.2825 22.5139C48.1009 21.5763 47.2469 20.8896 46.2994 20.9215C45.3309 20.9534 44.5572 21.6577 44.4252 22.6262C44.4076 22.756 44.3867 22.887 44.3603 23.0158C44.259 23.5066 43.9002 23.7773 43.4182 23.7322C42.9791 23.6904 42.6666 23.3393 42.6501 22.8683C42.5972 21.365 43.7528 19.7726 45.2076 19.3445C47.7553 18.5939 50.1291 20.4186 50.0609 23.0763C50.0246 24.4937 49.0275 25.8815 47.6618 26.3382C47.3118 26.4549 47.215 26.6155 47.2348 26.9578C47.2634 27.4387 47.2524 27.924 47.2381 28.4061C47.2205 29.0113 46.8584 29.4097 46.3533 29.4086C45.8448 29.4075 45.4971 29.008 45.4861 28.4006C45.4795 28.0638 45.485 27.727 45.485 27.3903C45.485 27.3903 45.4872 27.3903 45.4883 27.3903L45.4872 27.3914Z" fill="#02DA68"/>
<path d="M47.2304 32.0103C47.2304 32.4725 46.8265 32.872 46.3566 32.8731C45.8768 32.8731 45.4905 32.4901 45.4905 32.0125C45.4905 31.5381 45.8823 31.1442 46.3555 31.1442C46.8199 31.1442 47.2304 31.5503 47.2315 32.0114L47.2304 32.0103Z" fill="#02DA68"/>
</svg>
