<svg width="343" height="106" viewBox="0 0 343 106" fill="none" xmlns="http://www.w3.org/2000/svg">
<g clip-path="url(#clip0_6_104)">
<path d="M95.6805 66.932C96.8807 69.2628 100.971 71.2963 105.541 71.2963C108.287 71.2963 109.977 70.0589 110.39 68.1693C110.765 66.4524 109.19 65.1095 105.685 64.5628C99.982 63.6707 97.572 60.7836 98.5034 56.5344C99.502 52.1029 103.688 49.1582 109.017 49.1582C112.867 49.1582 116.401 50.1558 117.505 51.2876L117.054 56.3713C115.575 54.827 111.792 53.4554 108.086 53.4554C105.954 53.4554 104.341 54.4529 103.996 55.9589C103.621 57.6087 105.023 58.8748 108.22 59.3544C114.135 60.2848 116.641 63.3734 115.604 67.9679C114.605 72.4953 110.794 75.5167 104.61 75.5167C99.934 75.5167 96.6407 74.1739 95.6421 73.2147L95.6805 66.932Z" fill="white"/>
<path d="M123.919 49.4941H131.581L132.992 67.8626L142.335 49.4941H150.237L144.601 75.1716H139.618L144.082 54.8176L133.569 75.1716H128.998L127.318 55.3644L122.959 75.1716H118.283L123.919 49.4941Z" fill="white"/>
<path d="M163.343 49.4941H168.979L172.964 75.1716H167.366L166.713 70.8841H155.681L153.137 75.1716H147.875L163.334 49.4941H163.343ZM157.842 67.2104H166.195L164.515 55.9207L157.851 67.2104H157.842Z" fill="white"/>
<path d="M181.865 49.4941H190.113C196.603 49.4941 199.388 52.1031 198.255 57.2156C197.362 61.2634 194.885 63.8436 191.006 64.9083L195.509 75.1716H189.565L185.302 65.4263H183.545L181.414 75.1716H176.229L181.865 49.4941ZM187.607 61.6471C190.564 61.6471 192.417 60.1411 193.07 57.2156C193.656 54.6066 192.283 53.2638 189.085 53.2638H186.234L184.381 61.6758C186.512 61.6375 187.607 61.6375 187.607 61.6375V61.6471Z" fill="white"/>
<path d="M201.241 53.4362L202.096 49.4844H222.47L221.616 53.4362H214.021C211.131 66.6155 209.249 75.1619 209.249 75.1619H204.064C204.064 75.1619 205.956 66.6155 208.836 53.4362H201.241Z" fill="white"/>
<path d="M235.097 49.4941H253.273L252.418 53.446H239.427C238.774 56.3619 238.188 59.0381 237.67 61.4456H249.624L248.798 65.1865H236.844C235.471 71.4692 234.645 75.1716 234.645 75.1716H229.46C229.46 75.1716 231.726 64.9083 235.097 49.4941Z" fill="white"/>
<path d="M257.468 49.4941H262.653C260.522 59.2107 258.841 66.8938 257.881 71.2198H269.663L268.808 75.1716H251.832C251.832 75.1716 254.098 64.9083 257.468 49.4941Z" fill="white"/>
<path d="M278.39 49.4941H296.566L295.712 53.446H282.721C282.068 56.3619 281.482 59.0381 280.964 61.4456H293.263L292.438 65.1865H280.138C279.619 67.594 279.178 69.6467 278.794 71.2294H292.294L291.439 75.1812H272.745C272.745 75.1812 275.011 64.9179 278.381 49.5037L278.39 49.4941Z" fill="white"/>
<path d="M301.722 49.4941H319.898L319.044 53.446H306.053C305.4 56.3619 304.814 59.0381 304.296 61.4456H316.595L315.77 65.1865H303.47C302.951 67.594 302.51 69.6467 302.126 71.2294H315.626L314.771 75.1812H296.077C296.077 75.1812 298.343 64.9179 301.713 49.5037L301.722 49.4941Z" fill="white"/>
<path d="M321.761 53.4362L322.616 49.4844H342.991L342.136 53.4362H334.541C331.651 66.6155 329.769 75.1619 329.769 75.1619H324.584C324.584 75.1619 326.476 66.6155 329.356 53.4362H321.761Z" fill="white"/>
<path d="M96.3813 85.0034H109.968L109.468 87.3534H98.9642C98.3497 90.183 97.8024 92.7537 97.3031 95.0269H106.953L106.453 97.2714H96.8038C95.642 102.585 94.9507 105.722 94.9507 105.722H91.8494C91.8494 105.722 93.6833 97.4441 96.4005 85.0034H96.3813Z" fill="#0BAC4E"/>
<path d="M110.438 97.7125L113.242 84.9937H116.343L113.684 97.1562C112.8 101.233 113.933 103.305 117.092 103.305C120.251 103.305 122.527 101.223 123.41 97.1849L126.07 84.9937H128.95L126.175 97.6837C124.956 103.17 121.682 105.99 116.497 105.99C111.312 105.99 109.229 103.161 110.429 97.7125H110.438Z" fill="#0BAC4E"/>
<path d="M133.866 85.0034H137.361L143.074 102.039L146.819 85.0034H149.7L145.148 105.722H140.818L135.604 90.2118C134.471 95.3914 133.194 101.127 132.196 105.722H129.315C130.679 99.5159 132.503 91.2094 133.866 85.0034Z" fill="#0BAC4E"/>
<path d="M154.692 85.0034H161.289C168.586 85.0034 171.572 88.5236 170.074 95.3627C168.519 102.403 164.505 105.722 157.573 105.722H150.141C150.141 105.722 151.975 97.4441 154.692 85.0034ZM153.751 103.477H157.88C162.7 103.477 165.533 100.878 166.752 95.3627C167.943 90.02 165.945 87.2479 160.905 87.2479H157.304C154.865 98.4417 153.252 105.722 153.252 105.722L153.751 103.477Z" fill="#0BAC4E"/>
<path d="M171.879 105.722C171.879 105.722 173.713 97.4441 176.43 85.0034H179.512C176.795 97.4441 174.961 105.722 174.961 105.722H171.879Z" fill="#0BAC4E"/>
<path d="M184.553 85.0034H188.048L193.761 102.039L197.506 85.0034H200.387L195.835 105.722H191.505L186.291 90.2118C185.158 95.3914 183.881 101.127 182.883 105.722H180.002C181.366 99.5159 183.19 91.2094 184.553 85.0034Z" fill="#0BAC4E"/>
<path d="M202.134 95.3625C203.545 88.9935 208.788 84.7251 215.279 84.7251C218.054 84.7251 220.848 86.1639 222.326 88.3508L220.137 90.509C218.755 88.4563 216.613 87.0751 214.789 87.0751C210.295 87.0751 206.551 90.4035 205.475 95.3529C204.4 100.302 206.637 103.631 211.131 103.631C213.234 103.631 215.432 102.854 217.036 101.722L218.121 96.7917H210.939L211.438 94.4417H221.395L221.145 95.6311C221.117 95.7174 221.088 95.8229 221.088 95.938L220.896 96.8013C220.425 98.9019 219.955 101.041 219.484 103.142C217.074 104.858 213.829 105.99 210.641 105.99C204.15 105.99 200.771 101.722 202.153 95.3529L202.134 95.3625Z" fill="#0BAC4E"/>
<path d="M8.8335 105.971L20.5955 72.4283H53.1067L61.8731 57.2635H26.3757L31.9351 41.6671H73.2126C73.2126 41.6671 82.9775 40.4585 85.618 49.1488C89.8427 63.0666 8.8431 105.981 8.8431 105.981L8.8335 105.971Z" fill="url(#paint0_linear_6_104)"/>
<path d="M7.55666 53.9832L14.345 36.5451C17.0431 29.6294 23.7066 25.0732 31.1383 25.0732L82.7184 25.1116L76.1221 33.6196L105.004 17.5436L84.5428 0V7.83658H24.6092C23.1786 7.83658 21.7479 7.99964 20.3557 8.36413C15.5452 9.60148 5.99159 13.6972 1.70925 27.0012C-4.32059 45.715 7.55666 53.9928 7.55666 53.9928V53.9832Z" fill="#02DA68"/>
</g>
<defs>
<linearGradient id="paint0_linear_6_104" x1="8.8335" y1="73.7903" x2="85.7716" y2="73.7903" gradientUnits="userSpaceOnUse">
<stop stop-color="#02DA68"/>
<stop offset="0.25" stop-color="#04D667"/>
<stop offset="0.49" stop-color="#0BCB64"/>
<stop offset="0.72" stop-color="#16B860"/>
<stop offset="0.94" stop-color="#269D59"/>
<stop offset="1" stop-color="#2B9658"/>
</linearGradient>
<clipPath id="clip0_6_104">
<rect width="343" height="106" fill="white"/>
</clipPath>
</defs>
</svg>
