<svg width="43" height="32" viewBox="0 0 43 32" fill="none" xmlns="http://www.w3.org/2000/svg">
<g clip-path="url(#clip0_2114_67)">
<path d="M19.3181 2.11572C19.5726 0.706806 20.3311 -0.00953239 21.5161 -2.87354e-05C22.6939 0.00947492 23.4226 0.71037 23.6758 2.11572C23.8419 2.11572 24.0163 2.11572 24.1919 2.11572C27.9643 2.11572 31.7354 2.11572 35.5078 2.11572C37.1216 2.11572 37.9602 2.95086 37.9602 4.55341C37.9602 11.3129 37.9626 18.0724 37.953 24.8318C37.953 25.1597 38.051 25.3712 38.2982 25.585C39.6576 26.7635 41.0015 27.9597 42.3478 29.1536C42.9606 29.6965 43.1421 30.3214 42.8913 30.9819C42.6392 31.646 42.0862 31.9988 41.2715 31.9988C28.0777 31.9988 14.8828 31.9988 1.68906 31.9988C0.907828 31.9988 0.379839 31.6519 0.121818 30.9831C-0.138593 30.3059 0.0202816 29.7132 0.61397 29.1881C1.94947 28.0049 3.2778 26.8134 4.63242 25.6527C4.94897 25.3819 5.05051 25.1098 5.05051 24.7071C5.03856 17.9916 5.04214 11.2772 5.04214 4.56173C5.04214 2.95086 5.87355 2.11691 7.4826 2.11691C11.2394 2.11691 14.9963 2.11691 18.7531 2.11691C18.9311 2.11691 19.1091 2.11691 19.3181 2.11691V2.11572ZM6.47201 24.8508H36.5124C36.5184 24.7451 36.5267 24.6715 36.5267 24.599C36.5267 17.8692 36.5279 11.1406 36.5267 4.41086C36.5267 3.78361 36.2675 3.54008 35.6153 3.5389C31.561 3.53771 27.5055 3.53533 23.4513 3.54721C23.2542 3.54721 23.0224 3.64106 22.8647 3.7658C22.0883 4.37997 20.9451 4.3871 20.1639 3.79549C19.9728 3.65056 19.6944 3.54959 19.4543 3.5484C15.4741 3.53296 11.4939 3.53771 7.51366 3.53771C6.66673 3.53771 6.47201 3.73372 6.47201 4.59024C6.47201 11.1715 6.47201 17.7528 6.47201 24.3329C6.47201 24.4945 6.47201 24.656 6.47201 24.8497V24.8508ZM41.4447 30.4414C41.4578 30.3939 41.4698 30.3463 41.4829 30.2976C41.3431 30.1717 41.2046 30.0446 41.0636 29.9199C39.8058 28.8079 38.5551 27.6865 37.2793 26.5924C37.0894 26.4296 36.786 26.3192 36.5339 26.318C32.1081 26.3013 27.6811 26.3061 23.2554 26.3061C17.6518 26.3061 12.0481 26.3037 6.44454 26.3132C6.24027 26.3132 5.98345 26.3631 5.83891 26.489C4.43412 27.7043 3.04606 28.9398 1.658 30.1741C1.56483 30.2572 1.51107 30.3844 1.40595 30.5388C1.77985 30.5388 2.05937 30.5388 2.34009 30.5388C7.71912 30.5578 13.0993 30.5899 18.4784 30.5946C25.1845 30.5994 31.8895 30.5875 38.5957 30.5685C39.5466 30.5661 40.4962 30.4841 41.4459 30.439L41.4447 30.4414ZM22.2042 2.12166C22.2077 1.72488 21.9019 1.41245 21.5042 1.40889C21.104 1.40532 20.797 1.70707 20.7934 2.10741C20.7898 2.50537 21.0956 2.81899 21.491 2.82375C21.8828 2.8285 22.2006 2.51606 22.2042 2.12166Z" fill="#051630"/>
<path d="M15.0391 21.3275C14.9782 18.4039 16.1286 16.224 18.7315 14.8127C17.2204 13.7519 16.4427 12.3227 16.5132 10.5028C16.567 9.11407 17.1033 7.9071 18.1402 6.95911C20.1769 5.0964 23.4571 5.28647 25.2334 7.33926C26.9392 9.31008 27.1638 12.7611 24.2813 14.8151C26.8568 16.2097 28.0202 18.398 27.9593 21.3286C28.1254 21.3286 28.2818 21.3286 28.4395 21.3286C29.9005 21.3286 31.3602 21.331 32.8211 21.3275C33.1783 21.3275 33.4686 21.4201 33.6035 21.786C33.76 22.2113 33.5187 22.6544 33.0732 22.734C32.9143 22.7625 32.7459 22.7506 32.5822 22.7506C25.1904 22.7506 17.7985 22.7506 10.4067 22.7506C10.347 22.7506 10.2872 22.7506 10.2275 22.7506C9.65293 22.7435 9.34235 22.494 9.34474 22.0379C9.34593 21.5817 9.65413 21.3298 10.2299 21.3286C11.661 21.3263 13.0908 21.3286 14.5219 21.3286C14.6832 21.3286 14.8444 21.3286 15.0415 21.3286L15.0391 21.3275ZM26.4709 21.3061C26.8197 18.828 25.016 16.4545 23.438 16.1028C23.1142 17.0104 22.4608 17.501 21.4885 17.501C20.497 17.501 19.8579 16.9653 19.5282 16.0636C17.5453 16.7978 16.1357 19.2865 16.5407 21.3061H26.4709ZM17.924 10.6584C17.9263 12.6031 19.5366 14.2163 21.4694 14.2104C23.4977 14.2045 25.0387 12.6827 25.053 10.6703C25.0673 8.64958 23.5096 7.10167 21.4586 7.10048C19.5234 7.09929 17.9216 8.71135 17.924 10.6584ZM21.0023 15.6692C20.9808 15.7298 20.9605 15.7904 20.939 15.851C21.1504 15.9306 21.363 16.0731 21.5721 16.0684C21.7357 16.0648 21.8946 15.8783 22.0559 15.7726C22.0344 15.7381 22.0117 15.7037 21.9902 15.6692H21.0023Z" fill="#051630"/>
<path d="M11.7964 29.1537C11.2445 29.1537 10.6938 29.1596 10.1419 29.1513C9.64023 29.1442 9.34518 28.8757 9.34279 28.4445C9.3404 28.0132 9.63426 27.7364 10.1336 27.7329C11.266 27.7258 12.3984 27.7258 13.5321 27.7329C14.0326 27.7364 14.33 28.0085 14.3324 28.4362C14.3348 28.8638 14.035 29.143 13.5404 29.1501C12.9599 29.1596 12.3781 29.1525 11.7964 29.1525V29.1537Z" fill="#051630"/>
<path d="M18.2515 29.1537C17.6996 29.1537 17.1489 29.1596 16.597 29.1525C16.0893 29.1454 15.7955 28.8888 15.7835 28.4611C15.7716 28.0156 16.0762 27.7364 16.6042 27.7341C17.7223 27.7281 18.8404 27.7281 19.9573 27.7341C20.465 27.7364 20.7612 27.9966 20.7732 28.4231C20.7851 28.8638 20.4745 29.1465 19.9513 29.1525C19.3851 29.1596 18.8189 29.1537 18.2527 29.1537H18.2515Z" fill="#051630"/>
<path d="M24.7309 27.7317C25.2971 27.7317 25.8634 27.7245 26.4296 27.734C26.9253 27.7424 27.2216 28.0239 27.2132 28.4539C27.2048 28.865 26.9146 29.1465 26.4487 29.1501C25.3007 29.1596 24.154 29.1596 23.006 29.1501C22.5127 29.1465 22.2164 28.859 22.2248 28.4278C22.2331 27.9989 22.5258 27.7388 23.0323 27.7317C23.5985 27.7245 24.1647 27.7305 24.7309 27.7305V27.7317Z" fill="#051630"/>
<path d="M31.1762 29.1537C30.61 29.1537 30.0438 29.1596 29.4776 29.1525C28.9699 29.1454 28.6761 28.8876 28.6653 28.4599C28.6546 28.0121 28.9556 27.7364 29.4872 27.7341C30.6053 27.7281 31.7222 27.7281 32.8403 27.7341C33.3479 27.7364 33.643 27.9978 33.6549 28.4243C33.6669 28.8662 33.3563 29.1465 32.8319 29.1537C32.28 29.1608 31.7293 29.1549 31.1774 29.1549L31.1762 29.1537Z" fill="#051630"/>
</g>
<defs>
<clipPath id="clip0_2114_67">
<rect width="43" height="32" fill="white"/>
</clipPath>
</defs>
</svg>
