<svg width="225" height="291" viewBox="0 0 225 291" fill="none" xmlns="http://www.w3.org/2000/svg">
<path d="M162.01 106.13C158.93 106.13 156.45 108.24 154.43 110.29C147.65 117.2 140.85 124.09 134.06 130.97C126.03 139.11 118 147.24 110 155.41C107.18 158.28 104.48 161.23 101.62 164.35C100.88 165.15 100.14 165.97 99.3798 166.8L95.0998 162.4C90.3198 157.48 85.8099 152.84 81.3399 148.19C79.7299 146.52 77.2298 144.29 74.1498 144.29H74.1298C72.1598 144.29 70.3098 145.18 68.6398 146.93C64.9698 150.78 65.4598 155.1 70.1198 159.76C73.9198 163.58 77.7098 167.42 81.4898 171.25C84.9898 174.8 88.4998 178.37 92.0198 181.91C94.6398 184.55 96.9398 185.86 99.2398 185.86C101.54 185.86 103.92 184.5 106.62 181.76C115.87 172.4 125.11 163.04 134.35 153.67C144.79 143.08 155.24 132.5 165.7 121.91C167.72 119.87 173.07 114.45 167.52 108.72C165.85 107 164.01 106.12 162.04 106.11H162.01V106.14V106.13Z" fill="#04D667"/>
<path d="M224.43 79.33C224.43 76.94 224.43 74.54 224.43 72.15V64.3C224.41 59.01 222.58 56.99 217.2 56.27C176.99 50.92 143.63 33.46 118.04 4.36997C116.56 2.68997 114.71 0.969971 112.27 0.969971C109.83 0.969971 107.97 2.72997 106.63 4.25997C80.9502 33.5 47.4802 51.01 7.19018 56.28C1.98018 56.96 0.130181 59.11 0.130181 64.48C0.130181 68.85 0.100203 73.24 0.0902033 77.61C0.0402033 88.49 -0.0198016 99.75 0.210198 110.82C0.420198 120.9 0.640159 132.34 2.17016 143.35C8.25016 187.45 28.1302 225.4 61.2302 256.13C71.7402 265.88 83.7502 273.64 95.3602 281.14C99.7702 283.99 104.34 286.94 108.73 289.94C109.65 290.57 110.78 290.81 111.91 290.81C113.45 290.81 114.99 290.36 115.98 289.88C117.75 289.02 119.29 287.9 120.79 286.82C121.55 286.27 122.27 285.76 123 285.27C124.5 284.3 125.99 283.32 127.49 282.35C140.48 273.93 153.9 265.22 165.48 254.12C194.9 225.93 213.55 191.7 221.03 152.27C223.75 129.76 224.46 79.31 224.46 79.31L224.43 79.33ZM156.72 245.34C145.56 255.96 132.41 264.41 119.68 272.59L119.43 272.75C118.45 273.38 117.53 274.11 116.62 274.83C115.12 276.02 113.43 277.38 112.37 277.38C111.33 277.38 109.62 276.05 108.12 274.88C107.22 274.19 106.3 273.46 105.33 272.85C104.87 272.56 104.41 272.26 103.97 271.96C103.49 271.64 103.01 271.32 102.52 271.01C91.3002 263.93 78.3902 255.48 67.3002 244.83C34.2302 213.06 15.9902 174.14 13.0802 129.15C12.1702 115.13 12.2702 100.77 12.3702 86.87C12.4102 80.75 12.4601 74.43 12.4101 68.2C32.1101 65.21 50.4602 59.41 66.9402 50.94C83.7802 42.29 99.0202 30.72 112.28 16.52C139.13 45.09 171.86 62.01 212.19 68.18V71.03C212.19 73.18 212.19 75.27 212.19 77.33C212.19 77.33 211.73 117.53 209.77 145.26C203.33 184.31 185.49 217.96 156.72 245.33V245.34Z" fill="#04D667"/>
</svg>
