<svg width="45" height="44" viewBox="0 0 45 44" fill="none" xmlns="http://www.w3.org/2000/svg">
<mask id="path-1-inside-1_936_44" fill="white">
<path d="M1.67364 40.0753V3.92469C1.67364 2.68201 2.68201 1.67364 3.92469 1.67364H40.0753C41.318 1.67364 42.3264 2.68201 42.3264 3.92469V28.1004H44V3.92469C44 1.76151 42.2385 0 40.0753 0H3.92469C1.76151 0 0 1.76151 0 3.92469V40.0753C0 42.2385 1.76151 44 3.92469 44H29.1548V42.3264H3.92469C2.68201 42.3264 1.67364 41.318 1.67364 40.0753Z"/>
</mask>
<path d="M1.67364 40.0753V3.92469C1.67364 2.68201 2.68201 1.67364 3.92469 1.67364H40.0753C41.318 1.67364 42.3264 2.68201 42.3264 3.92469V28.1004H44V3.92469C44 1.76151 42.2385 0 40.0753 0H3.92469C1.76151 0 0 1.76151 0 3.92469V40.0753C0 42.2385 1.76151 44 3.92469 44H29.1548V42.3264H3.92469C2.68201 42.3264 1.67364 41.318 1.67364 40.0753Z" fill="#051630"/>
<path d="M42.3264 28.1004H40.3264V30.1004H42.3264V28.1004ZM44 28.1004V30.1004H46V28.1004H44ZM29.1548 44V46H31.1548V44H29.1548ZM29.1548 42.3264H31.1548V40.3264H29.1548V42.3264ZM3.67364 40.0753V3.92469H-0.32636V40.0753H3.67364ZM3.67364 3.92469C3.67364 3.78658 3.78658 3.67364 3.92469 3.67364V-0.32636C1.57744 -0.32636 -0.32636 1.57744 -0.32636 3.92469H3.67364ZM3.92469 3.67364H40.0753V-0.32636H3.92469V3.67364ZM40.0753 3.67364C40.2134 3.67364 40.3264 3.78658 40.3264 3.92469H44.3264C44.3264 1.57744 42.4226 -0.32636 40.0753 -0.32636V3.67364ZM40.3264 3.92469V28.1004H44.3264V3.92469H40.3264ZM42.3264 30.1004H44V26.1004H42.3264V30.1004ZM46 28.1004V3.92469H42V28.1004H46ZM46 3.92469C46 0.656935 43.3431 -2 40.0753 -2V2C41.1339 2 42 2.86608 42 3.92469H46ZM40.0753 -2H3.92469V2H40.0753V-2ZM3.92469 -2C0.656937 -2 -2 0.656937 -2 3.92469H2C2 2.86608 2.86608 2 3.92469 2V-2ZM-2 3.92469V40.0753H2V3.92469H-2ZM-2 40.0753C-2 43.3431 0.656935 46 3.92469 46V42C2.86608 42 2 41.1339 2 40.0753H-2ZM3.92469 46H29.1548V42H3.92469V46ZM31.1548 44V42.3264H27.1548V44H31.1548ZM29.1548 40.3264H3.92469V44.3264H29.1548V40.3264ZM3.92469 40.3264C3.78658 40.3264 3.67364 40.2134 3.67364 40.0753H-0.32636C-0.32636 42.4226 1.57744 44.3264 3.92469 44.3264V40.3264Z" fill="#051630" mask="url(#path-1-inside-1_936_44)"/>
<path d="M45 35.9793L39.5033 35.9661L39.5196 30.0088L37.8849 30L37.8686 35.9617L32.0041 35.9441L32 37.704L37.8645 37.7216L37.8482 43.9912L39.4829 44L39.4992 37.726L44.9959 37.7392L45 35.9793Z" fill="#04D667"/>
<path d="M23.9068 21.0969C26.1129 19.9216 27.6127 17.6124 27.6127 14.9608C27.6127 11.1216 24.4677 8 20.5997 8C16.7318 8 13.5867 11.1216 13.5867 14.9608C13.5867 17.5876 15.0574 19.8763 17.2262 21.0598C12.4774 22.4619 9 26.8371 9 32H10.6618C10.6618 26.6144 15.0741 22.2351 20.5 22.2351C25.9259 22.2351 30.3382 26.6144 30.3382 32H32C32 26.8825 28.5891 22.5402 23.9068 21.0969ZM15.2486 14.9608C15.2486 12.033 17.6499 9.64948 20.5997 9.64948C23.5495 9.64948 25.9509 12.033 25.9509 14.9608C25.9509 17.8887 23.5495 20.2722 20.5997 20.2722C17.6499 20.2722 15.2486 17.8887 15.2486 14.9608Z" fill="#051630"/>
</svg>
