<svg width="74" height="74" viewBox="0 0 74 74" fill="none" xmlns="http://www.w3.org/2000/svg">
<circle cx="37" cy="37" r="37" fill="#051630"/>
<path d="M27.2108 45.2945C26.563 45.2898 25.9141 45.2945 25.2663 45.2921C25.1699 45.2921 25.0712 45.2886 24.9783 45.2662C24.4986 45.1475 24.26 44.7384 24.3188 44.1494C24.3646 43.6898 24.7196 43.3665 25.2099 43.3594C25.8259 43.3512 26.4419 43.3571 27.0579 43.3571C27.6493 43.3571 28.2406 43.3547 28.8331 43.3571C29.0165 43.3571 29.1858 43.3218 29.3351 43.2101C29.6055 43.0079 29.7172 42.6858 29.6243 42.3719C29.522 42.0298 29.2446 41.81 28.866 41.8029C28.3229 41.7935 27.7797 41.7888 27.2378 41.8053C27.0285 41.8111 26.9862 41.7441 26.9874 41.549C26.9909 41.0388 26.9674 40.5285 26.9568 40.0183C26.9533 39.8255 26.9027 39.6515 26.7781 39.5022C26.5665 39.2483 26.2327 39.1566 25.9211 39.2648C25.5943 39.38 25.3956 39.6774 25.4015 40.0607C25.4097 40.5873 25.4215 41.114 25.4391 41.6407C25.4438 41.7665 25.4109 41.8064 25.2804 41.8041C24.896 41.7982 24.5245 41.8652 24.173 42.0274C23.0985 42.5259 22.5565 43.6815 22.814 44.9335C23.0409 46.0386 24.026 46.8368 25.1899 46.8474C25.8706 46.8545 26.5512 46.8451 27.2319 46.8498C27.6634 46.8533 27.9914 47.1237 28.0842 47.5387C28.2465 48.2617 27.8385 48.7837 27.105 48.7848C25.9458 48.786 24.7878 48.786 23.6287 48.7848C23.4288 48.7848 23.2431 48.8107 23.0797 48.9353C22.814 49.1375 22.7047 49.4608 22.7987 49.7759C22.8998 50.1133 23.1843 50.3331 23.5617 50.339C24.1213 50.3472 24.6797 50.346 25.2393 50.339C25.3874 50.3366 25.4321 50.3766 25.4321 50.5271C25.4332 51.0455 25.4509 51.564 25.4638 52.0824C25.4673 52.1953 25.4697 52.307 25.5144 52.4163C25.6554 52.7643 26.021 52.977 26.369 52.9065C26.7699 52.8266 27.0215 52.5162 27.018 52.0883C27.0133 51.5863 27.0027 51.0831 26.9815 50.5812C26.9745 50.4072 26.9968 50.3225 27.2061 50.3331C27.3965 50.3437 27.5952 50.3119 27.7821 50.2673C29.0459 49.964 29.8112 48.8142 29.6478 47.4776C29.4914 46.1973 28.4969 45.3027 27.2119 45.2933L27.2108 45.2945Z" fill="#02DA68"/>
<path d="M20.5874 34.2367V20.2788C20.5874 18.4683 22.0557 17 23.8661 17H53.4679C55.2783 17 56.7467 18.4683 56.7467 20.2788V49.8805C56.7467 51.691 55.2783 53.1593 53.4679 53.1593H37.2622" stroke="white" stroke-width="2" stroke-miterlimit="10" stroke-linecap="round"/>
<path d="M24.5221 22.9956L52.1559 23.0897" stroke="white" stroke-width="2" stroke-miterlimit="10"/>
<path d="M24.5221 27.9602L52.1559 28.0543" stroke="white" stroke-width="2" stroke-miterlimit="10"/>
<path d="M24.5221 32.926L52.1559 33.0189" stroke="white" stroke-width="2" stroke-miterlimit="10"/>
<path d="M38.8539 37.8905L52.1559 37.9834" stroke="white" stroke-width="2" stroke-miterlimit="10"/>
<path d="M38.8539 42.8552L52.1559 42.9493" stroke="white" stroke-width="2" stroke-miterlimit="10"/>
<path d="M38.8539 47.8197L52.1559 47.9137" stroke="white" stroke-width="2" stroke-miterlimit="10"/>
<path d="M26.2549 56.157C31.7133 56.157 36.1383 51.7321 36.1383 46.2737C36.1383 40.8153 31.7133 36.3904 26.2549 36.3904C20.7965 36.3904 16.3716 40.8153 16.3716 46.2737C16.3716 51.7321 20.7965 56.157 26.2549 56.157Z" stroke="#02DA68" stroke-width="2" stroke-miterlimit="10"/>
<path d="M13 57L18.4325 52.5033" stroke="#02DA68" stroke-width="2" stroke-miterlimit="10" stroke-linecap="round"/>
</svg>
