<svg width="60" height="64" viewBox="0 0 60 64" fill="none" xmlns="http://www.w3.org/2000/svg">
<g clip-path="url(#clip0_308_950)">
<path d="M3.53495 44.9928C2.01329 41.5063 1.17053 37.6654 1.17053 33.627C1.17053 17.816 14.0753 5.0033 30 5.0033C35.5482 5.0033 40.7335 6.56057 45.1346 9.26257" stroke="#051630" stroke-width="3" stroke-miterlimit="10"/>
<path d="M54.247 18.1414C57.144 22.604 58.8237 27.9208 58.8237 33.627C58.8237 49.4322 45.9189 62.2507 29.9942 62.2507C22.6083 62.2507 15.8779 59.4964 10.7745 54.964" stroke="#051630" stroke-width="3" stroke-miterlimit="10"/>
<path d="M43.689 0.796387L46.0066 9.47182L36.7596 12.5631" stroke="#051630" stroke-width="3" stroke-miterlimit="10"/>
<path d="M11.4944 63.2037L9.17676 54.534L18.0199 52.6514" stroke="#051630" stroke-width="3" stroke-miterlimit="10"/>
<path d="M23.0881 40.3674C23.0881 44.1793 26.2017 47.2706 30.0409 47.2706C33.8802 47.2706 36.9937 44.1793 36.9937 40.3674C36.9937 36.5556 33.9211 33.4992 30.1112 33.4643L30.2341 33.4527C26.4241 33.4178 23.3515 30.3381 23.3515 26.5495C23.3515 22.7609 26.465 19.6464 30.3043 19.6464C34.1435 19.6464 37.2571 22.7377 37.2571 26.5495" stroke="#051630" stroke-width="3" stroke-miterlimit="10"/>
<path d="M30.4097 15.2534L30.4565 52.0238" stroke="#051630" stroke-width="3" stroke-miterlimit="10"/>
</g>
<defs>
<clipPath id="clip0_308_950">
<rect width="60" height="63" fill="white" transform="translate(0 0.5)"/>
</clipPath>
</defs>
</svg>
