<svg width="68" height="69" viewBox="0 0 68 69" fill="none" xmlns="http://www.w3.org/2000/svg">
<g clip-path="url(#clip0_308_975)">
<path d="M40.9613 0.5C41.7808 0.668203 42.6127 0.793912 43.4198 1.01169C50.1835 2.83536 54.5666 8.94378 54.2331 16.0543C53.9263 22.6072 48.7892 28.3172 42.1445 29.4929C33.9866 30.9359 26.1817 25.1922 25.1369 16.975C24.1116 8.91014 29.7773 1.62607 37.8606 0.615086C38.0114 0.59561 38.1569 0.538952 38.3059 0.5C39.191 0.5 40.0762 0.5 40.9613 0.5ZM39.6025 27.0389C46.1994 27.0583 51.5688 21.7431 51.5937 15.1673C51.6185 8.57728 46.2952 3.18593 39.732 3.15761C33.0908 3.12928 27.6948 8.44626 27.6735 15.0398C27.6522 21.6688 32.9719 27.0212 39.6025 27.0406V27.0389Z" fill="#051630"/>
<path d="M50.9162 38.5617C52.7202 36.7132 54.4941 34.8967 56.2661 33.0801C57.1761 32.147 58.079 31.2033 58.9961 30.2773C61.5078 27.7383 65.7863 28.358 67.4661 31.5007C68.3938 33.2341 68.0887 35.9236 66.753 37.5259C64.3069 40.4633 61.8448 43.3882 59.3898 46.3185C58.1269 47.8253 56.8462 49.3196 55.6027 50.8441C53.2063 53.7832 50.0701 55.1695 46.3291 55.1943C40.7309 55.2333 35.1326 55.2758 29.5362 55.1678C27.459 55.127 26.0542 56.0601 24.7947 57.4748C24.6918 57.5917 24.667 57.836 24.6972 58.0042C24.9828 59.5304 24.6032 60.8353 23.4803 61.9313C21.4564 63.909 19.4484 65.9009 17.428 67.8839C16.5836 68.7125 15.9238 68.709 15.0918 67.8733C10.2581 63.0149 5.42799 58.1565 0.597834 53.2945C-0.198618 52.4924 -0.202166 51.8037 0.588965 51.0087C2.58453 49.0027 4.58719 47.0037 6.58453 44.9995C7.49273 44.0876 8.573 43.6485 9.87145 43.7016C10.0737 43.7105 10.3805 43.5476 10.4799 43.3741C14.8896 35.6615 24.518 33.7564 31.459 36.4193C31.7996 36.5504 32.1881 36.6017 32.5553 36.6035C37.0697 36.6159 41.5823 36.6106 46.0967 36.6123C48.3264 36.6123 49.2754 36.9912 50.9145 38.567L50.9162 38.5617ZM23.0599 55.4068C23.1734 55.3023 23.3491 55.1678 23.4945 55.0084C25.153 53.19 27.2054 52.4907 29.6657 52.5279C35.1734 52.6093 40.683 52.5633 46.1907 52.5491C48.926 52.542 51.3615 51.7028 53.1655 49.587C57.036 45.0473 60.8426 40.4527 64.6706 35.8775C65.7242 34.6187 65.6639 33.0287 64.5428 32.023C63.4271 31.0244 61.8431 31.1537 60.6936 32.3329C58.0719 35.0259 55.4573 37.7225 52.8249 40.4031C52.3513 40.8864 51.922 41.3255 52.0621 42.0993C52.1242 42.4481 52.0018 42.8447 51.9096 43.2059C51.2781 45.6864 49.1992 47.225 46.4426 47.2357C43.2125 47.2481 39.9823 47.2392 36.7522 47.2374C36.4435 47.2374 36.1295 47.2498 35.8244 47.2144C35.0777 47.1259 34.5863 46.593 34.5863 45.9024C34.5863 45.18 35.0989 44.656 35.8865 44.5887C36.1065 44.5692 36.3282 44.5745 36.5499 44.5745C39.8014 44.5745 43.0546 44.5745 46.306 44.571C46.636 44.571 46.973 44.5604 47.2958 44.5019C48.6723 44.2523 49.6213 42.873 49.3783 41.5061C49.1229 40.0702 48.0675 39.2611 46.4018 39.2575C41.6462 39.2505 36.8887 39.2611 32.1331 39.2451C31.702 39.2451 31.2409 39.1849 30.8435 39.0274C27.0688 37.5312 23.2746 37.5755 19.5087 38.9672C16.4471 40.0985 14.1606 42.1719 12.6422 44.9924C16.1295 48.4786 19.5779 51.9259 23.0581 55.4032L23.0599 55.4068ZM16.5801 65.3254C18.189 63.6346 19.8581 61.8675 21.5433 60.1147C22.3539 59.2701 22.3717 58.6168 21.5344 57.7793C17.9211 54.1692 14.306 50.5625 10.6892 46.9577C9.87322 46.145 9.21513 46.1415 8.40803 46.9435C6.77965 48.5654 5.15659 50.196 3.53353 51.8232C3.43242 51.9259 3.34373 52.041 3.18586 52.2233C7.59562 56.5364 11.9699 60.8158 16.5819 65.3254H16.5801Z" fill="#051630"/>
<path d="M39.3525 24.3742C38.6199 24.3671 37.9831 23.8306 38.0683 23.0728C38.1942 21.9627 37.8483 21.2934 36.8 20.849C36.3246 20.6471 35.9414 20.1602 35.5938 19.7389C35.1219 19.1687 35.2177 18.4251 35.7428 17.9524C36.2714 17.4779 36.9827 17.4902 37.5467 17.9878C37.8448 18.2498 38.1126 18.5544 38.439 18.7721C38.9942 19.1439 39.5991 19.2289 40.1685 18.7951C40.6332 18.441 40.8124 17.9488 40.6332 17.384C40.4186 16.7023 39.8935 16.4474 39.2106 16.4102C37.5503 16.3181 36.3547 15.4931 35.7055 13.9881C35.0758 12.5274 35.2993 11.1145 36.3317 9.89987C36.6918 9.47494 37.2363 9.21112 37.6674 8.83754C37.8359 8.69235 37.9938 8.46041 38.0257 8.24971C38.0842 7.86019 38.0239 7.45473 38.0523 7.0599C38.1055 6.34636 38.6731 5.81697 39.3578 5.80988C40.0425 5.8028 40.7467 6.34459 40.6616 7.03157C40.5161 8.22315 40.9117 8.96679 42.0239 9.39526C42.2758 9.49264 42.4833 9.73875 42.6785 9.9459C43.1822 10.4824 43.1858 11.2172 42.7086 11.743C42.2581 12.2388 41.5361 12.3202 40.9632 11.9289C40.69 11.743 40.4434 11.5146 40.1596 11.3482C39.6168 11.0295 39.0581 11.0082 38.5507 11.419C38.0966 11.7855 37.9228 12.2742 38.1126 12.839C38.3184 13.4534 38.776 13.7243 39.4199 13.7703C41.4616 13.919 42.8771 15.1124 43.278 16.9892C43.6523 18.7438 42.7973 20.3993 41.0483 21.3748C40.8833 21.4669 40.7397 21.7148 40.713 21.9096C40.6598 22.3008 40.713 22.7045 40.69 23.0994C40.6421 23.866 40.0904 24.3777 39.3525 24.3706V24.3742Z" fill="#051630"/>
<path d="M31.6754 45.6987C31.6629 46.4176 31.0829 46.9983 30.3698 47.0036C29.6461 47.0089 29.0146 46.3715 29.0288 45.6509C29.043 44.9179 29.6709 44.3336 30.4159 44.362C31.1397 44.3885 31.686 44.9693 31.6736 45.6987H31.6754Z" fill="#051630"/>
</g>
<defs>
<clipPath id="clip0_308_975">
<rect width="68" height="68" fill="white" transform="translate(0 0.5)"/>
</clipPath>
</defs>
</svg>
