<svg width="52" height="39" viewBox="0 0 52 39" fill="none" xmlns="http://www.w3.org/2000/svg">
<path d="M0 11.8704L6.95652 0L9.3913 11.8704H0Z" fill="#030E1E"/>
<path d="M6.95605 0.110352H44.9561C47.0189 0.110352 48.6952 1.69948 48.6952 3.65497V32.9462C48.6952 34.3567 47.4875 35.5016 45.9995 35.5016H9.65171C8.16378 35.5016 6.95605 34.3567 6.95605 32.9462V0.110352Z" fill="#051630"/>
<path d="M39.4771 11.8105C39.1896 10.7044 38.3427 9.83251 37.2667 9.53655C35.3177 9 27.5 9 27.5 9C27.5 9 19.6823 9 17.7323 9.53655C16.6573 9.83251 15.8104 10.7033 15.5229 11.8105C15 13.8162 15 18 15 18C15 18 15 22.1838 15.5229 24.1895C15.8104 25.2956 16.6573 26.1675 17.7333 26.4634C19.6823 27 27.5 27 27.5 27C27.5 27 35.3177 27 37.2677 26.4634C38.3427 26.1675 39.1896 25.2967 39.4781 24.1895C40 22.1838 40 18 40 18C40 18 40 13.8162 39.4771 11.8105ZM24.9437 21.7995V14.2005L31.4771 18L24.9437 21.7995Z" fill="white"/>
</svg>
