<svg width="75" height="64" viewBox="0 0 75 64" fill="none" xmlns="http://www.w3.org/2000/svg">
<g clip-path="url(#clip0_1668_156)">
<path d="M75 48.6026C74.4168 50.0025 73.364 50.5 71.8356 50.4981C48.863 50.4711 25.8885 50.4788 2.91585 50.4788C1.36791 50.4788 0.401174 49.8463 0.0841487 48.6026C0.0136986 48.3268 0.00391389 48.0318 0.00391389 47.7464C0 37.2584 0 26.7685 0 16.2806C0 14.495 0.992172 13.5289 2.81996 13.5289C6.75147 13.525 10.681 13.5289 14.6125 13.5289C14.7104 13.5289 14.8082 13.525 14.9061 13.5289C15.6967 13.5636 16.2524 14.0727 16.2485 14.763C16.2466 15.4552 15.6947 15.9778 14.8963 15.9817C11.771 15.9932 8.64579 15.9875 5.52055 15.9875C4.54795 15.9875 3.57339 15.9875 2.54795 15.9875V47.9836H28.6712C23.0352 44.0364 20.0254 38.7818 20.0215 32.0173C20.0176 25.2452 23.0176 19.9848 28.728 15.9855C28.3151 15.9855 28.0822 15.9855 27.8474 15.9855C25.6751 15.9855 23.501 15.9952 21.3288 15.9778C20.5186 15.972 20.0078 15.4572 20.0196 14.7341C20.0313 14.0399 20.5284 13.5694 21.3014 13.5289C21.5205 13.5173 21.7417 13.525 21.9609 13.525C38.5871 13.525 55.2113 13.5366 71.8376 13.5057C73.366 13.5038 74.4207 13.9975 75 15.4013V48.5987V48.6026ZM46.3386 47.9624H72.4579V16.0511H46.3464C57.8845 23.5656 57.8434 40.498 46.3386 47.9643V47.9624ZM22.5186 30.8507C22.501 35.201 23.3386 38.1994 25.0685 40.9415C29.9785 48.7318 40.1703 50.3612 46.9256 44.4452C53.8943 38.3421 54.4012 27.3007 48.0215 20.6038C43.1174 15.4552 35.6086 14.4583 29.775 18.3072C24.8767 21.5409 22.6791 26.2518 22.5205 30.8507H22.5186Z" fill="#04D667"/>
<path d="M64.7983 2.45282C62.9314 3.06795 61.1349 3.65993 59.3384 4.25385C52.2954 6.57744 45.2543 8.90103 38.2112 11.2227C37.3501 11.5062 36.8159 11.3808 36.4519 10.8332C35.9509 10.0831 36.3404 9.24427 37.3619 8.90682C41.8629 7.41818 46.3639 5.93339 50.8648 4.44668C55.1368 3.0371 59.4069 1.62366 63.6809 0.219862C65.4656 -0.366339 66.675 0.223719 67.2738 1.97268C68.1623 4.5643 69.0488 7.15593 69.9177 9.75334C70.1505 10.4495 69.8003 11.1147 69.1564 11.3268C68.5263 11.5351 67.8903 11.2478 67.5948 10.6076C67.5047 10.4128 67.446 10.2007 67.3775 9.9963C66.6006 7.72285 65.8257 5.44939 65.0488 3.17401C64.9803 2.97153 64.9079 2.76906 64.7983 2.45475V2.45282Z" fill="#04D667"/>
<path d="M10.2211 61.553C12.0646 60.9455 13.8611 60.3555 15.6575 59.7635C22.728 57.4303 29.7965 55.099 36.865 52.758C37.4442 52.5652 38.0352 52.5054 38.3894 53.0299C38.6145 53.3635 38.7593 53.9439 38.6125 54.2717C38.4462 54.64 37.953 54.9659 37.5323 55.1086C33.3855 56.5143 29.2231 57.8815 25.0665 59.2544C20.5617 60.7431 16.0568 62.2279 11.5538 63.7165C9.45794 64.4088 8.33465 63.8553 7.63015 61.7824C6.78867 59.3007 5.93739 56.8209 5.11352 54.3334C4.78671 53.3462 5.43837 52.5189 6.41489 52.6346C7.03133 52.7079 7.32487 53.1128 7.50882 53.6566C8.31704 56.0477 9.137 58.4349 9.95501 60.8241C10.0313 61.0458 10.1174 61.2637 10.2251 61.553H10.2211Z" fill="#04D667"/>
<path d="M7.48904 20.9066C7.48904 22.0963 7.49295 23.1955 7.48904 24.2946C7.48513 25.2954 7.0546 25.8199 6.25029 25.8218C5.45186 25.8218 4.99785 25.2819 4.99393 24.2985C4.98806 22.8561 4.9861 21.4137 4.99393 19.9714C4.9998 18.8915 5.45381 18.4519 6.56536 18.4461C8.02916 18.4384 9.49295 18.4384 10.9568 18.4461C11.947 18.4519 12.493 18.9108 12.4773 19.7091C12.4616 20.4843 11.9509 20.8989 10.9783 20.9047C9.85695 20.9104 8.73757 20.9047 7.491 20.9047L7.48904 20.9066Z" fill="#04D667"/>
<path d="M7.48927 43.0993C8.74367 43.0993 9.88653 43.0935 11.0294 43.1012C11.9628 43.1089 12.4932 43.5717 12.4775 44.3449C12.4638 45.0815 11.9335 45.5482 11.049 45.554C9.51275 45.5655 7.97459 45.5675 6.43839 45.554C5.47361 45.5443 5.00395 45.0777 4.99416 44.1232C4.98046 42.6095 4.98046 41.0938 4.99416 39.5801C5.00199 38.7124 5.47948 38.1898 6.22899 38.1802C7.01373 38.1705 7.47753 38.6912 7.48535 39.6168C7.49318 40.7429 7.48731 41.8671 7.48731 43.0993H7.48927Z" fill="#04D667"/>
<path d="M67.5128 20.9066C66.2623 20.9066 65.1214 20.9124 63.9786 20.9047C63.0412 20.8969 62.5128 20.438 62.5226 19.6648C62.5324 18.9262 63.0608 18.4577 63.9433 18.4499C65.4795 18.4364 67.0177 18.4364 68.5539 18.4499C69.5226 18.4596 69.9962 18.9204 70.006 19.873C70.0216 21.3867 70.0197 22.9024 70.006 24.4161C69.9981 25.2877 69.5246 25.8102 68.777 25.8237C67.9923 25.8372 67.5226 25.3147 67.5148 24.3949C67.5069 23.2687 67.5128 22.1426 67.5128 20.9066Z" fill="#04D667"/>
<path d="M67.5129 43.0993C67.5129 41.8671 67.5071 40.7429 67.5149 39.6168C67.5208 38.6931 67.9865 38.1725 68.7713 38.1821C69.5188 38.1918 69.9983 38.7143 70.0061 39.584C70.0198 41.0977 70.0198 42.6134 70.0061 44.1271C69.9963 45.0796 69.5247 45.5482 68.5599 45.5559C67.0237 45.5714 65.4855 45.5694 63.9493 45.5559C63.0648 45.5482 62.5364 45.0816 62.5227 44.345C62.509 43.5717 63.0394 43.1089 63.9728 43.1031C65.1157 43.0954 66.2585 43.1012 67.5129 43.1012V43.0993Z" fill="#04D667"/>
<path d="M36.2468 39.1038C36.2468 37.6788 36.2488 36.2673 36.2468 34.8538C36.2468 34.3255 36.4014 33.693 36.1626 33.3016C35.9572 32.966 35.2859 32.912 34.8241 32.725C32.736 31.8823 31.1861 29.659 31.2546 27.6131C31.3309 25.3261 33.0237 23.1722 35.3133 22.4819C35.8241 22.3277 36.2683 22.2467 36.4542 21.591C36.5403 21.2883 37.1822 20.9374 37.5384 20.9682C37.9337 21.0029 38.4523 21.377 38.6206 21.7376C38.8124 22.1464 39.0139 22.2987 39.421 22.4067C41.8026 23.0353 43.4268 24.9193 43.7145 27.3393C43.8163 28.1858 43.4249 28.7797 42.6852 28.8993C41.965 29.0169 41.4112 28.5522 41.2605 27.7018C40.9728 26.0782 40.1353 25.1102 38.7556 24.9C38.7556 26.2768 38.8124 27.644 38.738 29.0034C38.6734 30.1797 38.785 30.924 40.2292 31.3636C42.4073 32.027 43.875 34.4663 43.7419 36.462C43.5814 38.8512 41.9161 40.8875 39.5482 41.5566C39.0883 41.6858 38.783 41.8246 38.5834 42.3472C38.4542 42.6866 37.8417 43.0471 37.4601 43.0337C37.0785 43.0202 36.5501 42.6268 36.3818 42.2662C36.19 41.8555 35.9846 41.7051 35.5814 41.5971C33.2018 40.9646 31.5736 39.0749 31.2879 36.6626C31.1881 35.8161 31.5814 35.2221 32.3192 35.1026C33.0394 34.9869 33.5853 35.4458 33.7458 36.302C34.055 37.9507 34.8711 38.8936 36.2488 39.1019L36.2468 39.1038ZM36.2468 30.5325C36.2468 29.5375 36.2468 28.6042 36.2468 27.6729C36.2468 26.7415 36.2468 25.8275 36.2468 24.8865C34.8456 25.1584 33.7967 26.379 33.7673 27.6536C33.738 28.9108 34.7399 30.1218 36.2468 30.5325ZM38.7908 39.1192C40.2292 38.8107 41.3212 37.4609 41.2331 36.1959C41.1411 34.8789 40.0394 33.6718 38.7908 33.5445V39.1192Z" fill="#04D667"/>
</g>
<defs>
<clipPath id="clip0_1668_156">
<rect width="75" height="64" fill="white"/>
</clipPath>
</defs>
</svg>
