<svg width="88" height="88" viewBox="0 0 88 88" fill="none" xmlns="http://www.w3.org/2000/svg">
<g clip-path="url(#clip0_917_35)">
<path d="M44 88C68.3 88 88 68.3 88 44C88 19.7 68.3 0 44 0C19.7 0 0 19.7 0 44C0 68.3 19.7 88 44 88Z" fill="white"/>
<path d="M44 85C66.64 85 85 66.64 85 44C85 21.36 66.64 3 44 3C21.36 3 3 21.36 3 44C3 66.64 21.36 85 44 85Z" stroke="#02D768" stroke-width="2" stroke-miterlimit="10"/>
<path d="M27.49 47C24.28 46.98 21.81 44.59 22.01 41.56C22.07 40.67 22.41 39.77 22.78 38.94C23.6 37.07 24.76 35.38 26.07 33.79C26.94 32.73 28.06 32.73 28.92 33.79C30.47 35.69 31.83 37.71 32.66 40.01C33.8 43.17 31.91 46.29 28.5 46.91C28.17 46.97 27.83 46.97 27.49 47ZM27.49 34.5C25.94 36.43 24.56 38.39 23.77 40.66C23.59 41.17 23.53 41.78 23.61 42.31C23.89 44.31 25.51 45.52 27.71 45.47C30.17 45.42 31.93 43.23 31.3 40.95C31.09 40.19 30.74 39.45 30.37 38.74C29.6 37.24 28.64 35.86 27.48 34.5H27.49Z" fill="#051630"/>
<path d="M49.83 67C49.56 66.93 49.28 66.88 49.01 66.79C47.28 66.21 46.14 65.05 45.79 63.25C44.39 56.07 43.02 48.89 41.64 41.71C41.28 39.81 40.92 37.91 40.54 36.02C40.51 35.85 40.39 35.66 40.25 35.54C38.82 34.33 37.38 33.13 35.93 31.94C35.72 31.76 35.45 31.62 35.19 31.54C31.53 30.45 27.88 29.37 24.22 28.29C22.39 27.75 21.62 26.39 22.16 24.56C22.32 24.03 22.47 23.49 22.63 22.97C23.1 21.49 24.52 20.69 25.99 21.12C30.13 22.32 34.26 23.55 38.38 24.79C38.81 24.92 39.22 25.19 39.57 25.47C42.22 27.62 44.86 29.8 47.5 31.97C47.57 32.02 47.64 32.08 47.74 32.16C48.14 31.7 48.53 31.25 48.92 30.8C50.06 29.48 51.66 29.34 52.97 30.47C55.62 32.75 58.26 35.04 60.89 37.34C62.15 38.44 62.26 40.06 61.14 41.33C60.81 41.71 60.76 42 60.96 42.46C63.21 47.9 65.43 53.35 67.66 58.8C67.77 59.07 67.88 59.35 67.98 59.63V60.53C67.73 61.38 67.28 62.09 66.43 62.44C65.11 62.99 63.78 63.55 62.45 64.07C61.63 64.39 60.78 64.34 60.12 63.77C59.65 63.36 59.28 63.4 58.83 63.67C58.78 63.7 58.72 63.72 58.67 63.75C56.04 64.8 53.57 66.24 50.82 67.01H49.82L49.83 67ZM41.56 34.39C41.74 34.83 41.93 35.15 42 35.5C42.42 37.57 42.8 39.65 43.2 41.72C44.54 48.68 45.89 55.63 47.21 62.59C47.66 64.96 49.64 66.03 51.85 65.06C54.37 63.95 56.88 62.83 59.4 61.72C59.96 61.47 60.3 61.57 60.59 62.04C60.98 62.68 61.4 62.83 62.1 62.54C63.25 62.07 64.4 61.6 65.55 61.13C66.45 60.76 66.64 60.31 66.27 59.4C65.3 57.03 64.33 54.66 63.36 52.29C61.98 48.92 60.61 45.55 59.22 42.19C59.03 41.73 59.06 41.36 59.41 41C59.63 40.78 59.83 40.53 60.03 40.29C60.56 39.65 60.52 39.02 59.89 38.47C57.26 36.18 54.62 33.89 51.98 31.61C51.34 31.06 50.69 31.12 50.13 31.76C49.64 32.32 49.15 32.9 48.66 33.46C48.07 34.14 47.77 34.16 47.08 33.59C46.19 32.84 45.29 32.1 44.38 31.35C43.39 32.41 42.44 33.44 41.56 34.38V34.39ZM43.19 30.38C41.98 29.39 40.76 28.47 39.62 27.45C38.68 26.61 37.64 26.02 36.41 25.78C36.32 25.76 36.24 25.73 36.15 25.71C32.7 24.69 29.24 23.67 25.78 22.66C24.86 22.39 24.3 22.7 24.03 23.6C23.88 24.09 23.74 24.58 23.6 25.07C23.34 25.97 23.64 26.52 24.53 26.78C28.17 27.86 31.82 28.92 35.45 30.02C36.02 30.19 36.57 30.51 37.05 30.88C38.14 31.72 39.18 32.63 40.26 33.53C41.23 32.49 42.19 31.46 43.19 30.38Z" fill="#051630"/>
<path d="M51.57 45C53.39 45 54.77 46.01 55.3 47.59C56.18 50.2 57.04 52.81 57.91 55.42C58.24 56.41 58.57 57.4 58.9 58.39C59.12 59.07 59 59.38 58.37 59.66C56.02 60.72 53.68 61.77 51.32 62.81C50.13 63.34 49.02 62.73 48.81 61.42C48.38 58.7 47.99 55.97 47.58 53.25C47.39 51.98 47.19 50.71 47.03 49.43C46.78 47.45 47.96 45.74 49.87 45.31C50.51 45.16 51.16 45.08 51.57 45ZM48.53 48.52C48.53 48.8 48.5 49.03 48.53 49.25C49.11 53.19 49.69 57.12 50.27 61.06C50.32 61.44 50.48 61.51 50.82 61.35C51.74 60.92 52.67 60.5 53.61 60.11C53.94 59.97 53.97 59.82 53.86 59.5C53 56.95 52.12 54.41 51.33 51.84C50.86 50.32 49.79 49.41 48.53 48.52ZM57.29 58.44C56.12 54.92 54.97 51.45 53.81 47.99C53.58 47.32 53.1 46.83 52.43 46.67C51.41 46.43 50.42 46.67 49.5 47.14C49.48 47.14 49.49 47.19 49.47 47.24C49.8 47.51 50.13 47.79 50.48 48.05C51.62 48.89 52.35 50 52.79 51.36C53.58 53.82 54.41 56.27 55.22 58.72C55.28 58.9 55.35 59.08 55.42 59.27C56.06 58.98 56.65 58.72 57.3 58.43L57.29 58.44Z" fill="#051630"/>
<path d="M45 39.75C45 39.37 45.2 39.07 45.48 39.01C45.79 38.95 46.06 39.17 46.15 39.59C46.33 40.5 46.49 41.41 46.66 42.32C46.77 42.9 46.88 43.49 46.98 44.07C47.05 44.48 46.87 44.85 46.57 44.96C46.28 45.07 45.93 44.88 45.86 44.48C45.56 42.95 45.29 41.41 45 39.87C45 39.83 45 39.78 45 39.74V39.75Z" fill="#051630"/>
<path d="M45 37.09C45 37.62 44.75 37.93 44.35 37.99C43.94 38.05 43.61 37.9 43.48 37.54C43.28 36.98 43.13 36.4 43.01 35.82C42.93 35.47 43.24 35.1 43.61 35.03C44.01 34.95 44.37 35.07 44.5 35.43C44.72 36.01 44.86 36.62 44.99 37.09H45Z" fill="#051630"/>
</g>
<defs>
<clipPath id="clip0_917_35">
<rect width="88" height="88" fill="white"/>
</clipPath>
</defs>
</svg>
