<svg width="74" height="74" viewBox="0 0 74 74" fill="none" xmlns="http://www.w3.org/2000/svg">
<circle cx="37" cy="37" r="37" fill="#051630"/>
<path d="M56.9776 35.0449C56.9401 33.3201 56.5937 31.6582 56.0598 30.0338C54.8691 26.4208 52.8447 23.3518 49.952 20.8702C46.8869 18.2418 43.3539 16.6414 39.347 16.0974C38.9286 16.0405 38.5012 16.0719 38.0843 16H37.8444C37.8234 16.0929 37.7544 16.0764 37.6899 16.0674C37.609 16.0674 37.5295 16.0674 37.4485 16.0674C37.3795 16.0794 37.318 16.0734 37.2851 16H35.7645C35.6775 16.1214 35.553 16.0734 35.4391 16.0689C35.3731 16.0764 35.3041 16.0944 35.2846 16H34.9637C34.5603 16.0779 34.1479 16.0525 33.7416 16.1019C31.5087 16.3731 29.3943 17.046 27.3863 18.038C24.885 19.2743 22.7181 20.9542 20.8916 23.0686C18.5508 25.7779 17.0317 28.8859 16.2954 32.3865C16.1335 33.1567 16.108 33.9375 16 34.7107V35.1108C16.0975 35.1288 16.0765 35.2007 16.0675 35.2652V35.5064C16.0795 35.5754 16.0735 35.6368 16 35.6698V37.1893C16.1035 37.2492 16.078 37.3436 16.0675 37.435C16.0765 37.501 16.09 37.5669 16 37.5894V38.0689C16.09 38.445 16.0555 38.8317 16.1035 39.2108C16.3809 41.4002 17.0467 43.4771 18.0229 45.4462C19.2496 47.9203 20.9066 50.0692 22.991 51.8959C25.2749 53.8979 27.8752 55.3006 30.7649 56.2057C33.3412 57.0119 35.9849 57.1048 38.6407 56.919C41.1015 56.7451 43.4303 56.0064 45.6332 54.9094C48.0835 53.6896 50.2025 52.0308 51.9945 49.9553C54.3818 47.192 55.9354 44.0241 56.6731 40.4516C57.042 38.6638 57.0181 36.8581 56.9791 35.0449M35.3641 19.592V22.9772C35.3641 23.7639 35.3611 24.5491 35.3671 25.3359C35.3671 25.5022 35.3626 25.6011 35.1422 25.5996C33.5706 25.5906 31.9975 25.5951 30.3555 25.5951C31.6631 23.2874 33.3082 21.3288 35.3641 19.592ZM32.5224 18.8547C31.9645 19.4571 31.4472 19.9906 30.9598 20.5496C29.6957 21.9986 28.6355 23.5871 27.7672 25.3014C27.6697 25.4932 27.5753 25.6041 27.3248 25.6011C25.5943 25.5861 23.8623 25.5936 22.0493 25.5936C24.7771 22.114 28.2231 19.8932 32.5224 18.8532M18.4683 34.8905C18.6663 32.5288 19.3141 30.299 20.3923 28.1906C20.4688 28.0407 20.5512 27.9793 20.7237 27.9808C22.6566 27.9868 24.5881 27.9853 26.5795 27.9853C26.2781 28.9309 25.9827 29.824 25.7653 30.7411C25.4384 32.1167 25.2479 33.5134 25.1429 34.9205C25.1265 35.1483 25.05 35.1962 24.8355 35.1947C22.8096 35.1872 20.7822 35.1857 18.7562 35.1947C18.5118 35.1947 18.4473 35.1468 18.4683 34.8905ZM20.7462 44.9472C20.5842 44.9472 20.5152 44.8798 20.4463 44.7479C19.3291 42.584 18.6618 40.2927 18.4653 37.8636C18.4458 37.6224 18.5163 37.5834 18.7352 37.5834C20.7747 37.5909 22.8126 37.5879 24.8505 37.5864C25.0065 37.5864 25.1175 37.5774 25.1309 37.8007C25.2734 40.2283 25.7413 42.593 26.596 44.9442C24.6076 44.9442 22.6761 44.9412 20.7447 44.9472M22.1363 47.3418C23.9178 47.3418 25.6483 47.3478 27.3773 47.3358C27.6053 47.3343 27.6727 47.4572 27.7522 47.6146C28.7839 49.6586 30.0916 51.5093 31.6631 53.1711C31.9271 53.4499 32.23 53.6911 32.5839 54.0148C29.6402 53.9069 24.1127 50.3509 22.1348 47.3433M35.3596 53.3405C33.3097 51.6291 31.6721 49.6616 30.348 47.3433H32.8373C33.5841 47.3433 34.3309 47.3523 35.0777 47.3388C35.3011 47.3343 35.3671 47.3943 35.3656 47.6221C35.3566 49.5012 35.3596 51.3789 35.3596 53.3405ZM35.3656 44.643C35.3656 44.8842 35.3146 44.9532 35.0627 44.9517C33.1987 44.9397 31.3332 44.9412 29.4677 44.9502C29.2533 44.9502 29.1423 44.8992 29.0599 44.6864C28.1991 42.5061 27.6982 40.2478 27.5243 37.9131C27.5048 37.6553 27.5618 37.5789 27.8332 37.5819C29.0449 37.5969 30.258 37.5894 31.4697 37.5894C32.6813 37.5894 33.8405 37.5939 35.0267 37.5849C35.2606 37.5834 35.3716 37.6044 35.3701 37.8936C35.3551 40.1429 35.3581 42.3922 35.3686 44.6415M34.9322 35.1962C33.7595 35.1767 32.5854 35.1887 31.4112 35.1887C30.237 35.1887 29.0104 35.1842 27.8107 35.1932C27.5978 35.1947 27.5168 35.1678 27.5378 34.916C27.7297 32.6622 28.2036 30.4773 29.0254 28.3674C29.1333 28.0917 29.2383 27.9823 29.5502 27.9853C31.3632 28.0033 33.1777 28.0048 34.9907 27.9853C35.3236 27.9823 35.3686 28.0947 35.3671 28.3854C35.3551 30.5178 35.3491 32.6487 35.3716 34.7811C35.3761 35.1558 35.2561 35.2037 34.9292 35.1992M50.8998 25.5966C49.1602 25.5966 47.4687 25.5891 45.7757 25.6041C45.5118 25.6071 45.4428 25.4647 45.3483 25.2804C44.1891 23.0101 42.706 20.9766 40.8916 19.1844C40.7986 19.093 40.7011 19.0061 40.6126 18.9236C43.1844 18.8682 49.0523 22.6535 50.8983 25.5951M37.7544 37.8576C37.7544 37.6283 37.8204 37.5729 38.0438 37.5744C39.257 37.5849 40.4687 37.5789 41.6818 37.5789C42.895 37.5789 44.0812 37.5864 45.2808 37.5729C45.5388 37.5699 45.6167 37.6268 45.5972 37.8981C45.4233 40.2493 44.9194 42.5211 44.0497 44.7134C43.9777 44.8932 43.8892 44.9487 43.7033 44.9472C41.8108 44.9412 39.9183 44.9412 38.0258 44.9472C37.8279 44.9472 37.7529 44.9082 37.7544 44.6894C37.7634 42.4117 37.7634 40.1339 37.7544 37.8561M37.7589 19.5995C39.8089 21.3048 41.4389 23.2754 42.7765 25.5936C41.13 25.5936 39.5614 25.5906 37.9929 25.5981C37.7919 25.5981 37.7544 25.5307 37.7559 25.3479C37.7619 23.4597 37.7589 21.5716 37.7589 19.5995ZM37.7529 28.2985C37.7529 28.0617 37.7964 27.9838 38.0528 27.9868C39.9303 27.9988 41.8078 27.9973 43.6853 27.9868C43.8967 27.9868 43.9777 28.0602 44.0512 28.2475C44.8999 30.4024 45.3933 32.6352 45.5837 34.94C45.6032 35.1797 45.5103 35.1917 45.3243 35.1917C44.0992 35.1872 42.874 35.1887 41.6488 35.1887C40.4237 35.1887 39.2525 35.1797 38.0528 35.1962C37.7994 35.1992 37.7484 35.1258 37.7499 34.886C37.7589 32.6907 37.7589 30.4938 37.7499 28.2985M37.8204 53.2895C37.7004 53.2086 37.7589 53.0917 37.7574 52.9973C37.7529 51.2275 37.7634 49.4578 37.7454 47.6895C37.7424 47.3808 37.8309 47.3239 38.1188 47.3269C39.5434 47.3433 40.968 47.3344 42.3926 47.3344H42.763C41.4449 49.6466 39.8089 51.6112 37.8189 53.2895M40.5676 54.0763C41.2005 53.4394 41.7613 52.8594 42.2832 52.2421C43.4753 50.8349 44.4906 49.3124 45.3243 47.67C45.4473 47.4273 45.5732 47.3239 45.8612 47.3269C47.5107 47.3433 49.1602 47.3344 50.8863 47.3344C48.199 50.781 44.831 53.0258 40.5676 54.0763ZM54.4883 37.9206C54.2843 40.3197 53.6275 42.5855 52.5388 44.7299C52.4668 44.8708 52.3948 44.9487 52.2119 44.9487C50.3344 44.9397 48.4584 44.9442 46.527 44.9442C46.8869 43.8952 47.1913 42.8942 47.4207 41.8722C47.7161 40.5595 47.8946 39.2303 47.9756 37.8876C47.9921 37.6134 48.0895 37.5729 48.3295 37.5744C50.2744 37.5834 52.2179 37.5849 54.1629 37.5729C54.4463 37.5714 54.5107 37.6388 54.4868 37.9221M54.1973 35.1947C52.2239 35.1857 50.2504 35.1857 48.277 35.1947C48.0596 35.1947 47.9876 35.1438 47.9726 34.9175C47.8121 32.5978 47.3607 30.335 46.5765 28.1426C46.5645 28.1067 46.569 28.0662 46.563 27.9928H48.7973C49.931 27.9928 51.0632 27.9943 52.1969 27.9913C52.3678 27.9913 52.4818 28.0108 52.5733 28.1921C53.6455 30.3035 54.2888 32.5348 54.4883 34.8965C54.5108 35.1648 54.4283 35.1962 54.1958 35.1947" fill="white"/>
<path d="M48.3176 40.0758C48.5736 39.8297 48.7714 39.6466 48.9619 39.4562C53.5036 34.8848 58.0439 30.3104 62.5842 25.739C62.7238 25.5984 62.8576 25.4475 63.0103 25.3216C63.5411 24.8865 64.1694 24.8953 64.6275 25.3333C65.1059 25.7888 65.1263 26.4523 64.6725 27.0162C64.5475 27.17 64.4006 27.3063 64.261 27.4483C59.3702 32.3742 54.478 37.3001 49.5872 42.226C48.5692 43.2513 48.1097 43.2557 47.1135 42.2524C44.9742 40.0992 42.835 37.9446 40.6972 35.79C40.5576 35.6494 40.4078 35.5132 40.2871 35.3564C39.877 34.8218 39.906 34.1583 40.3758 33.735C40.8673 33.2926 41.4229 33.2487 41.9275 33.6764C42.4379 34.1099 42.8931 34.608 43.3672 35.084C44.9975 36.7245 46.6248 38.3679 48.3191 40.0773L48.3176 40.0758Z" fill="#02DA68"/>
</svg>
