<?xml version="1.0" encoding="UTF-8"?><svg id="Capa_1" xmlns="http://www.w3.org/2000/svg" viewBox="0 0 892.08 594"><path d="m125.22,592.06l60.23-171.93h166.45l44.9-77.75h-181.79l28.47-79.94h211.35s50.01-6.21,63.52,38.33c21.64,71.35-393.14,291.29-393.14,291.29h0Z" fill="#fff" stroke-width="0"/><path d="m118.64,325.59l34.78-89.38c13.8-35.47,47.96-58.82,86.01-58.82l264.13.18-33.77,43.62,147.87-82.38-104.79-89.91v40.15H205.96c-7.35,0-14.67.86-21.78,2.69-24.63,6.36-73.55,27.35-95.47,95.5-30.85,95.94,29.93,138.35,29.93,138.35h.01Z" fill="#fff" stroke-width="0"/><rect x="-.24" y="1.5" width="892" height="591" fill="#ededed" isolation="isolate" stroke-width="0"/><g opacity=".8"><path d="m360,790.66l60.23-171.93h166.45l44.9-77.75h-181.79l28.47-79.94h211.35s50.01-6.21,63.52,38.33c21.64,71.35-393.14,291.29-393.14,291.29h.01Z" fill="#fff" stroke-width="0"/><path d="m353.43,524.19l34.78-89.38c13.8-35.47,47.96-58.82,86.01-58.82l264.13.18-33.77,43.62,147.87-82.38-104.79-89.91v40.15h-306.92c-7.35,0-14.67.86-21.78,2.69-24.63,6.36-73.55,27.35-95.47,95.5-30.85,95.94,29.93,138.35,29.93,138.35h0Z" fill="#fff" stroke-width="0"/></g></svg>