<svg width="24" height="24" viewBox="0 0 24 24" fill="none" xmlns="http://www.w3.org/2000/svg">
<circle cx="12" cy="12" r="12" fill="#051630"/>
<g clip-path="url(#clip0_319_2544)">
<path d="M15.9924 12.4104C15.8303 12.4104 15.7388 12.4104 15.6468 12.4104C12.4608 12.4104 9.27423 12.411 6.08825 12.4099C5.48963 12.4099 5.09514 12.1175 5.01123 11.6214C4.92607 11.1206 5.33559 10.6359 5.886 10.5911C5.99433 10.5825 6.10453 10.5836 6.21349 10.5836C9.36064 10.5836 12.5078 10.5836 15.6549 10.5836H15.9267C15.9549 10.5497 15.9831 10.5158 16.0119 10.4814C15.9348 10.4475 15.8397 10.4297 15.7827 10.3774C14.7833 9.47063 13.7833 8.56497 12.799 7.64438C12.638 7.49391 12.5003 7.28659 12.4445 7.08387C12.335 6.68186 12.5598 6.29938 12.9474 6.11159C13.3381 5.92207 13.7864 5.97433 14.1139 6.26952C14.6769 6.77605 15.2304 7.29176 15.7871 7.80403C16.6311 8.5799 17.4759 9.35462 18.3187 10.1311C19.226 10.9667 19.2273 12.0354 18.3224 12.8676C16.9442 14.1356 15.5629 15.4013 14.1866 16.6711C13.9136 16.9226 13.6011 17.053 13.216 16.9795C12.8334 16.9066 12.5704 16.6906 12.4596 16.3472C12.3475 15.9969 12.4377 15.681 12.7219 15.4197C13.7376 14.4871 14.7539 13.5556 15.7695 12.6235C15.829 12.5689 15.8866 12.5115 15.9924 12.4104Z" fill="white"/>
</g>
<defs>
<clipPath id="clip0_319_2544">
<rect width="14" height="11" fill="white" transform="translate(5 6)"/>
</clipPath>
</defs>
</svg>
