<svg width="291" height="258" viewBox="0 0 291 258" fill="none" xmlns="http://www.w3.org/2000/svg">
<path d="M75 154.497L37.9571 120L9 159" stroke="#04D667" stroke-width="17" stroke-linecap="round" stroke-linejoin="bevel"/>
<path d="M69.8364 220.339C46.9193 197.522 33.459 167.215 32.0094 134.983C31.8023 130.791 35.0466 127.286 39.2573 127.08C43.4679 126.874 46.9883 130.104 47.1954 134.296C48.5069 162.748 60.3796 189.55 80.6046 209.687C125.196 254.083 197.813 254.083 242.405 209.687C286.996 165.291 286.996 92.9924 242.405 48.5964C208.098 14.3716 155.706 5.5061 112.012 26.3296C108.216 28.1165 103.729 26.5358 101.865 22.756C100.07 18.9761 101.658 14.509 105.454 12.6535C154.947 -10.9878 214.311 -0.885279 253.104 37.8066C303.632 88.113 303.632 169.964 253.104 220.27C202.576 270.577 120.364 270.577 69.8364 220.27V220.339Z" fill="#04D667"/>
<path d="M214.437 152.931H143L143.55 80.4979C143.55 76.3706 146.988 73 151.113 73C155.307 73 158.676 76.4394 158.607 80.6354L158.195 137.867H214.437C218.631 137.867 222 141.237 222 145.433C222 149.629 218.631 153 214.437 153V152.931Z" fill="#04D667"/>
</svg>
