<svg width="238" height="335" viewBox="0 0 238 335" fill="none" xmlns="http://www.w3.org/2000/svg">
<path d="M117.92 0.5C121.41 2.42 122.69 5.33 122.52 9.34C122.27 15.18 122.49 21.04 122.44 26.89C122.41 31.52 119.73 34.5 115.82 34.4C112.02 34.3 109.55 31.41 109.53 26.89C109.5 21.03 109.71 15.18 109.45 9.34C109.28 5.32 110.55 2.41 114.05 0.5H117.93H117.92Z" fill="#04D667"/>
<path d="M116 34.9C115.93 34.9 115.87 34.9 115.8 34.9C111.71 34.8 109.05 31.65 109.02 26.89C109.01 24.87 109.02 22.85 109.04 20.83C109.07 17.07 109.11 13.17 108.94 9.36C108.75 4.93 110.29 1.97 113.8 0.06L113.91 0H117.92V0.49L118.15 0.07C121.65 1.99 123.2 4.95 123.01 9.37C122.85 13.11 122.88 16.93 122.91 20.63C122.93 22.72 122.95 24.82 122.93 26.91C122.91 29.48 122.08 31.69 120.6 33.12C119.39 34.3 117.79 34.91 115.99 34.91L116 34.9ZM114.17 1C111.07 2.73 109.77 5.3 109.94 9.32C110.11 13.16 110.08 17.07 110.04 20.84C110.02 22.86 110 24.87 110.02 26.89C110.04 31.13 112.27 33.82 115.82 33.9C117.45 33.96 118.85 33.42 119.91 32.39C121.2 31.14 121.91 29.19 121.93 26.89C121.95 24.81 121.93 22.72 121.91 20.63C121.88 16.92 121.85 13.09 122.01 9.32C122.18 5.32 120.88 2.75 117.78 1H114.17Z" fill="#04D667"/>
<path d="M86.0102 51.29C83.7602 50.08 82.0302 49.56 80.8602 48.43C75.9602 43.72 71.1802 38.89 66.4702 33.97C63.6202 31 63.6402 27.36 66.2502 24.69C68.8202 22.04 72.5802 21.92 75.4602 24.72C80.4102 29.52 85.2502 34.46 90.0502 39.43C92.0002 41.46 92.8202 44.15 91.2302 46.57C89.9902 48.44 87.8202 49.71 86.0102 51.29Z" fill="#04D667"/>
<path d="M87.99 51.79H84.67L85.13 51.39C84.62 51.13 84.14 50.91 83.69 50.69C82.43 50.1 81.35 49.59 80.52 48.79C75.91 44.35 71.2 39.62 66.11 34.32C63.12 31.2 63.03 27.28 65.89 24.34C67.24 22.95 68.96 22.17 70.73 22.16H70.78C72.59 22.16 74.33 22.92 75.81 24.36C81.12 29.5 86.17 34.69 90.41 39.08C92.77 41.54 93.23 44.44 91.64 46.84C90.73 48.2 89.37 49.26 88.05 50.27C87.66 50.57 87.27 50.87 86.89 51.19L87.99 51.78V51.79ZM70.77 23.16H70.73C69.23 23.17 67.76 23.84 66.6 25.04C64.11 27.6 64.2 30.89 66.83 33.63C71.9 38.92 76.61 43.65 81.21 48.07C81.92 48.76 82.89 49.21 84.12 49.79C84.68 50.06 85.29 50.34 85.95 50.68C86.44 50.26 86.96 49.87 87.45 49.48C88.76 48.47 90 47.51 90.81 46.28C92.12 44.3 91.7 41.86 89.69 39.77C85.45 35.38 80.41 30.21 75.11 25.07C73.82 23.82 72.32 23.15 70.77 23.15V23.16Z" fill="#04D667"/>
<path d="M168.45 28.72C167.14 31.02 166.53 32.82 165.35 34.09C160.75 38.95 156.02 43.69 151.24 48.36C148.34 51.18 144.61 51.18 142.01 48.61C139.29 45.93 139.29 42.14 142.24 39.07C146.88 34.25 151.62 29.53 156.37 24.82C158.46 22.75 161.14 21.74 163.69 23.42C165.57 24.65 166.81 26.84 168.45 28.73V28.72Z" fill="#04D667"/>
<path d="M146.38 50.99C144.68 50.99 143.02 50.32 141.65 48.96C138.7 46.05 138.79 41.93 141.87 38.71C146.59 33.81 151.46 28.96 156.01 24.45C158.59 21.89 161.48 21.36 163.96 22.98C165.32 23.87 166.32 25.18 167.38 26.57C167.7 26.99 168.02 27.41 168.36 27.83L168.94 26.8V30.04L168.53 29.57C168.24 30.12 167.98 30.64 167.73 31.12C167.08 32.41 166.53 33.52 165.7 34.4C161.56 38.78 156.94 43.45 151.57 48.69C150.01 50.2 148.17 50.97 146.37 50.97L146.38 50.99ZM160.99 23.07C159.18 23.07 157.63 24.27 156.72 25.17C152.17 29.67 147.31 34.52 142.6 39.41C139.88 42.24 139.78 45.71 142.36 48.25C144.81 50.67 148.24 50.57 150.89 48C156.25 42.77 160.86 38.11 164.99 33.74C165.71 32.97 166.22 31.96 166.85 30.69C167.15 30.1 167.47 29.46 167.84 28.78C167.4 28.26 166.99 27.72 166.59 27.2C165.58 25.88 164.63 24.63 163.41 23.84C162.58 23.29 161.76 23.08 160.99 23.08V23.07Z" fill="#04D667"/>
<path d="M223.93 175.36C223.2 175.02 222.5 174.65 221.67 174.24C225.78 167.14 226.65 159.91 223.66 152.46C220.68 145.03 214.97 140.56 207.34 138.32C209.17 132.04 209.01 126.08 206.27 120.33C203.55 114.6 198.99 110.83 193.03 108.23C194.07 107.13 194.84 106.27 195.67 105.44C203.81 97.2 212.09 89.08 220.06 80.68C226.23 74.16 227.86 66.2 225.2 57.69C222.53 49.14 216.57 43.72 207.8 41.99C199.23 40.29 191.89 42.97 185.73 49.2C163.41 71.74 141.06 94.25 118.72 116.77C117.87 117.62 116.97 118.42 115.74 119.58C115.31 116.84 114.94 114.82 114.67 112.79C112.83 98.93 106.87 87.38 95.7401 78.79C90.9901 75.12 85.72 74.32 80.23 76.8C74.76 79.28 71.7501 83.67 71.2601 89.72C69.5701 110.63 67.9101 131.53 66.2001 152.43C64.9601 167.57 57.87 179.54 46.6 189.25C40.99 185.01 39.05 185.15 34.1 190.14C23.96 200.36 13.8201 210.58 3.69006 220.82C-0.27994 224.83 -0.26994 228.01 3.69006 232.03C10.0701 238.51 16.4901 244.95 22.8901 251.4C25.1301 253.66 27.3501 255.92 29.6001 258.17L84.92 313.96C90.85 319.94 96.7701 325.94 102.71 331.9C106.24 335.45 109.62 335.5 113.13 331.98C123.92 321.17 134.67 310.33 145.38 299.46C148.55 296.24 148.57 293.18 145.73 289.63C145.42 289.25 145.13 288.84 144.53 288.04C148.26 285.61 151.82 283.4 155.26 281.03C164.05 274.98 173.67 269.8 181.39 262.57C198.6 246.46 215.07 229.52 231.43 212.5C242.54 200.95 238.43 182.1 223.92 175.37L223.93 175.36ZM107.67 318.51C103.38 314.17 99.0701 309.81 94.7501 305.45L36.9401 247.15C30.1301 240.31 23.3201 233.47 16.6301 226.75C24.7701 218.54 32.7001 210.57 40.6201 202.58L40.6401 202.61C70.9501 233.17 101.36 263.83 131.49 294.2C123.68 302.17 115.74 310.27 107.66 318.51H107.67ZM222.43 203.2C222.3 203.37 222.16 203.54 222.01 203.69C204.85 220.81 187.91 238.16 170.39 254.91C165 260.07 158.12 263.66 151.83 267.84C146.37 271.48 140.8 274.95 135.12 278.59C108.85 252.11 82.4901 225.51 55.9501 198.75C56.3901 198.22 56.8501 197.51 57.4501 196.96C72.3601 183.3 78.8501 166.04 79.8201 146C80.6701 128.42 82.4601 110.9 83.8301 93.36C83.8801 92.71 83.9701 92.06 84.0701 91.42C84.5501 88.35 86.0101 87.7 88.4001 89.61C95.1801 95 99.4501 102.03 101.05 110.57C102.46 118.03 103.63 125.54 104.77 133.05C105.23 136.08 106.33 138.46 109.38 139.5C112.63 140.61 114.92 139.02 117.11 136.82C142.85 110.82 168.63 84.85 194.37 58.86C196.82 56.39 199.48 54.58 203.09 54.56C207.27 54.53 210.4 56.39 212.24 60.1C214.13 63.93 213.74 67.7 211.16 71.13C210.38 72.16 209.41 73.05 208.5 73.97C189.14 93.49 169.78 113.01 150.42 132.53C149.82 133.15 149.18 133.73 148.61 134.39C145.99 137.39 146 141.2 148.61 143.75C151.09 146.16 154.9 146.22 157.65 143.62C160.87 140.58 163.93 137.35 167.06 134.21C170.72 130.52 174.31 126.76 178.07 123.18C182.39 119.06 188.66 119.13 192.62 123.15C196.61 127.22 196.69 133.49 192.54 137.8C186.53 144.04 180.37 150.12 174.28 156.27C173.6 156.96 172.88 157.63 172.25 158.37C169.73 161.31 169.7 164.91 172.16 167.48C174.69 170.12 178.54 170.24 181.42 167.48C185.94 163.13 190.26 158.57 194.74 154.16C198.3 150.67 203.21 149.98 207.2 152.24C213.16 155.62 214.27 163.46 209.36 168.67C205.28 173 200.95 177.1 196.84 181.41C195.76 182.54 194.72 183.97 194.32 185.44C193.58 188.18 194.48 190.62 196.93 192.24C199.48 193.93 202.06 193.76 204.45 191.94C205.65 191.03 206.61 189.81 207.76 188.84C211.88 185.34 217.76 185.54 221.57 189.28C225.38 193.02 225.75 198.94 222.43 203.21V203.2Z" fill="#04D667"/>
</svg>
