<svg width="13" height="6" viewBox="0 0 13 6" fill="none" xmlns="http://www.w3.org/2000/svg">
<path d="M8.46827 5.26613L12.73 1.42682C12.9029 1.2701 13 1.0581 13 0.837119C13 0.616141 12.9029 0.404141 12.73 0.247421C12.6437 0.169022 12.541 0.106795 12.4279 0.0643291C12.3147 0.0218635 12.1934 -3.52596e-08 12.0708 -4.06174e-08C11.9482 -4.59751e-08 11.8269 0.0218635 11.7137 0.0643291C11.6006 0.106795 11.4979 0.169022 11.4116 0.247421L7.15912 4.0951C7.0728 4.1735 6.97011 4.23572 6.85697 4.27819C6.74382 4.32066 6.62246 4.34252 6.49989 4.34252C6.37732 4.34252 6.25597 4.32066 6.14282 4.27819C6.02968 4.23572 5.92699 4.1735 5.84067 4.0951L1.58823 0.24742C1.41462 0.0899135 1.17867 0.000986425 0.932288 0.000202089C0.685903 -0.000582247 0.449262 0.0868411 0.274425 0.243239C0.0995884 0.399637 0.0008764 0.612197 5.68558e-06 0.834162C-0.000865029 1.05613 0.096178 1.26931 0.269783 1.42682L4.53151 5.26613C5.05378 5.73605 5.76175 6 6.49989 6C7.23804 6 7.946 5.73605 8.46827 5.26613Z" fill="#04D667"/>
</svg>
