<svg width="38" height="40" viewBox="0 0 38 40" fill="none" xmlns="http://www.w3.org/2000/svg">
<g clip-path="url(#clip0_2114_60)">
<path d="M28.1072 27.5248C27.5438 28.9314 26.8198 30.1779 25.8783 31.2849C23.501 34.0809 20.4923 35.7105 16.9436 36.3132C15.0259 36.6391 13.1127 36.5682 11.2062 36.1668C10.9596 36.1154 10.6484 36.1554 10.4241 36.2697C8.11378 37.4385 5.81346 38.6301 3.51201 39.8183C3.21639 39.9715 2.92745 40.103 2.60951 39.8834C2.28822 39.6616 2.30273 39.3345 2.34177 38.9995C2.60505 36.758 2.85494 34.5155 3.14053 32.2775C3.20746 31.7526 3.14053 31.3604 2.79804 30.9189C-1.62858 25.2274 -0.713802 17.2646 4.91095 12.7212C5.87593 11.9413 7.00713 11.3787 8.05243 10.7017C8.21195 10.5987 8.38375 10.4386 8.44623 10.266C10.365 4.94262 14.1435 1.77606 19.4347 0.480384C23.5657 -0.530537 27.5416 0.0481123 31.2052 2.28838C34.9323 4.56752 37.2717 7.89076 37.8741 12.3461C38.3393 15.7929 37.4892 18.9514 35.5492 21.7955C35.3272 22.1214 35.286 22.4165 35.3462 22.787C35.7266 25.1256 36.097 27.4653 36.4629 29.8051C36.5655 30.4627 36.0602 30.8332 35.4198 30.5667C33.1362 29.6164 30.856 28.6592 28.5746 27.7055C28.4352 27.6472 28.2935 27.5957 28.1061 27.5237L28.1072 27.5248ZM3.79872 38.1097C3.98167 38.0263 4.1055 37.9748 4.22599 37.9131C6.20502 36.8953 8.18629 35.8821 10.1586 34.8528C10.4922 34.679 10.8012 34.6562 11.1615 34.7385C15.3762 35.6922 19.2941 34.9901 22.7848 32.3518C25.8158 30.0601 27.5271 26.9679 27.6041 23.0557C27.6654 19.9509 26.5565 17.2727 24.5039 15.0152C19.3532 9.35339 10.0939 9.18414 4.76927 14.6859C1.92454 17.6249 0.791116 21.1665 1.59656 25.272C1.9926 27.2892 2.93526 29.0389 4.24495 30.5942C4.42679 30.8103 4.58632 31.1511 4.56735 31.4187C4.49373 32.4433 4.34089 33.4611 4.22152 34.4823C4.08208 35.6705 3.94486 36.8587 3.79983 38.1086L3.79872 38.1097ZM34.9212 28.8754C34.9067 28.6867 34.9056 28.5472 34.8844 28.4111C34.5753 26.4373 34.2752 24.4612 33.9428 22.4919C33.8669 22.0436 33.9495 21.7063 34.215 21.3449C35.7668 19.227 36.6269 16.8415 36.6425 14.1861C36.6637 10.5313 35.2804 7.47564 32.6309 5.06384C29.5619 2.27008 25.9196 1.12994 21.851 1.4753C17.8974 1.81036 14.5685 3.47655 11.9715 6.58822C11.1537 7.56827 10.5089 8.66267 10.0114 9.92861C10.1888 9.88858 10.3059 9.86457 10.4219 9.83484C15.1074 8.66724 19.5027 9.32937 23.4363 12.2398C27.0954 14.9478 29.0209 18.6564 28.9372 23.3428C28.9205 24.2908 28.7252 25.2354 28.6059 26.236C30.6597 27.0948 32.7681 27.9754 34.9212 28.8754Z" fill="#051630"/>
<path d="M20.1534 22.7424C20.1601 21.8721 20.8495 21.1676 21.6951 21.1665C22.553 21.1665 23.2659 21.903 23.2547 22.7789C23.2435 23.6412 22.5452 24.3491 21.7018 24.3525C20.8384 24.3559 20.1456 23.6355 20.1534 22.7424Z" fill="#051630"/>
<path d="M8.80169 22.7491C8.80616 23.6434 8.11115 24.3593 7.24657 24.3524C6.40208 24.3456 5.70596 23.6343 5.69927 22.772C5.69257 21.8972 6.40989 21.1607 7.26554 21.1664C8.11226 21.1721 8.79611 21.8766 8.80058 22.7491H8.80169Z" fill="#051630"/>
<path d="M14.4756 21.1665C15.3335 21.1665 16.0453 21.9041 16.0319 22.7801C16.0185 23.6492 15.3257 24.3502 14.479 24.3514C13.6167 24.3525 12.9116 23.6218 12.925 22.7401C12.9384 21.8709 13.6334 21.1665 14.4756 21.1665Z" fill="#051630"/>
</g>
<defs>
<clipPath id="clip0_2114_60">
<rect width="38" height="40" fill="white"/>
</clipPath>
</defs>
</svg>
