<svg width="62" height="52" viewBox="0 0 62 52" fill="none" xmlns="http://www.w3.org/2000/svg">
<g clip-path="url(#clip0_9_209)">
<path d="M0 15.7605L8.85714 0L11.9571 15.7605H0Z" fill="#030E1E"/>
<path d="M8.85718 0.145996H57.2393C59.8657 0.145996 62 2.25591 62 4.85226V43.7428C62 45.6156 60.4623 47.1357 58.5679 47.1357H12.2893C10.3949 47.1357 8.85718 45.6156 8.85718 43.7428V0.145996Z" fill="#051630"/>
<g filter="url(#filter0_d_9_209)">
<path d="M31.8673 25.6901C31.8673 26.0002 31.8673 26.2131 31.8673 26.4259C31.8673 30.0133 31.8673 33.5947 31.8673 37.1822C31.8673 38.0334 32.0088 38.1794 32.8576 38.1855C34.1677 38.1915 35.4778 38.1855 36.7879 38.1855C37.8705 38.1855 37.9935 38.0639 37.9935 36.9937C37.9935 33.4427 37.9935 29.8917 37.9935 26.3468V25.6719H38.5901C39.685 25.6719 40.7798 25.6719 41.8746 25.6719C42.9203 25.6719 42.9879 25.605 42.9879 24.5957C42.9879 23.5316 42.9879 22.4675 42.9879 21.4034C42.9879 20.3292 42.4528 19.7921 41.3826 19.7921H38.0242C38.0242 18.6855 38.0181 17.6396 38.0242 16.5938C38.0365 15.5844 38.4733 15.1345 39.5004 15.0919C40.4846 15.0554 41.4748 15.0372 42.459 15.025C42.9264 15.025 43.1725 14.8001 43.1725 14.3501C43.1725 12.9638 43.1725 11.5835 43.1602 10.1972C43.1602 9.72288 42.8895 9.47966 42.4159 9.47966C41.0504 9.47966 39.685 9.42494 38.3256 9.51614C35.2133 9.7168 33.1036 11.2856 32.2548 14.0157C32.0149 14.8001 31.9288 15.6452 31.8796 16.4722C31.8181 17.5606 31.8673 18.6611 31.8673 19.7982C30.7602 19.7982 29.7207 19.7982 28.6812 19.7982C27.574 19.7982 27.4756 19.9016 27.4695 20.9656C27.4695 22.1574 27.4695 23.3431 27.4695 24.5349C27.4695 25.5989 27.5556 25.6841 28.632 25.6841C29.6899 25.6841 30.7417 25.6841 31.8611 25.6841L31.8673 25.6901Z" fill="white"/>
</g>
</g>
<defs>
<filter id="filter0_d_9_209" x="24.4695" y="6.46338" width="35.7029" height="48.7246" filterUnits="userSpaceOnUse" color-interpolation-filters="sRGB">
<feFlood flood-opacity="0" result="BackgroundImageFix"/>
<feColorMatrix in="SourceAlpha" type="matrix" values="0 0 0 0 0 0 0 0 0 0 0 0 0 0 0 0 0 0 127 0" result="hardAlpha"/>
<feOffset dx="7" dy="7"/>
<feGaussianBlur stdDeviation="5"/>
<feColorMatrix type="matrix" values="0 0 0 0 0 0 0 0 0 0 0 0 0 0 0 0 0 0 0.05 0"/>
<feBlend mode="normal" in2="BackgroundImageFix" result="effect1_dropShadow_9_209"/>
<feBlend mode="normal" in="SourceGraphic" in2="effect1_dropShadow_9_209" result="shape"/>
</filter>
<clipPath id="clip0_9_209">
<rect width="62" height="52" fill="white"/>
</clipPath>
</defs>
</svg>
