<svg width="24" height="24" viewBox="0 0 24 24" fill="none" xmlns="http://www.w3.org/2000/svg">
<circle cx="12" cy="12" r="12" fill="#04D667"/>
<g clip-path="url(#clip0_322_3177)">
<path d="M15.9924 12.4106C15.8303 12.4106 15.7388 12.4106 15.6468 12.4106C12.4608 12.4106 9.27423 12.4111 6.08825 12.41C5.48963 12.41 5.09514 12.1177 5.01123 11.6215C4.92607 11.1207 5.33559 10.636 5.886 10.5912C5.99433 10.5826 6.10453 10.5837 6.21349 10.5837C9.36064 10.5837 12.5078 10.5837 15.6549 10.5837H15.9267C15.9549 10.5498 15.9831 10.516 16.0119 10.4815C15.9348 10.4476 15.8397 10.4298 15.7827 10.3776C14.7833 9.47075 13.7833 8.56509 12.799 7.6445C12.638 7.49403 12.5003 7.28671 12.4445 7.08399C12.335 6.68198 12.5598 6.2995 12.9474 6.11171C13.3381 5.92219 13.7864 5.97446 14.1139 6.26964C14.6769 6.77617 15.2304 7.29188 15.7871 7.80415C16.6311 8.58002 17.4759 9.35474 18.3187 10.1312C19.226 10.9668 19.2273 12.0355 18.3224 12.8677C16.9442 14.1357 15.5629 15.4015 14.1866 16.6712C13.9136 16.9228 13.6011 17.0531 13.216 16.9796C12.8334 16.9067 12.5704 16.6908 12.4596 16.3473C12.3475 15.997 12.4377 15.6811 12.7219 15.4198C13.7376 14.4872 14.7539 13.5557 15.7695 12.6236C15.829 12.5691 15.8866 12.5116 15.9924 12.4106Z" fill="white"/>
</g>
<defs>
<clipPath id="clip0_322_3177">
<rect width="14" height="11" fill="white" transform="translate(5 6)"/>
</clipPath>
</defs>
</svg>
