<svg width="74" height="74" viewBox="0 0 74 74" fill="none" xmlns="http://www.w3.org/2000/svg">
<circle cx="37" cy="37" r="37" fill="#051630"/>
<path d="M27.8128 20.2773C28.0959 20.332 28.6621 20.4373 29.2269 20.5549C29.5169 20.6151 29.8041 20.6985 30.0913 20.7724C31.3317 21.0897 32.2549 20.611 32.966 19.6167C33.5746 18.766 34.3009 18.0562 35.2281 17.5393C36.5369 16.809 37.8075 16.8254 39.1026 17.5584C39.8794 17.9974 40.5373 18.5595 41.0693 19.2734C41.2471 19.5114 41.4426 19.7357 41.6218 19.9737C42.3111 20.89 43.2356 21.0691 44.2955 20.8353C44.9807 20.6835 45.6618 20.4906 46.3552 20.3935C47.3727 20.2499 48.3506 20.4674 49.2724 20.9091C49.4761 21.0076 49.6649 21.169 49.8167 21.3413C50.7207 22.3602 51.2185 23.55 51.2691 24.9204C51.28 25.2172 51.3115 25.514 51.3238 25.8107C51.3717 26.9787 51.8449 27.8458 53.0128 28.2355C53.3233 28.3395 53.6488 28.4298 53.9278 28.5925C54.6513 29.0151 55.4103 29.4062 56.0504 29.9355C57.3797 31.0337 57.5096 32.493 57.02 34.0384C56.8436 34.5978 56.529 35.1148 56.2678 35.6468C56.1994 35.7863 56.0996 35.9107 56.0052 36.0352C54.9494 37.4384 55.1122 38.8142 56.0928 40.1723C56.9352 41.3375 57.2963 42.6381 57.1581 44.0673C57.1322 44.3381 57.0474 44.6239 56.9133 44.8592C56.2309 46.0627 55.2216 46.8942 53.9292 47.3838C53.8567 47.4112 53.7815 47.4344 53.709 47.4631C51.6001 48.3165 51.3512 48.586 51.2308 50.9014C51.1802 51.871 50.9573 52.7764 50.5251 53.649C49.8905 54.9291 48.8416 55.5814 47.4684 55.6416C46.6547 55.6772 45.83 55.5062 45.0135 55.4091C44.7359 55.3763 44.4651 55.2819 44.193 55.2122C42.999 54.9085 42.0923 55.3421 41.3743 56.2926C41.0734 56.6919 40.778 57.1104 40.4101 57.4414C38.0906 59.5298 36.1417 59.5079 33.8208 57.4455C33.4502 57.1173 33.1507 56.7001 32.8553 56.2967C32.0771 55.2313 31.0691 54.9168 29.8068 55.2573C29.1449 55.4351 28.4706 55.6279 27.7923 55.6703C24.8573 55.8495 23.4911 54.4039 23.0384 51.4703C22.9098 50.6388 22.8209 49.8004 22.6595 48.9757C22.6144 48.746 22.4147 48.4861 22.2123 48.3617C21.6707 48.028 21.1059 47.712 20.5165 47.4768C19.7068 47.154 18.9697 46.7424 18.3159 46.1598C17.1316 45.104 16.7322 43.8074 17.1767 42.3044C17.3859 41.5946 17.7019 40.8958 18.0848 40.2625C19.3417 38.1878 19.3772 37.8104 18.067 35.8081C17.5145 34.9643 17.1671 34.063 17.044 33.066C16.9209 32.0649 17.1562 31.1896 17.8345 30.4156C18.5648 29.5799 19.4333 28.9741 20.4768 28.6089C20.7421 28.5159 20.9979 28.3956 21.2618 28.2998C22.4257 27.8759 22.8975 26.9883 22.9659 25.8094C23.0014 25.2008 23.0561 24.5922 23.1355 23.9877C23.1738 23.6964 23.2586 23.4023 23.3721 23.1315C24.2528 21.0445 25.1295 20.3744 27.8142 20.2786L27.8128 20.2773ZM46.864 52.6684C47.8008 52.6957 47.9252 52.6273 48.0634 51.9832C48.1878 51.4033 48.2959 50.8125 48.326 50.223C48.4559 47.6478 49.6703 45.8603 52.0719 44.881C52.649 44.6458 53.2098 44.36 53.7541 44.055C54.4065 43.6871 54.4366 43.5408 54.137 42.8487C54.0687 42.6915 53.9921 42.5355 53.91 42.3851C53.579 41.782 53.2317 41.1871 52.9103 40.5798C51.9967 38.8457 52.0049 37.1033 52.898 35.3637C53.0621 35.0436 53.2549 34.7387 53.4231 34.4214C53.6802 33.9386 53.936 33.4558 54.1794 32.9662C54.3805 32.5614 54.2752 32.229 53.8744 32.0198C53.2508 31.6943 52.6367 31.3456 51.9885 31.0775C49.669 30.1201 48.4449 28.4106 48.3 25.9024C48.2617 25.25 48.1208 24.6017 48.0169 23.9535C47.9471 23.5199 47.6996 23.2779 47.2414 23.3394C46.5617 23.431 45.8779 23.5063 45.2091 23.6499C43.4079 24.0342 41.6861 24.0287 40.2036 22.7349C39.7919 22.3752 39.4213 21.9704 39.037 21.5806C38.6308 21.1676 38.2533 20.7245 37.8252 20.3361C37.2563 19.8205 37.0183 19.8109 36.4617 20.332C35.9147 20.8448 35.4305 21.4234 34.9053 21.9595C34.0752 22.8074 33.1739 23.5637 31.9608 23.7757C30.9638 23.9494 29.9695 23.8701 28.9794 23.6376C28.3421 23.4885 27.6897 23.4051 27.0414 23.308C26.5942 23.2409 26.3139 23.4447 26.24 23.8906C26.1333 24.5375 25.9993 25.1844 25.9542 25.8381C25.7955 28.0851 24.8737 29.8288 22.7772 30.8341C22.5515 30.9421 22.3163 31.0296 22.0933 31.1418C21.534 31.4208 20.9637 31.6834 20.4262 31.9979C19.8873 32.3138 19.8463 32.4506 20.1144 33.0305C20.3824 33.6117 20.6915 34.1752 21.0102 34.7304C21.642 35.8314 22.1508 36.9829 22.0619 38.2754C21.9853 39.3968 21.5559 40.4267 20.9719 41.3936C20.6573 41.9146 20.3906 42.4644 20.113 43.0074C19.9106 43.4054 19.9899 43.7445 20.3988 43.9565C21.0362 44.2875 21.6666 44.6376 22.3272 44.9166C24.3814 45.7864 25.6437 47.2566 25.9296 49.5077C26.0376 50.3598 26.1621 51.2105 26.2892 52.0611C26.359 52.5261 26.627 52.7477 27.1071 52.6697C27.9865 52.5261 28.8727 52.4153 29.7425 52.2293C31.6558 51.8218 33.2642 52.3565 34.6236 53.7255C34.811 53.9143 34.9874 54.114 35.1679 54.3095C35.5194 54.6884 35.8558 55.0809 36.2237 55.4433C36.9978 56.2064 37.2809 56.2078 38.0468 55.4583C38.4147 55.0973 38.7744 54.7225 39.1026 54.3246C40.7383 52.3388 42.7952 51.7042 45.2748 52.3429C45.8943 52.5029 46.5275 52.6027 46.864 52.6711V52.6684Z" fill="white"/>
<path d="M34.9587 40.432C35.0818 40.2638 35.1666 40.1092 35.2869 39.9889C37.7719 37.4929 40.2597 34.997 42.7515 32.5079C43.6623 31.5984 45.0354 31.9062 45.3609 33.0878C45.5319 33.7087 45.3131 34.2147 44.8686 34.6578C42.9607 36.5575 41.0584 38.4653 39.1546 40.3691C38.1248 41.3989 37.0977 42.4315 36.0651 43.4572C35.3047 44.2121 34.4718 44.2149 33.7196 43.4668C32.5325 42.2851 31.3481 41.1008 30.1665 39.9123C29.4717 39.2148 29.4389 38.2875 30.0776 37.6653C30.7012 37.0567 31.6066 37.1004 32.2918 37.7788C33.1479 38.6267 34 39.4787 34.9587 40.4334V40.432Z" fill="#02DA68"/>
</svg>
