<svg width="89" height="88" viewBox="0 0 89 88" fill="none" xmlns="http://www.w3.org/2000/svg">
<path d="M44.5 88C69.0767 88 89 68.3005 89 44C89 19.6995 69.0767 0 44.5 0C19.9233 0 0 19.6995 0 44C0 68.3005 19.9233 88 44.5 88Z" fill="white"/>
<path d="M44.5 85C67.4198 85 86 66.6437 86 44C86 21.3563 67.4198 3 44.5 3C21.5802 3 3 21.3563 3 44C3 66.6437 21.5802 85 44.5 85Z" stroke="#02D768" stroke-width="2" stroke-miterlimit="10"/>
<path d="M27.9843 28.305C27.0624 26.9017 26.7487 25.4675 27.2181 23.9154C28.0033 21.3217 30.9145 19.6436 33.8362 20.0652C35.9917 20.3772 37.7936 21.394 39.4291 22.7333C39.787 23.0267 40.0438 23.066 40.4669 22.8697C41.7257 22.2848 43.0181 21.7702 44.279 21.1936C44.7758 20.9662 45.2115 20.96 45.7041 21.1853C47.005 21.7764 48.3269 22.324 49.6278 22.9172C49.9814 23.0784 50.2046 23.0371 50.5014 22.7891C52.158 21.4044 53.9956 20.3731 56.1974 20.0631C59.3886 19.6146 62.384 21.6028 62.9166 24.5561C63.1186 25.6865 62.8871 26.7488 62.3398 27.7511C62.243 27.9268 62.1398 28.1004 62.0177 28.3091C63.9733 29.1606 65.8783 30.0266 67.8127 30.8181C68.6568 31.1632 69.0042 31.6448 69 32.5727C68.9684 40.9117 68.9726 49.2529 68.9957 57.5919C68.9979 58.4103 68.6989 58.8423 67.9411 59.1709C60.5821 62.3577 53.2336 65.5714 45.8914 68.7933C45.2726 69.064 44.7442 69.0723 44.117 68.7974C36.7158 65.5486 29.3084 62.3163 21.8946 59.0985C21.2526 58.8195 21 58.4165 21 57.7304C21.0147 49.2673 21.0147 40.8043 21 32.3433C21 31.6282 21.2778 31.2128 21.9388 30.9338C23.9428 30.0865 25.9299 29.202 27.9865 28.305H27.9843ZM34.0362 38.3098C34.0151 38.4793 34.0025 38.5392 34.0025 38.5991C34.0025 46.3244 34.0046 54.0496 33.9898 61.7749C33.9898 62.1613 34.1583 62.3019 34.474 62.4383C37.4589 63.7299 40.4395 65.034 43.4223 66.334C43.5865 66.4063 43.7591 66.458 43.957 66.5303C43.9738 66.398 43.9927 66.3195 43.9927 66.241C43.9927 58.5157 43.9928 50.7905 44.0054 43.0652C44.0054 42.6994 43.837 42.5775 43.5465 42.4535C40.9026 41.3106 38.2651 40.1553 35.6233 39.0042C35.1139 38.7831 34.6066 38.5599 34.0362 38.3119V38.3098ZM55.9869 38.3119C55.7112 38.4255 55.5049 38.5061 55.3007 38.595C52.3937 39.8619 49.4931 41.1412 46.5777 42.3874C46.1314 42.5775 45.9756 42.7924 45.9778 43.2822C45.9967 50.8029 45.9904 58.3235 45.9904 65.8462V66.5592C46.2766 66.4476 46.4682 66.3794 46.6534 66.2988C49.5794 65.0237 52.4969 63.7361 55.4312 62.4817C55.867 62.2957 55.9954 62.0725 55.9933 61.6199C55.9785 54.0579 55.9827 46.4959 55.9827 38.9339V38.3139L55.9869 38.3119ZM23.0419 33.5151C23.0229 33.666 23.0082 33.7259 23.0082 33.7858C23.0082 41.5276 23.0082 49.2694 22.9955 57.0091C22.9955 57.3749 23.1618 57.501 23.4523 57.627C26.132 58.7864 28.8074 59.9562 31.4849 61.1197C31.6323 61.1838 31.7838 61.2334 31.9501 61.2954C31.9712 61.2003 31.9964 61.1445 31.9964 61.0887C31.9985 53.3263 32.0028 45.5659 31.9796 37.8035C31.9796 37.603 31.7249 37.3137 31.5165 37.2207C29.6683 36.3857 27.8033 35.5839 25.9425 34.7717C24.9974 34.3604 24.0501 33.9512 23.0419 33.513V33.5151ZM66.9813 33.5151C66.7118 33.6246 66.5413 33.6908 66.3729 33.7631C63.7733 34.8977 61.1799 36.0468 58.5676 37.1566C58.1088 37.3509 57.9741 37.5782 57.9741 38.0577C57.9909 45.5948 57.9867 53.132 57.9867 60.6692V61.3223C58.2708 61.2127 58.4814 61.1383 58.6855 61.0495C61.2684 59.9231 63.8427 58.7844 66.434 57.6808C66.8676 57.4948 66.9918 57.2716 66.9918 56.819C66.9771 49.2611 66.9813 41.7033 66.9813 34.1454V33.513V33.5151ZM46.4156 31.4526C47.5039 31.3554 48.5332 31.2769 49.5604 31.1694C52.0464 30.909 54.5092 30.535 56.8353 29.576C58.0709 29.0656 59.2328 28.4331 60.1253 27.4163C61.2073 26.1825 61.281 24.616 60.3001 23.438C59.5002 22.479 58.4308 22.0264 57.1889 21.983C55.6923 21.9293 54.3766 22.4853 53.1663 23.2789C50.1982 25.2236 48.0743 27.8772 46.5545 31.0186C46.5019 31.126 46.4808 31.2459 46.4177 31.4505L46.4156 31.4526ZM43.4939 31.4484C43.5549 31.3864 43.6159 31.3244 43.677 31.2624C42.9529 30.1051 42.2961 28.9002 41.492 27.7966C39.9533 25.6824 38.1198 23.8534 35.7096 22.6754C34.5098 22.0884 33.2489 21.766 31.908 22.105C30.5609 22.446 29.5126 23.1652 29.1189 24.5499C28.7295 25.918 29.3063 27.0071 30.3272 27.871C30.9355 28.3856 31.6196 28.8444 32.3395 29.1958C35.8549 30.909 39.6923 31.1095 43.4939 31.4505V31.4484ZM35.5833 36.766C35.7202 36.8631 35.7623 36.9086 35.817 36.9313C38.7577 38.2168 41.6962 39.5064 44.6474 40.7691C44.8726 40.8642 45.2221 40.8312 45.4557 40.732C48.2911 39.5167 51.116 38.2788 53.943 37.0429C54.0861 36.9809 54.2166 36.8921 54.4103 36.7825C54.1367 36.6565 53.9367 36.5573 53.7304 36.4705C51.7686 35.6355 49.7962 34.8192 47.847 33.9574C47.0387 33.5998 46.2577 33.3208 45.342 33.48C44.8832 33.5606 44.3906 33.4448 43.9127 33.4366C43.6896 33.4324 43.4434 33.4221 43.2476 33.5048C40.7111 34.5733 38.1809 35.6583 35.5833 36.766ZM65.5183 31.9858C63.8575 31.2624 62.3272 30.5846 60.78 29.9398C60.62 29.8716 60.3358 29.9274 60.1822 30.0286C58.5445 31.1178 56.7426 31.837 54.8292 32.2792C53.5241 32.581 52.2001 32.798 50.7834 33.0728C52.8442 33.9532 54.8145 34.8027 56.7974 35.6252C56.951 35.6893 57.1973 35.6128 57.3741 35.5384C58.6119 35.0114 59.8412 34.4658 61.0726 33.9284C62.5124 33.3002 63.9501 32.6698 65.5162 31.9858H65.5183ZM24.549 31.9527C24.6353 32.0209 24.6753 32.0726 24.73 32.0974C27.4055 33.2671 30.0788 34.4389 32.7605 35.5901C32.9353 35.6645 33.2068 35.6293 33.3941 35.5529C34.5435 35.0837 35.6844 34.5877 36.8253 34.0979C37.5936 33.7693 38.3598 33.4345 39.2734 33.0356C38.8819 32.9716 38.6608 32.9302 38.4356 32.8972C35.3476 32.459 32.3543 31.7584 29.7315 29.977C29.6073 29.8922 29.3715 29.8633 29.2368 29.9191C27.677 30.5804 26.1256 31.2624 24.5469 31.9506L24.549 31.9527ZM41.5804 24.5251C42.7655 26.2053 43.9191 27.8379 45.0031 29.3756C46.1083 27.8235 47.266 26.1949 48.4427 24.5416C47.3944 24.0828 46.2977 23.5951 45.1905 23.1301C45.06 23.0743 44.8579 23.1032 44.719 23.1611C43.6517 23.6137 42.5929 24.0828 41.5783 24.5271L41.5804 24.5251Z" fill="#051630"/>
</svg>
