<svg width="73" height="70" viewBox="0 0 73 70" fill="none" xmlns="http://www.w3.org/2000/svg">
<g clip-path="url(#clip0_283_57)">
<path d="M72.9998 18.4951C72.7914 19.496 72.6397 20.5119 72.3659 21.4947C70.3093 28.8575 63.6592 33.8874 56.0611 33.8529C55.8483 33.8529 55.6355 33.8529 55.3022 33.8529C55.3022 34.1436 55.3022 34.4178 55.3022 34.6919C55.3022 43.2803 55.3111 51.8687 55.2977 60.4571C55.2903 65.1468 52.2413 68.9241 47.719 69.8036C46.7503 69.9924 45.7354 69.9879 44.7414 69.9879C33.0036 69.9999 21.2672 69.9999 9.52934 69.9939C4.11427 69.9924 0.0101839 65.8585 0.00125553 60.4196C-0.00172059 58.8404 -0.00172059 57.2611 0.00125553 55.6834C0.00423166 54.6121 0.385176 54.2225 1.467 54.2196C3.86725 54.2106 6.26601 54.2166 8.66626 54.2166C8.92518 54.2166 9.1841 54.2166 9.52785 54.2166C9.54422 53.9319 9.56951 53.6817 9.57249 53.4314C9.66624 39.987 9.75701 26.5426 9.84778 13.0982C9.8582 11.4995 10.1707 11.1863 11.7808 11.1863C21.0708 11.1863 30.3608 11.1818 39.6507 11.1983C40.2058 11.1983 40.4573 11.05 40.6805 10.5091C43.3501 4.02134 49.7934 -0.190434 56.6802 0.00584619C64.9464 0.242581 71.9135 6.64041 72.8688 14.8677C72.8867 15.028 72.9551 15.1808 72.9998 15.3382V18.4966V18.4951ZM11.9474 54.2151C12.3581 54.2151 12.6394 54.2151 12.9206 54.2151C19.7866 54.2151 26.651 54.2151 33.5169 54.2151C34.9425 54.2151 36.3681 54.2046 37.7936 54.2211C38.6225 54.23 39.0124 54.6211 39.0362 55.4557C39.0585 56.1958 39.0347 56.939 39.0436 57.6807C39.06 58.9947 38.9499 60.3297 39.1314 61.6213C39.6507 65.3101 42.8694 67.8378 46.5613 67.5831C50.1044 67.3388 52.893 64.3272 52.9049 60.6174C52.9317 51.7908 52.9109 42.9642 52.9243 34.1391C52.9243 33.6701 52.7844 33.5038 52.3201 33.3869C48.1952 32.3486 44.8843 30.0891 42.4632 26.5561C42.2147 26.1935 41.9558 26.0781 41.5331 26.0796C37.7564 26.0946 33.9782 26.0901 30.2015 26.0856C29.9188 26.0856 29.6257 26.0856 29.3563 26.0092C28.8206 25.8594 28.517 25.4788 28.5081 24.9079C28.4992 24.3026 28.8132 23.91 29.3786 23.7512C29.6242 23.6823 29.895 23.6868 30.1539 23.6868C33.4321 23.6823 36.7103 23.6838 39.9885 23.6838C40.237 23.6838 40.4855 23.6838 40.8367 23.6838C39.4201 20.38 39.1299 17.0522 39.7088 13.6301H12.2183C12.1275 27.1599 12.0382 40.6403 11.9474 54.2181V54.2151ZM56.2055 31.4616C64.1696 31.4646 70.601 24.9963 70.6233 16.9608C70.6457 8.95381 64.1934 2.43013 56.2442 2.42114C48.2547 2.41365 41.7802 8.92235 41.7831 16.9608C41.7861 24.9664 48.2428 31.4571 56.207 31.4601L56.2055 31.4616ZM2.38662 56.6169C2.38662 58.0388 2.34347 59.4202 2.39555 60.7987C2.54138 64.6763 5.51156 67.5846 9.35374 67.5906C19.2821 67.6055 29.209 67.5965 39.1374 67.5936C39.3025 67.5936 39.4677 67.5576 39.4484 67.5606C38.752 66.4174 37.8829 65.3341 37.3993 64.098C36.941 62.9278 36.8011 61.6063 36.6821 60.3357C36.5675 59.1131 36.6568 57.871 36.6568 56.6169H2.38662Z" fill="#04D667"/>
<path d="M37.4993 46.9154C34.9577 46.9154 32.4146 46.9199 29.8729 46.9124C29.0664 46.9094 28.5754 46.5079 28.5129 45.8426C28.4414 45.077 28.9623 44.5436 29.8506 44.5331C31.3 44.5151 32.7494 44.5271 34.1988 44.5271C37.7389 44.5271 41.279 44.5271 44.8191 44.5271C45.0334 44.5271 45.2476 44.5151 45.4604 44.5361C46.1673 44.6065 46.6345 45.101 46.6196 45.7467C46.6048 46.3925 46.1182 46.893 45.4113 46.9049C44.0334 46.9289 42.6554 46.9139 41.2775 46.9139C40.0186 46.9139 38.7597 46.9139 37.4993 46.9139V46.9154Z" fill="#04D667"/>
<path d="M37.5738 34.1257C40.163 34.1257 42.7522 34.1197 45.3415 34.1302C46.1123 34.1332 46.6063 34.6007 46.6182 35.2794C46.6316 35.9596 46.1495 36.4316 45.3846 36.4811C45.1718 36.4945 44.9575 36.4886 44.7433 36.4886C41.1793 36.4886 37.6169 36.4886 34.053 36.4886C32.6036 36.4886 31.1542 36.5125 29.7064 36.4721C28.6975 36.4436 28.1216 35.4008 28.7227 34.6666C28.9668 34.3699 29.4802 34.1572 29.876 34.1497C32.4414 34.1047 35.0068 34.1272 37.5723 34.1272L37.5738 34.1257Z" fill="#04D667"/>
<path d="M25.8535 24.947C25.8595 26.9742 24.1809 28.6358 22.1095 28.6538C20.0307 28.6718 18.2718 26.9562 18.2927 24.9305C18.3135 22.9168 20.0307 21.2566 22.0902 21.2611C24.1616 21.2656 25.8476 22.9168 25.8535 24.947ZM22.114 26.2535C22.8893 26.24 23.5247 25.6332 23.5039 24.9275C23.483 24.2173 22.8313 23.6479 22.0545 23.6614C21.2733 23.6749 20.6587 24.2667 20.6751 24.9889C20.6929 25.7081 21.3298 26.2685 22.114 26.255V26.2535Z" fill="#04D667"/>
<path d="M25.8536 35.3409C25.8357 37.3681 24.1349 39.0148 22.068 39.0058C20.01 38.9968 18.2987 37.3217 18.2927 35.3124C18.2868 33.2792 20.0531 31.5786 22.1319 31.6161C24.2212 31.6535 25.8715 33.3047 25.8536 35.3409ZM22.0412 36.598C22.8269 36.616 23.4757 36.0646 23.5054 35.3499C23.5337 34.6532 22.8923 34.0269 22.1275 34.0044C21.3537 33.9819 20.7019 34.5468 20.6751 35.263C20.6498 35.9867 21.2555 36.5785 22.0412 36.598Z" fill="#04D667"/>
<path d="M25.8537 45.6837C25.8403 47.7124 24.1468 49.3561 22.0755 49.3516C20.013 49.3471 18.3047 47.6855 18.2928 45.6717C18.2794 43.6355 20.0219 41.9559 22.1246 41.9799C24.2213 42.0038 25.8685 43.64 25.8551 45.6837H25.8537ZM22.0636 46.9468C22.8507 46.9543 23.4921 46.3894 23.504 45.6762C23.5159 44.9795 22.8626 44.3622 22.1022 44.3517C21.3329 44.3412 20.6871 44.9226 20.6737 45.6388C20.6603 46.3625 21.2764 46.9408 22.0636 46.9483V46.9468Z" fill="#04D667"/>
<g clip-path="url(#clip1_283_57)">
<path d="M57.449 15.3107C56.5118 15.3031 55.5747 15.3107 54.6375 15.3077C54.4982 15.3077 54.3546 15.3031 54.2209 15.2669C53.5283 15.0859 53.1828 14.4585 53.2667 13.555C53.3335 12.8507 53.8469 12.3544 54.5551 12.3439C55.4453 12.3318 56.3355 12.3408 57.2257 12.3408C58.0804 12.3408 58.935 12.3378 59.7911 12.3408C60.0571 12.3408 60.3002 12.2866 60.5164 12.1161C60.9075 11.8054 61.0681 11.3122 60.9345 10.831C60.7866 10.3062 60.3856 9.96981 59.8381 9.95925C59.0531 9.94417 58.2681 9.93813 57.4845 9.96227C57.1816 9.97132 57.1205 9.86724 57.1233 9.5686C57.1276 8.7858 57.0935 8.0045 57.0792 7.22169C57.0736 6.92607 57.001 6.6591 56.8218 6.42984C56.5161 6.0407 56.0326 5.89892 55.5832 6.06634C55.1111 6.24281 54.8238 6.69832 54.8324 7.28655C54.8437 8.09349 54.8608 8.90194 54.8864 9.70737C54.8935 9.90043 54.8452 9.96076 54.6575 9.95925C54.1028 9.9502 53.5653 10.0528 53.0562 10.3031C51.5033 11.0678 50.7197 12.8386 51.0909 14.7586C51.4194 16.454 52.8429 17.6757 54.5238 17.6923C55.5079 17.7028 56.4919 17.6893 57.4746 17.6968C58.0989 17.7013 58.5724 18.1161 58.7061 18.7526C58.9407 19.8612 58.3506 20.6606 57.2911 20.6621C55.6159 20.6651 53.9422 20.6651 52.267 20.6606C51.9783 20.6606 51.7095 20.6998 51.4734 20.8914C51.0895 21.2021 50.9302 21.6968 51.0667 22.181C51.2132 22.6983 51.6228 23.0347 52.1703 23.0452C52.978 23.0588 53.7857 23.0573 54.5949 23.0452C54.8082 23.0422 54.8722 23.1025 54.8736 23.3348C54.8765 24.1297 54.9006 24.9246 54.9205 25.7194C54.9248 25.8929 54.9291 26.0633 54.9931 26.2307C55.1964 26.7647 55.724 27.089 56.2288 26.9834C56.8076 26.8612 57.1731 26.3861 57.166 25.73C57.1589 24.9593 57.1432 24.19 57.1134 23.4208C57.1034 23.1538 57.1347 23.0241 57.4376 23.0407C57.7135 23.0573 57.9993 23.009 58.2709 22.9396C60.0969 22.4736 61.2032 20.7119 60.9686 18.6636C60.7425 16.7013 59.3048 15.3303 57.449 15.3152V15.3107Z" fill="#02D668"/>
</g>
</g>
<defs>
<clipPath id="clip0_283_57">
<rect width="73" height="70" fill="white"/>
</clipPath>
<clipPath id="clip1_283_57">
<rect width="10" height="21" fill="white" transform="translate(51 6)"/>
</clipPath>
</defs>
</svg>
