<svg width="15" height="32" viewBox="0 0 15 32" fill="none" xmlns="http://www.w3.org/2000/svg">
<path d="M1.83468 20.845L11.433 31.3354C11.8248 31.7611 12.3548 32 12.9072 32C13.4596 32 13.9896 31.7611 14.3814 31.3354C14.5774 31.1229 14.733 30.8702 14.8392 30.5916C14.9453 30.3131 15 30.0144 15 29.7127C15 29.411 14.9453 29.1123 14.8392 28.8337C14.733 28.5552 14.5774 28.3025 14.3814 28.09L4.76226 17.6224C4.56626 17.41 4.41069 17.1572 4.30453 16.8787C4.19836 16.6002 4.1437 16.3014 4.1437 15.9997C4.1437 15.698 4.19836 15.3993 4.30453 15.1208C4.41069 14.8423 4.56626 14.5895 4.76226 14.377L14.3815 3.90948C14.7752 3.48214 14.9975 2.90135 14.9995 2.29486C15.0015 1.68838 14.7829 1.10587 14.3919 0.675508C14.0009 0.245142 13.4695 0.00215898 12.9146 1.50765e-05C12.3597 -0.00212883 11.8267 0.236747 11.433 0.664083L1.83468 11.1545C0.659877 12.4401 6.03958e-07 14.1828 4.45113e-07 15.9997C2.86268e-07 17.8167 0.659876 19.5594 1.83468 20.845Z" fill="#04D667"/>
</svg>
